<?xml version="1.0" standalone="no"?>
<!DOCTYPE svg PUBLIC "-//W3C//DTD SVG 1.1//EN" "http://www.w3.org/Graphics/SVG/1.1/DTD/svg11.dtd" >
<svg xmlns="http://www.w3.org/2000/svg" xmlns:xlink="http://www.w3.org/1999/xlink" version="1.1">
<metadata>
Created by FontForge 20200427 at Tue Feb  9 16:22:58 2016
 By www
Copyright (c) 2014 IcoMoon.io. All Rights Reserved.
</metadata>
<defs>
<font id="IcoMoon-Ultimate" horiz-adv-x="2048" >
  <font-face 
    font-family="IcoMoon-Ultimate"
    font-weight="400"
    font-stretch="normal"
    units-per-em="2048"
    panose-1="0 0 0 0 0 0 0 0 0 0"
    ascent="1920"
    descent="-128"
    x-height="1275.5"
    cap-height="1664"
    bbox="-128.054 -142 5137.67 2048"
    underline-thickness="0"
    underline-position="0"
    unicode-range="U+0001-FFFD"
  />
<missing-glyph 
 />
    <glyph glyph-name="uniE900" unicode="house" 
d="M2048 739l-1024 795l-1024 -795v324l1024 795l1024 -795v-324zM1792 768v-768h-1536v768l768 576z" />
    <glyph glyph-name="uniE901" unicode="house&#x32;" 
d="M2048 739l-1024 795l-1024 -795v324l1024 795l1024 -795v-324zM1792 768v-768h-512v512h-512v-512h-512v768l768 576z" />
    <glyph glyph-name="uniE902" unicode="house&#x33;" 
d="M1024 1856l-1024 -1024l192 -192l192 192v-832h512v384h256v-384h512v832l192 -192l192 192zM1024 1024q-53 0 -90.5 37.5t-37.5 90.5t37.5 90.5t90.5 37.5t90.5 -37.5t37.5 -90.5t-37.5 -90.5t-90.5 -37.5z" />
    <glyph glyph-name="uniE903" unicode="house&#x34;" 
d="M1024 1856l-1024 -1024l192 -192l192 192v-832h1280v832l192 -192l192 192zM1024 1024q-53 0 -90.5 37.5t-37.5 90.5t37.5 90.5t90.5 37.5t90.5 -37.5t37.5 -90.5t-37.5 -90.5t-90.5 -37.5z" />
    <glyph glyph-name="uniE904" unicode="house&#x35;" 
d="M2048 704l-384 384v576h-256v-320l-384 384l-1024 -1024v-64h256v-640h640v384h256v-384h640v640h256v64z" />
    <glyph glyph-name="uniE905" unicode="house&#x36;" 
d="M1024 1920l-1024 -768v-384l256 192v-960q0 -53 37.5 -90.5t90.5 -37.5h1280q53 0 90.5 37.5t37.5 90.5v960l256 -192v384zM1664 0v0v0h-640v640h-384v-640h-256v0v0v1056l640 480l640 -480v-1056v0zM1152 1024h256v-256h-256v256z" />
    <glyph glyph-name="uniE906" unicode="house&#x37;" 
d="M589 1152l563 512h-576l-563 -512h576zM0 1024h512v-1024h-512v1024zM1344 1664l-704 -640v-1024h512v512h384v-512h512v1024z" />
    <glyph glyph-name="uniE907" unicode="house&#x38;" 
d="M2048 832l-1024 1024l-1024 -1024l192 -192l192 192v-960h512v384h256v-384h512v960l192 -192zM1536 0h-256v384h-512v-384h-256v960l512 512l512 -512v-960z" />
    <glyph glyph-name="uniE908" unicode="house&#x39;" 
d="M1024 1856l-1024 -1024l192 -192l192 192v-960h512v384h256v-384h512v960l192 -192l192 192zM528 0h-16v960l16 16v-976zM592 0h-32v1008l32 32v-1040zM656 0h-32v1072l32 32v-1104zM720 0h-32v1136l32 32v-1168zM784 384h-16v-384h-16v1200l32 32v-848zM848 384h-32v880
l32 32v-912zM912 384h-32v944l32 32v-976zM976 384h-32v1008l32 32v-1040zM1040 384h-32v1072l16 16l16 -16v-1072zM1104 384h-32v1040l32 -32v-1008zM1168 384h-32v976l32 -32v-944zM1232 384h-32v912l32 -32v-880zM1296 0h-16v384h-16v848l32 -32v-1200zM1360 0h-32v1168
l32 -32v-1136zM1424 0h-32v1104l32 -32v-1072zM1488 0h-32v1040l32 -32v-1008zM1536 0h-16v976l16 -16v-960z" />
    <glyph glyph-name="uniE909" unicode="buildings" 
d="M0 -128h1024v2048h-1024v-2048zM640 1664h256v-256h-256v256zM640 1152h256v-256h-256v256zM640 640h256v-256h-256v256zM128 1664h256v-256h-256v256zM128 1152h256v-256h-256v256zM128 640h256v-256h-256v256zM1152 1280h896v-128h-896v128zM1152 -128h256v512h384
v-512h256v1152h-896v-1152z" />
    <glyph glyph-name="uniE90A" unicode="buildings&#x32;" 
d="M1984 1408h-64v192q0 27 -18.5 45.5t-45.5 18.5h-192v192q0 27 -18.5 45.5t-45.5 18.5t-45.5 -18.5t-18.5 -45.5v-192h-192q-27 0 -45.5 -18.5t-18.5 -45.5v-192h-64q-27 0 -45.5 -18.5t-18.5 -45.5v-320h384q53 0 90.5 -37.5t37.5 -90.5v-896h-128v832q0 27 -18.5 45.5
t-45.5 18.5h-768q-27 0 -45.5 -18.5t-18.5 -45.5v-832h-128v896q0 53 37.5 90.5t90.5 37.5h256v576q0 27 -18.5 45.5t-45.5 18.5h-768q-27 0 -45.5 -18.5t-18.5 -45.5v-1664q0 -27 18.5 -45.5t45.5 -18.5h1920q27 0 45.5 18.5t18.5 45.5v1408q0 27 -18.5 45.5t-45.5 18.5z
M1408 1152h-128v128h128v-128zM640 1536h128v-128h-128v128zM640 1280h128v-128h-128v128zM384 1536h128v-128h-128v128zM256 384h-128v128h128v-128zM256 640h-128v128h128v-128zM256 896h-128v128h128v-128zM256 1152h-128v128h128v-128zM256 1408h-128v128h128v-128z
M384 1280h128v-128h-128v128zM1408 0h-640v768h640v-768zM1664 1152h-128v128h128v-128zM1920 384h-128v256h128v-256zM1920 768h-128v256h128v-256zM1920 1152h-128v128h128v-128zM896 640h128v-128h-128v128zM1152 640h128v-128h-128v128zM896 384h128v-128h-128v128z
M1152 384h128v-128h-128v128z" />
    <glyph glyph-name="uniE90B" unicode="newspaper" 
d="M1792 1408v256h-1792v-1408q0 -53 37.5 -90.5t90.5 -37.5h1728q80 0 136 56t56 136v1088h-256zM1664 256h-1536v1280h1536v-1280zM256 1280h1280v-128h-1280v128zM1024 1024h512v-128h-512v128zM1024 768h512v-128h-512v128zM1024 512h384v-128h-384v128zM256 1024h640
v-640h-640v640z" />
    <glyph glyph-name="uniE90C" unicode="magazine" 
d="M1344 1152h256q27 0 45.5 18.5t18.5 45.5t-18.5 45.5t-45.5 18.5h-256q-27 0 -45.5 -18.5t-18.5 -45.5t18.5 -45.5t45.5 -18.5zM1344 1408h256q27 0 45.5 18.5t18.5 45.5t-18.5 45.5t-45.5 18.5h-256q-27 0 -45.5 -18.5t-18.5 -45.5t18.5 -45.5t45.5 -18.5zM1344 896h256
q27 0 45.5 18.5t18.5 45.5t-18.5 45.5t-45.5 18.5h-256q-27 0 -45.5 -18.5t-18.5 -45.5t18.5 -45.5t45.5 -18.5zM448 384h1152q27 0 45.5 18.5t18.5 45.5t-18.5 45.5t-45.5 18.5h-1152q-27 0 -45.5 -18.5t-18.5 -45.5t18.5 -45.5t45.5 -18.5zM448 640h1152q27 0 45.5 18.5
t18.5 45.5t-18.5 45.5t-45.5 18.5h-1152q-27 0 -45.5 -18.5t-18.5 -45.5t18.5 -45.5t45.5 -18.5zM1856 1920h-1472q-61 0 -109 -17t-81 -50q-33 -34 -49.5 -81t-16.5 -108v-1728q0 -27 18.5 -45.5t45.5 -18.5h1408q27 0 45.5 18.5t18.5 45.5v64h192q27 0 45.5 18.5
t18.5 45.5v1792q0 27 -18.5 45.5t-45.5 18.5zM1792 128h-1536v1536q0 35 7 59.5t22 38.5q14 15 39 22.5t60 7.5h1408v-1664zM1088 1664h-640q-26 0 -45 -19t-19 -45v-640q0 -26 19 -45t45 -19h640q26 0 45 19t19 45v640q0 26 -19 45t-45 19zM1024 1024h-512v128
q0 53 37.5 90.5t90.5 37.5h128q-53 0 -90.5 37.5t-37.5 90.5t37.5 90.5t90.5 37.5t90.5 -37.5t37.5 -90.5t-37.5 -90.5t-90.5 -37.5h128q53 0 90.5 -37.5t37.5 -90.5v-128z" />
    <glyph glyph-name="uniE90D" unicode="design" 
d="M2048 1344v512l-1984 -1984h512v128h64v-128h192v256h64v-256h192v128h64v-128h192v256h64v-256h192v128h64v-128h384v384h-128v64h128v192h-256v64h256v192h-128v64h128v192h-256v64h256v192h-128v64h128zM1664 256h-704l704 704v-704zM1216 1920l-1024 -1024l-192 -512
l512 192l1024 1024q0 72 -23 131t-65 101t-101 65t-131 23zM448 768l-128 128l896 896l128 -128z" />
    <glyph glyph-name="uniE90E" unicode="pencil" 
d="M1728 1920q66 0 124.5 -25t102 -68.5t68.5 -102t25 -124.5q0 -54 -17 -103t-47 -89l-128 -128l-448 448l128 128q40 30 89 47t103 17zM128 448l-128 -576l576 128l1184 1184l-448 448zM1431 1193l-896 -896l-110 110l896 896z" />
    <glyph glyph-name="uniE90F" unicode="pencil&#x32;" 
d="M1465 1913l-1145 -1145l-320 -896l895 320l1146 1145q24 96 -27 207t-141 201t-201 141t-207 27v0zM576 512l-128 128l1088 1088l128 -128z" />
    <glyph glyph-name="uniE910" unicode="pencil&#x33;" 
d="M1524 1920q-15 0 -30 -1.5t-29 -5.5l-1145 -1145l-320 -896l895 320l1146 1145q22 89 -20.5 191t-121.5 189t-179.5 145t-195.5 58zM835 381l-327 327l960 960l328 -328l-961 -959v0z" />
    <glyph glyph-name="uniE911" unicode="pencil&#x34;" 
d="M1465 1913l-1145 -1145h192v-128h128v-128h128v-128h128v-191l1145 1144q24 96 -27 207t-141 201t-201 141t-207 27zM768 256h-128v128h-128v128h-128v128h-110l-274 -768l768 274v110z" />
    <glyph glyph-name="uniE912" unicode="pencil&#x35;" 
d="M1536 832v-704h-1280v1280h704l256 256h-1024q-79 0 -135.5 -56.5t-56.5 -135.5v-1408q0 -79 56.5 -135.5t135.5 -56.5h1408q79 0 135.5 56.5t56.5 135.5v1024zM1728 1920l-1216 -1216v-320h320l1216 1216q0 72 -23 131t-65 101t-101 65t-131 23z" />
    <glyph glyph-name="uniE913" unicode="pencil&#x36;" 
d="M768 640l256 128l896 896l-128 128l-896 -896zM579 186q-24 50 -49.5 88.5t-57 70t-70 57t-88.5 49.5l198 545l256 156l768 768h-384l-768 -768l-384 -1280l1280 384l768 768v384l-768 -768l-156 -256z" />
    <glyph glyph-name="uniE914" unicode="pencil&#x37;" 
d="M1536 832v-704h-1280v1280h704l256 256h-1024q-79 0 -135.5 -56.5t-56.5 -135.5v-1408q0 -79 56.5 -135.5t135.5 -56.5h1408q79 0 135.5 56.5t56.5 135.5v1024zM1728 1920l-1216 -1216v-320h320l1216 1216q0 72 -23 131t-65 101t-101 65t-131 23zM832 640l-96 96l960 960
l96 -96z" />
    <glyph glyph-name="uniE915" unicode="eraser" 
d="M1919 1361q-5 84 -53 138t-95 76q-1 0 -4.5 1.5t-5.5 2.5l-402 161q-20 8 -41.5 12t-44.5 4q-54 0 -105.5 -22t-84.5 -59l-134.5 -151.5t-295.5 -333t-296 -333t-136 -153.5v0v0q-42 -48 -67.5 -104t-25.5 -152v-128q0 -36 12.5 -72t34 -68t50.5 -57t62 -38l378 -151
q44 -17 115 -33t160 64q6 5 12.5 11t12.5 13l9 11h0.5h0.5v0l844 950q21 24 39.5 56.5t32 68.5t21.5 72.5t8 68.5v128q0 3 -0.5 10l-0.5 7v0zM325 629l854 961q15 17 41 27.5t53 10.5q11 0 20.5 -2t17.5 -5l402 -161q9 -3 14.5 -7.5t6.5 -9.5q1 -4 -2 -10.5t-9 -13.5
l-854 -961q-15 -17 -41 -27.5t-53 -10.5q-11 0 -20.5 2t-17.5 5l-402 161q-9 3 -14.5 7.5t-6.5 9.5q-1 4 2 10.5t9 13.5v0zM256 320v128q0 19 5.5 22t8.5 3q2 0 6.5 -1t10.5 -3l402 -161q31 -12 55 -47.5t24 -68.5v-128q0 -19 -5.5 -22t-8.5 -3q-2 0 -6.5 1t-10.5 3
l-402 161q-31 12 -55 47.5t-24 68.5zM1792 1216q0 -41 -21 -96t-48 -85l-827 -931v88q0 41 21 96t48 85l827 931v-88z" />
    <glyph glyph-name="uniE916" unicode="eraser&#x32;" 
d="M1920 1354q0 2 -0.5 4.5l-0.5 2.5q-5 84 -53 138t-95 76q-1 0 -4.5 1.5t-5.5 2.5l-402 161q-20 8 -41.5 12t-44.5 4q-54 0 -105.5 -22t-84.5 -59l-854 -961q-2 -2 -4 -4.5t-4 -5.5v0v0q-42 -48 -67.5 -104t-25.5 -152v-128q0 -36 12.5 -72t34 -68t50.5 -57t62 -38
l378 -151q44 -17 115 -33t160 64q6 5 12.5 11t12.5 13l9 11h0.5h0.5l844 950q21 24 39.5 56.5t32 68.5t21.5 72.5t8 68.5v128v5.5v4.5zM1179 1590q15 17 41 27.5t53 10.5q11 0 20.5 -2t17.5 -5l402 -161q9 -3 14.5 -7.5t6.5 -9.5q1 -4 -2 -10.5t-9 -13.5l-501 -564l-514 206
l471 529v0zM1792 1216q0 -41 -21 -96t-48 -85l-443 -499v192l512 576v-88z" />
    <glyph glyph-name="uniE917" unicode="eraser&#x33;" 
d="M1919 1361q-5 84 -53 138t-95 76q-1 0 -4.5 1.5t-5.5 2.5l-402 161q-20 8 -41.5 12t-44.5 4q-54 0 -105.5 -22t-84.5 -59l-134.5 -151.5t-295.5 -333t-296 -333t-136 -153.5v0v0q-42 -48 -67.5 -104t-25.5 -152v-128q0 -36 12.5 -72t34 -68t50.5 -57t62 -38l378 -151
q44 -17 115 -33t160 64q6 5 12.5 11t12.5 13l9 11h0.5h0.5v0l844 950q21 24 39.5 56.5t32 68.5t21.5 72.5t8 68.5v128q0 3 -0.5 10l-0.5 7v0zM325 629l854 961q15 17 41 27.5t53 10.5q11 0 20.5 -2t17.5 -5l402 -161q9 -3 14.5 -7.5t6.5 -9.5q1 -4 -2 -10.5t-9 -13.5
l-854 -961q-15 -17 -41 -27.5t-53 -10.5q-11 0 -20.5 2t-17.5 5l-402 161q-9 3 -14.5 7.5t-6.5 9.5q-1 4 2 10.5t9 13.5v0z" />
    <glyph glyph-name="uniE918" unicode="feather" 
d="M0 -128q96 288 270 644t429 668t591.5 524t757.5 212q-197 -158 -348 -398t-281.5 -464.5t-254.5 -385t-268 -160.5h-336h-48l-384 -640h-128z" />
    <glyph glyph-name="uniE919" unicode="feather&#x32;" 
d="M0 -128h128l384 640h48h336q144 0 268 160.5t254.5 385t281.5 464.5t348 398q-421 0 -757.5 -212t-591.5 -524t-429 -668t-270 -644zM784 768h-144l64 104t181 248t282.5 296t368.5 248l-80 -74.5t-196 -199t-246 -286t-230 -336.5z" />
    <glyph glyph-name="uniE91A" unicode="feather&#x33;" 
d="M2037 1892q-9 13 -23 20.5t-30 7.5q-104 0 -205.5 -8.5t-199.5 -25t-192 -41.5t-184 -58q-91 -33 -176 -74t-164 -90t-152 -105t-139 -120q-140 -133 -247 -298.5t-179.5 -358t-109 -411t-36.5 -458.5h192q0 44 17 129.5t50 170.5t80.5 148.5t108.5 63.5q37 0 91 2.5
t118.5 10.5t137 23t145.5 39q79 27 147.5 61.5t126 77t104 93t81.5 108.5q7 13 8.5 27.5t-3.5 27.5q-5 14 -15.5 24t-24.5 15q-2 0 -31.5 8t-83.5 15q77 34 155.5 76.5t150 92t131 106t97.5 120.5q8 13 9 28t-5 29q-6 15 -17.5 24.5t-25.5 13.5q-3 1 -43.5 9t-105.5 15
q90 46 163 94t129 98.5t95.5 103t60.5 106.5q6 15 4.5 31t-10.5 29v0zM1525 1538q-63 -32 -122 -56.5t-104.5 -41.5t-73 -26l-27.5 -9q-25 -7 -38 -30t-6 -48t29.5 -38t48.5 -7q52 13 110 19.5t121 6.5q42 0 80.5 -2.5t69.5 -6.5q-33 -35 -77 -70t-98 -69t-117.5 -67.5
t-136.5 -65.5t-139.5 -56.5t-117 -41.5t-81 -26t-31.5 -9q-25 -7 -38 -29.5t-7 -47.5t27.5 -39t47.5 -9q67 14 133 20.5t129 6.5q38 0 70 -2t57 -5q-83 -96 -197.5 -151t-228 -83t-211.5 -35.5t-149 -7.5q-57 0 -103 -22.5t-83 -58.5t-65 -82t-48 -93q21 159 64.5 305.5
t107.5 278.5t149 249t190 217q62 59 130 111t141.5 97t152.5 83.5t163 69.5q72 27 147.5 48t153.5 36t158.5 24.5t163.5 13.5q-26 -32 -60.5 -64t-78 -63.5t-95 -62.5t-111.5 -61v0z" />
    <glyph glyph-name="uniE91B" unicode="feather&#x34;" 
d="M0 -128q0 110 9 221.5t27 220.5t45 213t63 198q34 91 76.5 176.5t92 165.5t107 154t121.5 141t133.5 126t144.5 111t155.5 95.5t165.5 79.5q87 36 177.5 63.5t184 46t190.5 27.5t196 9q8 0 15 -4t12 -11q4 -7 5 -15t-3 -15q-25 -55 -69.5 -108t-107.5 -104t-145.5 -99
t-183.5 -94q-28 -13 -56.5 -25t-55.5 -23q19 1 38 1.5t38 0.5q113 0 185.5 -8t76.5 -8q8 -2 14.5 -6.5t9.5 -12.5q3 -7 2.5 -15t-4.5 -15q-36 -57 -93.5 -112t-136.5 -107t-178 -101.5t-219 -96.5q-20 -8 -39.5 -15t-38.5 -14q14 0 28 0.5t28 0.5q112 0 176.5 -9t67.5 -10
q8 -1 14.5 -6.5t9.5 -13.5t1.5 -16.5t-6.5 -14.5q-110 -134 -206.5 -222.5t-198.5 -141.5t-218.5 -74.5t-265.5 -21.5q-68 0 -120.5 -58.5t-88.5 -175.5q-15 -46 -24 -95t-14 -90t-7 -67l-2 -26h-128z" />
    <glyph glyph-name="uniE91C" unicode="pen" 
d="M1856 1152l-576 576l192 192l576 -576zM1248 1568l448 -448l-288 -736l-1152 -512l-83 83l690 689q8 -2 16 -3t17 -1q53 0 90.5 37.5t37.5 90.5t-37.5 90.5t-90.5 37.5t-90.5 -37.5t-37.5 -90.5q0 -9 1 -17t3 -16l-689 -690l-83 83l512 1152z" />
    <glyph glyph-name="uniE91D" unicode="pen&#x2d;plus" horiz-adv-x="2432" 
d="M2240 1152l-576 576l192 192l576 -576zM1632 1568l448 -448l-288 -736l-1152 -512l-83 83l690 689q8 -2 16 -3t17 -1q53 0 90.5 37.5t37.5 90.5t-37.5 90.5t-90.5 37.5t-90.5 -37.5t-37.5 -90.5q0 -9 1 -17t3 -16l-689 -690l-83 83l512 1152zM768 1664h-256v256h-256
v-256h-256v-256h256v-256h256v256h256v256z" />
    <glyph glyph-name="uniE91E" unicode="pen&#x2d;remove" horiz-adv-x="2432" 
d="M2240 1152l-576 576l192 192l576 -576zM1632 1568l448 -448l-288 -736l-1152 -512l-83 83l690 689q8 -2 16 -3t17 -1q53 0 90.5 37.5t37.5 90.5t-37.5 90.5t-90.5 37.5t-90.5 -37.5t-37.5 -90.5q0 -9 1 -17t3 -16l-689 -690l-83 83l512 1152zM0 1664h768v-256h-768v256z
" />
    <glyph glyph-name="uniE91F" unicode="pen&#x32;" 
d="M2036 1336l-572 572q-14 14 -30 11.5t-24 -20.5l-77 -160l534 -534l160 77q18 8 20.5 24t-11.5 30zM1231 1649l-527 -44q-26 -3 -46.5 -13t-27.5 -44v0v0q-54 -258 -159 -502t-209.5 -433.5t-183 -305l-78.5 -115.5l115 -115l544 544q-9 19 -14 40t-5 43q0 80 56 136
t136 56t136 -56t56 -136t-56 -136t-136 -56q-22 0 -43 5t-40 14l-544 -544l115 -115l115.5 78.5t305 183t433.5 209.5t502 159v0v0q34 7 44 27.5t13 46.5l44 527l-546 546v0z" />
    <glyph glyph-name="uniE920" unicode="pen&#x33;" 
d="M1536 1664h-896l-64 256h1024zM1536 1536h-896l-256 -576l512 -1088h128v1035q-56 20 -92 69t-36 112q0 80 56 136t136 56t136 -56t56 -136q0 -63 -36 -112t-92 -69v-1035h128l512 1088z" />
    <glyph glyph-name="uniE921" unicode="pen&#x34;" 
d="M1304 1607l104 313h-896l104 -313l-296 -711l512 -1024h256l512 1024zM1230 1792l-42 -128h-456l-42 128h540zM1024 30v749q56 20 92 69t36 112q0 80 -56 136t-136 56t-136 -56t-56 -136q0 -63 36 -112t92 -69v-749l-435 871l264 635h470l264 -635l-435 -871v0z" />
    <glyph glyph-name="uniE922" unicode="pen&#x35;" 
d="M1064 1432q-32 -31 -76.5 -75t-87.5 -86t-77 -76.5t-45 -45.5q-89 -88 -223 -244t-258.5 -337.5t-212.5 -366t-84 -329.5q145 -4 329.5 84t366 212.5t337.5 258.5t244 223q12 11 46 45t76 77t86 87.5t75 76.5zM1889 1512l-36 36l195 161l-211 211l-161 -195l-36 36
q-42 3 -95.5 -15t-114.5 -51t-127 -78.5t-132 -99.5l474 -474q40 50 76 99.5t66 97.5q45 -37 47.5 -107.5t-50 -169.5t-166.5 -222t-302 -265l92 -92q168 120 300 250t202 260.5t65 257.5t-110 241q13 33 19.5 63t4.5 56v0z" />
    <glyph glyph-name="uniE923" unicode="marker" 
d="M2013 1497q-17 40 -40.5 79.5t-52.5 77t-63.5 72t-72.5 64.5q-40 32 -81 56t-81.5 40.5t-80 25t-77.5 8.5q-58 0 -108 -20.5t-90 -60.5l-918 -918q-7 -7 -12.5 -15t-8.5 -18l-322 -850q-9 -25 -3 -50.5t24 -44.5l45 -45q13 -13 29.5 -19.5t34.5 -6.5q8 0 15.5 1.5
t15.5 3.5l850 322q10 3 18 8.5t15 12.5l918 918q33 33 53 73.5t25.5 86t-2.5 96t-30 103.5v0zM959 385l-446 446l768 768l446 -446z" />
    <glyph glyph-name="uniE924" unicode="marker&#x32;" 
d="M2013 1497q-17 40 -40.5 79.5t-52.5 77t-63.5 72t-72.5 64.5q-40 32 -81 56t-81.5 40.5t-80 25t-77.5 8.5q-58 0 -108 -20.5t-90 -60.5l-918 -918q-7 -7 -12.5 -15t-8.5 -18l-322 -850q-9 -25 -3 -50.5t24 -44.5l45 -45q13 -13 29.5 -19.5t34.5 -6.5q8 0 15.5 1.5
t15.5 3.5l850 322q10 3 18 8.5t15 12.5l918 918q33 33 53 73.5t25.5 86t-2.5 96t-30 103.5v0zM959 385l-446 446l768 768l446 -446zM1104 16h944v32h-912zM1040 -48h1008v32h-976zM976 -112h1072v32h-1040zM1232 144h816v32h-784zM1168 80h880v32h-848zM1296 208h752v32
h-720z" />
    <glyph glyph-name="uniE925" unicode="blog" 
d="M768 1920v-192q55 0 109.5 -5.5t107.5 -16t104.5 -26.5t101.5 -37q49 -21 95 -46t89.5 -54t84 -62.5t77.5 -71.5q38 -37 71.5 -77.5t62.5 -84t54 -89.5t46 -95q21 -50 37 -101.5t26.5 -104.5t16 -107.5t5.5 -109.5h192q0 265 -100.5 498t-274.5 407t-407 274.5
t-498 100.5zM768 1536v-192q71 0 138.5 -13.5t131 -39.5t121 -64.5t107.5 -88.5t88.5 -107.5t64.5 -121t39.5 -131t13.5 -138.5h192q0 186 -70.5 349t-192 284.5t-284.5 192t-349 70.5zM960 1152l-128 -128l-448 -128l-384 -832l51 -51l465 466q-2 8 -3 16t-1 17
q0 53 37.5 90.5t90.5 37.5t90.5 -37.5t37.5 -90.5t-37.5 -90.5t-90.5 -37.5q-9 0 -17 1t-16 3l-466 -465l51 -51l832 384l128 448l128 128z" />
    <glyph glyph-name="uniE926" unicode="blog&#x32;" 
d="M768 1536v-192q71 0 138.5 -13.5t131 -39.5t121 -64.5t107.5 -88.5t88.5 -107.5t64.5 -121t39.5 -131t13.5 -138.5h192q0 186 -70.5 349t-192 284.5t-284.5 192t-349 70.5zM768 1920v-192q55 0 109.5 -5.5t107.5 -16t104.5 -26.5t101.5 -37q49 -21 95 -46t89.5 -54
t84 -62.5t77.5 -71.5q38 -37 71.5 -77.5t62.5 -84t54 -89.5t46 -95q21 -50 37 -101.5t26.5 -104.5t16 -107.5t5.5 -109.5h192q0 265 -100.5 498t-274.5 407t-407 274.5t-498 100.5zM1077 949q-37 38 -84.5 56.5t-96.5 18.5t-96.5 -18.5t-84.5 -56.5l-715 -715v-362h362
l715 715q38 37 56.5 84.5t18.5 96.5t-18.5 96.5t-56.5 84.5v0zM256 64l-128 128l640 640l128 -128z" />
    <glyph glyph-name="uniE927" unicode="pen&#x37;" 
d="M2048 1600q0 66 -25 124.5t-68.5 102t-102 68.5t-124.5 25q-79 0 -145.5 -35t-110.5 -93l-1152 -1152l448 -448l1152 1152q58 44 93 110.5t35 145.5zM0 -128l192 640l448 -448z" />
    <glyph glyph-name="uniE928" unicode="brush" 
d="M442 -127v0v0q-90 0 -165 21t-130.5 47t-87.5 48.5t-35 24.5q-16 13 -21.5 32.5t1.5 38.5q6 19 23 31t37 12q72 0 118.5 18t78 49.5t53 74t42.5 90.5q20 47 45 96.5t64 90.5t96.5 67t142.5 26q64 0 122.5 -24t103.5 -70q46 -45 70 -103.5t24 -122.5t-24 -122.5
t-70 -103.5q-55 -55 -113 -96.5t-119.5 -69t-125.5 -41.5t-130 -14v0zM2005 1888q-40 35 -93 31.5t-88 -42.5l-969 -1096q-4 -5 -8.5 -10.5t-8.5 -11.5q-6 -9 -11 -19l-10 -20q51 -14 97 -41t84 -65q39 -38 66 -84.5t41 -97.5q28 12 53 32t44 47l824 1209q27 39 21 87
t-42 81v0z" />
    <glyph glyph-name="uniE929" unicode="paint&#x32;" 
d="M1024 1472q0 -27 -18.5 -45.5t-45.5 -18.5t-45.5 18.5t-18.5 45.5t18.5 45.5t45.5 18.5t45.5 -18.5t18.5 -45.5zM768 1472q0 -27 -18.5 -45.5t-45.5 -18.5t-45.5 18.5t-18.5 45.5t18.5 45.5t45.5 18.5t45.5 -18.5t18.5 -45.5zM768 1728q0 -27 -18.5 -45.5t-45.5 -18.5
t-45.5 18.5t-18.5 45.5t18.5 45.5t45.5 18.5t45.5 -18.5t18.5 -45.5zM512 1472q0 -27 -18.5 -45.5t-45.5 -18.5t-45.5 18.5t-18.5 45.5t18.5 45.5t45.5 18.5t45.5 -18.5t18.5 -45.5zM256 1472q0 -27 -18.5 -45.5t-45.5 -18.5t-45.5 18.5t-18.5 45.5t18.5 45.5t45.5 18.5
t45.5 -18.5t18.5 -45.5zM128 1344q0 -27 -18.5 -45.5t-45.5 -18.5t-45.5 18.5t-18.5 45.5t18.5 45.5t45.5 18.5t45.5 -18.5t18.5 -45.5zM384 1600q0 -27 -18.5 -45.5t-45.5 -18.5t-45.5 18.5t-18.5 45.5t18.5 45.5t45.5 18.5t45.5 -18.5t18.5 -45.5zM256 1728
q0 -27 -18.5 -45.5t-45.5 -18.5t-45.5 18.5t-18.5 45.5t18.5 45.5t45.5 18.5t45.5 -18.5t18.5 -45.5zM128 1600q0 -27 -18.5 -45.5t-45.5 -18.5t-45.5 18.5t-18.5 45.5t18.5 45.5t45.5 18.5t45.5 -18.5t18.5 -45.5zM128 1856q0 -27 -18.5 -45.5t-45.5 -18.5t-45.5 18.5
t-18.5 45.5t18.5 45.5t45.5 18.5t45.5 -18.5t18.5 -45.5zM640 1600q0 -27 -18.5 -45.5t-45.5 -18.5t-45.5 18.5t-18.5 45.5t18.5 45.5t45.5 18.5t45.5 -18.5t18.5 -45.5zM512 1728q0 -27 -18.5 -45.5t-45.5 -18.5t-45.5 18.5t-18.5 45.5t18.5 45.5t45.5 18.5t45.5 -18.5
t18.5 -45.5zM384 1856q0 -27 -18.5 -45.5t-45.5 -18.5t-45.5 18.5t-18.5 45.5t18.5 45.5t45.5 18.5t45.5 -18.5t18.5 -45.5zM640 1344q0 -27 -18.5 -45.5t-45.5 -18.5t-45.5 18.5t-18.5 45.5t18.5 45.5t45.5 18.5t45.5 -18.5t18.5 -45.5zM384 1344q0 -27 -18.5 -45.5
t-45.5 -18.5t-45.5 18.5t-18.5 45.5t18.5 45.5t45.5 18.5t45.5 -18.5t18.5 -45.5zM256 1216q0 -27 -18.5 -45.5t-45.5 -18.5t-45.5 18.5t-18.5 45.5t18.5 45.5t45.5 18.5t45.5 -18.5t18.5 -45.5zM896 1600q0 -27 -18.5 -45.5t-45.5 -18.5t-45.5 18.5t-18.5 45.5t18.5 45.5
t45.5 18.5t45.5 -18.5t18.5 -45.5zM1850 1369q-41 10 -88 17.5t-98 12.5v201q0 27 -56 45.5t-136 18.5t-136 -18.5t-56 -45.5v-64h64q27 0 45.5 -18.5t18.5 -45.5t-18.5 -47.5t-45.5 -20.5v0q-70 -4 -133.5 -13t-116.5 -22q-18 -5 -51.5 -15t-66 -27.5t-56.5 -44.5t-24 -66
v-1152q0 -39 24 -66t56.5 -44.5t66 -27.5t51.5 -15q39 -9 82.5 -16.5t91.5 -12.5t99.5 -7.5t104.5 -2.5t104.5 2.5t99.5 7.5t91.5 12.5t82.5 16.5q18 5 51.5 15t66 27.5t56.5 44.5t24 66v1152q0 39 -24 66t-56.5 44.5t-66 27.5t-51.5 15zM1920 580q-21 7 -40 12.5t-30 8.5
q-33 8 -69.5 14.5t-76 11t-82 8t-86.5 4.5v-447q0 -27 -18.5 -45.5t-45.5 -18.5t-45.5 18.5t-18.5 45.5v447q-44 -1 -86.5 -4.5t-82 -8t-76 -11t-69.5 -14.5q-11 -3 -30 -8.5t-40 -12.5v504q21 -7 40 -12.5t30 -8.5q33 -8 69.5 -14.5t76 -11t82 -8t86.5 -4.5v-386
q16 0 32 0.5t32 0.5t32 -0.5t32 -0.5v386q44 1 86.5 4.5t82 8t76 11t69.5 14.5q11 3 30 8.5t40 12.5v-504v0z" />
    <glyph glyph-name="uniE92A" unicode="color" 
d="M1030 1664q-247 0 -438.5 -73.5t-323 -185.5t-200 -245t-68.5 -253q0 -183 74 -326.5t190 -249t258.5 -174t278.5 -102.5q137 -34 232 -23.5t154.5 51t85 103.5t23.5 134q-5 173 62 202.5t128 23.5q31 -3 122.5 -16.5t189 -0.5t174 70.5t76.5 195.5q0 170 -66.5 327.5
t-195.5 277.5t-319 192t-437 72v0zM896 1536q53 0 90.5 -37.5t37.5 -90.5t-37.5 -90.5t-90.5 -37.5t-90.5 37.5t-37.5 90.5t37.5 90.5t90.5 37.5zM320 767q-27 0 -46 19t-19 46t19 46t46 19t46 -19t19 -46t-19 -46t-46 -19zM512 1024q-53 0 -90.5 37.5t-37.5 90.5t37.5 90.5
t90.5 37.5t90.5 -37.5t37.5 -90.5t-37.5 -90.5t-90.5 -37.5zM1024 512q-53 0 -99.5 15t-81.5 41t-55 61t-20 75t20 75t55 61t81.5 41t99.5 15t99.5 -15t81.5 -41t55 -61t20 -75t-20 -75t-55 -61t-81.5 -41t-99.5 -15zM1472 1024q-80 0 -136 56t-56 136t56 136t136 56
t136 -56t56 -136t-56 -136t-136 -56z" />
    <glyph glyph-name="uniE92B" unicode="color&#x32;" 
d="M1024 1664q-212 0 -398.5 -70.5t-325.5 -192t-219.5 -284.5t-80.5 -349q0 -124 37 -239.5t104.5 -215t162 -181.5t208.5 -140q65 -32 121.5 -37.5t91 12t39 55.5t-34.5 93q-42 42 -65.5 94.5t-23.5 110.5q0 66 30 124.5t82.5 102t122 68.5t149.5 25t149.5 -25t122 -68.5
t82.5 -102t30 -124.5q0 -58 -23.5 -110.5t-65.5 -94.5q-39 -55 -34.5 -93t39 -55.5t91 -12t121.5 37.5q114 58 208.5 140t162 181.5t104.5 215t37 239.5q0 186 -80.5 349t-219.5 284.5t-325.5 192t-398.5 70.5zM256 640q-53 0 -90.5 37.5t-37.5 90.5t37.5 90.5t90.5 37.5
t90.5 -37.5t37.5 -90.5t-37.5 -90.5t-90.5 -37.5zM512 1041q-69 -40 -136.5 -35.5t-93.5 50.5q-27 46 3 106.5t99 100.5t136.5 35.5t93.5 -50.5q27 -46 -3 -106.5t-99 -100.5v0zM1024 1152q-53 0 -99.5 15t-81.5 41t-55 61t-20 75t20 75t55 61t81.5 41t99.5 15t99.5 -15
t81.5 -41t55 -61t20 -75t-20 -75t-55 -61t-81.5 -41t-99.5 -15zM1536 1041q-69 40 -99 100.5t-3 106.5q26 46 93.5 50.5t136.5 -35.5t99 -100.5t3 -106.5q-26 -46 -93.5 -50.5t-136.5 35.5zM1792 640q-53 0 -90.5 37.5t-37.5 90.5t37.5 90.5t90.5 37.5t90.5 -37.5
t37.5 -90.5t-37.5 -90.5t-90.5 -37.5z" />
    <glyph glyph-name="uniE92C" unicode="color&#x2d;sampler" 
d="M1472 512h-1408q-27 0 -45.5 -18.5t-18.5 -45.5v-384q0 -27 18.5 -45.5t45.5 -18.5h1408q27 0 45.5 18.5t18.5 45.5v384q0 27 -18.5 45.5t-45.5 18.5zM1280 128q-53 0 -90.5 37.5t-37.5 90.5t37.5 90.5t90.5 37.5t90.5 -37.5t37.5 -90.5t-37.5 -90.5t-90.5 -37.5z
M1536 566v906q0 27 -18.5 45.5t-45.5 18.5h-384q-27 0 -45.5 -18.5t-18.5 -45.5v-394zM2009 1325l-345 167v-1029l375 777q12 24 3 49t-33 36v0zM1258 640l-657 657q-19 19 -45.5 19t-44.5 -19l-272 -272q-19 -18 -19 -44.5t19 -45.5l295 -295h724z" />
    <glyph glyph-name="uniE92D" unicode="switch" 
d="M1792 1152v448q0 27 -18.5 45.5t-45.5 18.5h-448v256l-320 -320l320 -320v256h384v-384h-256l320 -320l320 320h-256zM1440 896h-416v416q0 40 -28 68t-68 28h-832q-40 0 -68 -28t-28 -68v-832q0 -40 28 -68t68 -28h416v-416q0 -40 28 -68t68 -28h832q40 0 68 28t28 68
v832q0 40 -28 68t-68 28zM1408 0h-768v384h288q40 0 68 28t28 68v288h384v-768z" />
    <glyph glyph-name="uniE92E" unicode="bucket" 
d="M1698 1197q-30 12 -71.5 23.5t-93.5 20.5q-51 10 -110 17t-123.5 12t-134 7.5t-141.5 2.5t-141.5 -2.5t-134 -7.5t-123.5 -12t-110 -17q-52 -9 -93.5 -20.5t-71.5 -23.5q-47 -20 -70.5 -47.5t-23.5 -61.5q0 -4 0.5 -8.5t1.5 -8.5l126 -1012q2 -34 23.5 -58.5t53 -41.5
t69.5 -28.5t73 -19.5q42 -9 91 -16.5t102.5 -12.5t111 -7.5t116.5 -2.5t116.5 2.5t111 7.5t102.5 12.5t91 16.5q35 8 73 19.5t69.5 28.5t53 41.5t23.5 58.5l126 1012q1 4 1.5 8.5t0.5 8.5q0 34 -23.5 61.5t-70.5 47.5v0zM581 1123q46 7 98.5 12.5t108.5 9t115.5 5.5t120.5 2
t120.5 -2t115.5 -5.5t108.5 -9t98.5 -12.5q58 -9 96 -18t61 -17q-23 -8 -61 -17t-96 -18q-46 -7 -98.5 -12.5t-108.5 -9t-115.5 -5.5t-120.5 -2t-120.5 2t-115.5 5.5t-108.5 9t-98.5 12.5q-58 9 -96 18t-61 17q23 8 61 17t96 18zM1537 78q-8 -6 -42 -20.5t-115 -29.5
q-37 -6 -79 -11.5t-87 -9t-93 -5.5t-97 -2t-97 2t-93 5.5t-87 9t-79 11.5q-81 15 -115 29.5t-42 20.5l-111 883q25 -7 53.5 -13.5t61.5 -12.5q29 -6 60 -10.5t65 -8.5v-276q0 -53 37.5 -90.5t90.5 -37.5t90.5 37.5t37.5 90.5v258q31 -1 63 -1.5t65 -0.5v-576
q0 -27 18.5 -45.5t45.5 -18.5t45.5 18.5t18.5 45.5v578q33 1 65 2.5t63 4.5v-201q0 -27 18.5 -45.5t45.5 -18.5t45.5 18.5t18.5 45.5v212q34 4 65 8.5t60 10.5q33 6 61.5 12.5t53.5 13.5zM1753 1659q-26 31 -57 59t-66 52t-74 44t-83 37q-46 17 -97 30t-107.5 21.5
t-117.5 13t-127 4.5t-127 -4.5t-117.5 -13t-107.5 -21.5t-97 -30q-44 -17 -83 -37t-74 -44t-66 -52t-57 -59q-43 -51 -74.5 -111t-52 -130.5t-30.5 -152.5t-10 -177q0 -27 18.5 -45.5t45.5 -18.5t45.5 18.5t18.5 45.5q0 83 8.5 154t25 131.5t42.5 111t61 92.5q43 51 99 89
t127 65q41 15 87 26.5t96.5 19t106 11.5t115.5 4t115.5 -4t106 -11.5t96.5 -19t87 -26.5q71 -27 127 -65t99 -89q35 -42 61 -92.5t42.5 -111t25 -131.5t8.5 -154q0 -27 18.5 -45.5t45.5 -18.5t45.5 18.5t18.5 45.5q0 95 -10 177t-30.5 152.5t-52 130.5t-74.5 111z" />
    <glyph glyph-name="uniE92F" unicode="bucket&#x32;" 
d="M1753 1659q-26 31 -57 59t-66 52t-74 44t-83 37q-46 17 -97 30t-107.5 21.5t-117.5 13t-127 4.5t-127 -4.5t-117.5 -13t-107.5 -21.5t-97 -30q-44 -17 -83 -37t-74 -44t-66 -52t-57 -59q-43 -51 -74.5 -111t-52 -130.5t-30.5 -152.5t-10 -177q0 -27 18.5 -45.5
t45.5 -18.5t45.5 18.5t18.5 45.5q0 83 8.5 154t25 131.5t42.5 111t61 92.5q43 51 99 89t127 65q41 15 87 26.5t96.5 19t106 11.5t115.5 4t115.5 -4t106 -11.5t96.5 -19t87 -26.5q71 -27 127 -65t99 -89q35 -42 61 -92.5t42.5 -111t25 -131.5t8.5 -154q0 -27 18.5 -45.5
t45.5 -18.5t45.5 18.5t18.5 45.5q0 95 -10 177t-30.5 152.5t-52 130.5t-74.5 111zM1698 1197q-30 12 -71.5 23.5t-93.5 20.5q-51 10 -110 17t-123.5 12t-134 7.5t-141.5 2.5t-141.5 -2.5t-134 -7.5t-123.5 -12t-110 -17q-52 -9 -93.5 -20.5t-71.5 -23.5q-47 -20 -70.5 -47.5
t-23.5 -61.5q0 -4 0.5 -8.5t1.5 -8.5l126 -1012q2 -34 23.5 -58.5t53 -41.5t69.5 -28.5t73 -19.5q42 -9 91 -16.5t102.5 -12.5t111 -7.5t116.5 -2.5t116.5 2.5t111 7.5t102.5 12.5t91 16.5q35 8 73 19.5t69.5 28.5t53 41.5t23.5 58.5l126 1012q1 4 1.5 8.5t0.5 8.5
q0 34 -23.5 61.5t-70.5 47.5v0zM1467 1053q-46 -7 -98.5 -12.5t-108.5 -9t-115.5 -5.5t-120.5 -2t-120.5 2t-115.5 5.5t-108.5 9t-98.5 12.5q-58 9 -96 18t-61 17q23 8 61 17t96 18q46 7 98.5 12.5t108.5 9t115.5 5.5t120.5 2t120.5 -2t115.5 -5.5t108.5 -9t98.5 -12.5
q58 -9 96 -18t61 -17q-23 -8 -61 -17t-96 -18z" />
    <glyph glyph-name="uniE930" unicode="color&#x35;" 
d="M1920 1920h-1792q-53 0 -90.5 -37.5t-37.5 -90.5v-1792q0 -53 37.5 -90.5t90.5 -37.5h1792q53 0 90.5 37.5t37.5 90.5v1792q0 53 -37.5 90.5t-90.5 37.5zM640 1792v-64h-64v64h64zM576 320v64h64v-64h-64zM640 256v-64h-64v64h64zM576 448v64h64v-64h-64zM576 576v64h64
v-64h-64zM576 704v64h64v-64h-64zM576 832v64h64v-64h-64zM576 960v64h64v-64h-64zM576 1088v64h64v-64h-64zM576 1216v64h64v-64h-64zM576 1344v64h64v-64h-64zM576 1472v64h64v-64h-64zM576 1600v64h64v-64h-64zM576 128h64v-64h-64v64zM512 1792v-64h-64v64h64zM448 320
v64h64v-64h-64zM512 256v-64h-64v64h64zM448 448v64h64v-64h-64zM448 576v64h64v-64h-64zM448 704v64h64v-64h-64zM448 832v64h64v-64h-64zM448 960v64h64v-64h-64zM448 1088v64h64v-64h-64zM448 1216v64h64v-64h-64zM448 1344v64h64v-64h-64zM448 1472v64h64v-64h-64z
M448 1600v64h64v-64h-64zM448 128h64v-64h-64v64zM384 1792v-64h-64v64h64zM320 320v64h64v-64h-64zM384 256v-64h-64v64h64zM320 448v64h64v-64h-64zM320 576v64h64v-64h-64zM320 704v64h64v-64h-64zM320 832v64h64v-64h-64zM320 960v64h64v-64h-64zM320 1088v64h64v-64
h-64zM320 1216v64h64v-64h-64zM320 1344v64h64v-64h-64zM320 1472v64h64v-64h-64zM320 1600v64h64v-64h-64zM320 128h64v-64h-64v64zM1920 0h-256v64h-64v-64h-64v64h-64v-64h-64v64h-64v-64h-64v64h-64v-64h-64v64h-64v-64h-64v64h-64v-64h-64v64h-64v-64h-64v64h-64v64h64
v64h-64v64h64v64h-64v64h64v64h-64v64h64v64h-64v64h64v64h-64v64h64v64h-64v64h64v64h-64v64h64v64h-64v64h64v64h-64v64h64v64h-64v64h64v64h-64v64h64v64h-64v64h64v64h-64v64h64v-64h64v64h64v-64h64v64h64v-64h64v64h64v-64h64v64h704v-1792zM960 1728h64v-64h-64v64z
M1088 1728h64v-64h-64v64zM1216 1728h64v-64h-64v64zM1344 1728h64v-64h-64v64zM1024 1664h64v-64h-64v64zM960 1600h64v-64h-64v64zM1152 1664h64v-64h-64v64zM1088 1600h64v-64h-64v64zM832 1728h64v-64h-64v64zM768 1664h64v-64h-64v64zM896 1664h64v-64h-64v64z
M832 1600h64v-64h-64v64zM1216 1600h64v-64h-64v64zM1344 1600h64v-64h-64v64zM1472 1728h64v-64h-64v64zM1600 1728h64v-64h-64v64zM1472 1600h64v-64h-64v64zM1600 1600h64v-64h-64v64zM1024 1536h64v-64h-64v64zM960 1472h64v-64h-64v64zM1152 1536h64v-64h-64v64z
M1088 1472h64v-64h-64v64zM1216 1472h64v-64h-64v64zM1344 1472h64v-64h-64v64zM1024 1408h64v-64h-64v64zM960 1344h64v-64h-64v64zM1152 1408h64v-64h-64v64zM1088 1344h64v-64h-64v64zM768 1536h64v-64h-64v64zM896 1536h64v-64h-64v64zM832 1472h64v-64h-64v64z
M768 1408h64v-64h-64v64zM896 1408h64v-64h-64v64zM832 1344h64v-64h-64v64zM1216 1344h64v-64h-64v64zM1344 1344h64v-64h-64v64zM1472 1472h64v-64h-64v64zM1600 1472h64v-64h-64v64zM1472 1344h64v-64h-64v64zM1600 1344h64v-64h-64v64zM1024 1280h64v-64h-64v64z
M960 1216h64v-64h-64v64zM1152 1280h64v-64h-64v64zM1088 1216h64v-64h-64v64zM1216 1216h64v-64h-64v64zM1344 1216h64v-64h-64v64zM1024 1152h64v-64h-64v64zM960 1088h64v-64h-64v64zM1152 1152h64v-64h-64v64zM1088 1088h64v-64h-64v64zM768 1280h64v-64h-64v64z
M896 1280h64v-64h-64v64zM832 1216h64v-64h-64v64zM768 1152h64v-64h-64v64zM896 1152h64v-64h-64v64zM832 1088h64v-64h-64v64zM1216 1088h64v-64h-64v64zM1344 1088h64v-64h-64v64zM1472 1216h64v-64h-64v64zM1600 1216h64v-64h-64v64zM1472 1088h64v-64h-64v64z
M1600 1088h64v-64h-64v64zM1024 1024h64v-64h-64v64zM960 960h64v-64h-64v64zM1152 1024h64v-64h-64v64zM1088 960h64v-64h-64v64zM1216 960h64v-64h-64v64zM1344 960h64v-64h-64v64zM1024 896h64v-64h-64v64zM960 832h64v-64h-64v64zM1152 896h64v-64h-64v64zM1088 832h64
v-64h-64v64zM768 1024h64v-64h-64v64zM896 1024h64v-64h-64v64zM832 960h64v-64h-64v64zM768 896h64v-64h-64v64zM896 896h64v-64h-64v64zM832 832h64v-64h-64v64zM1216 832h64v-64h-64v64zM1344 832h64v-64h-64v64zM1472 960h64v-64h-64v64zM1600 960h64v-64h-64v64z
M1472 832h64v-64h-64v64zM1600 832h64v-64h-64v64zM1024 768h64v-64h-64v64zM960 704h64v-64h-64v64zM1152 768h64v-64h-64v64zM1088 704h64v-64h-64v64zM1216 704h64v-64h-64v64zM1344 704h64v-64h-64v64zM1024 640h64v-64h-64v64zM960 576h64v-64h-64v64zM1152 640h64v-64
h-64v64zM1088 576h64v-64h-64v64zM768 768h64v-64h-64v64zM896 768h64v-64h-64v64zM832 704h64v-64h-64v64zM768 640h64v-64h-64v64zM896 640h64v-64h-64v64zM832 576h64v-64h-64v64zM1216 576h64v-64h-64v64zM1344 576h64v-64h-64v64zM1472 704h64v-64h-64v64zM1600 704h64
v-64h-64v64zM1472 576h64v-64h-64v64zM1600 576h64v-64h-64v64zM1024 512h64v-64h-64v64zM960 448h64v-64h-64v64zM1152 512h64v-64h-64v64zM1088 448h64v-64h-64v64zM1216 448h64v-64h-64v64zM1344 448h64v-64h-64v64zM1024 384h64v-64h-64v64zM960 320h64v-64h-64v64z
M1152 384h64v-64h-64v64zM1088 320h64v-64h-64v64zM768 512h64v-64h-64v64zM896 512h64v-64h-64v64zM832 448h64v-64h-64v64zM768 384h64v-64h-64v64zM896 384h64v-64h-64v64zM832 320h64v-64h-64v64zM1216 320h64v-64h-64v64zM1344 320h64v-64h-64v64zM1472 448h64v-64h-64
v64zM1600 448h64v-64h-64v64zM1472 320h64v-64h-64v64zM1600 320h64v-64h-64v64zM1024 256h64v-64h-64v64zM960 192h64v-64h-64v64zM1152 256h64v-64h-64v64zM1088 192h64v-64h-64v64zM1216 192h64v-64h-64v64zM1344 192h64v-64h-64v64zM1024 128h64v-64h-64v64zM1152 128
h64v-64h-64v64zM768 256h64v-64h-64v64zM896 256h64v-64h-64v64zM832 192h64v-64h-64v64zM768 128h64v-64h-64v64zM896 128h64v-64h-64v64zM1472 192h64v-64h-64v64zM1600 192h64v-64h-64v64z" />
    <glyph glyph-name="uniE931" unicode="color&#x36;" 
d="M1973 1845q-37 38 -84.5 56.5t-96.5 18.5t-96.5 -18.5t-84.5 -56.5l-344 -344l-243 243l-272 -272l213 -213l-944 -944q-12 -12 -17 -27.5t-4 -31.5v0v-320q0 -27 18.5 -45.5t45.5 -18.5h320h3h5q14 0 27 5.5t24 15.5l944 944l213 -213l272 272l-243 243l344 344
q38 37 56.5 84.5t18.5 96.5t-18.5 96.5t-56.5 84.5v0zM346 0h-218v218l939 939l218 -218l-939 -939v0z" />
    <glyph glyph-name="uniE932" unicode="color&#x37;" 
d="M1973 1845q-37 38 -84.5 56.5t-96.5 18.5t-96.5 -18.5t-84.5 -56.5l-344 -344l-243 243l-272 -272l213 -213l-944 -944q-12 -12 -17 -27.5t-4 -31.5v0v-320q0 -27 18.5 -45.5t45.5 -18.5h320h3h5q14 0 27 5.5t24 15.5l944 944l213 -213l272 272l-243 243l344 344
q38 37 56.5 84.5t18.5 96.5t-18.5 96.5t-56.5 84.5v0zM986 640h-436l517 517l218 -218l-299 -299v0z" />
    <glyph glyph-name="uniE933" unicode="color&#x38;" 
d="M1536 1280h-224q-48 0 -59 24t-5 72t19 120t13 168q0 23 -2.5 40.5t-7.5 29.5q-11 41 -34.5 75t-56 58.5t-72 38.5t-83.5 14t-83.5 -14t-72 -38.5t-56 -58.5t-34.5 -75q-5 -12 -7.5 -29.5t-2.5 -40.5q0 -96 13 -168t19 -120t-5 -72t-59 -24h-224v-256h256v-992
q0 -13 9.5 -22.5t22.5 -9.5h64q13 0 22.5 -9.5t9.5 -22.5v-64q0 -13 9.5 -22.5t22.5 -9.5h192q13 0 22.5 9.5t9.5 22.5v64q0 13 9.5 22.5t22.5 9.5h64q13 0 22.5 9.5t9.5 22.5v992h256v256zM1152 125q-47 -10 -81 -44t-44 -81h-6q-10 47 -44 81t-81 44v899h256v-899v0z" />
    <glyph glyph-name="uniE934" unicode="color&#x39;" 
d="M1729 974q-49 137 -124 267t-167 249.5t-197.5 227.5t-216.5 202q-111 -94 -216.5 -202t-197.5 -227.5t-167 -249.5t-124 -267q-31 -85 -47 -173t-14.5 -176t22.5 -174t64 -168q49 -94 122 -170t161.5 -129.5t189.5 -82.5t207 -29t207 29t189.5 82.5t161.5 129.5t122 170
q43 82 64 168t22.5 174t-14.5 176t-47 173v0zM1478 402q-33 -62 -81.5 -113t-108 -86.5t-127 -55t-137.5 -19.5q-41 0 -81.5 7t-79 20t-75 31.5t-68.5 42.5q20 -2 40 -3.5t40 -1.5q88 0 172 24.5t158 69t135 107.5t102 141q33 64 49.5 129t20.5 127t-3 121t-19 112
q21 -42 39.5 -84t33.5 -84q17 -47 30.5 -104.5t15.5 -120.5t-10 -129t-46 -131v0z" />
    <glyph glyph-name="uniE935" unicode="color&#x31;&#x30;" 
d="M1024 1662q37 -35 71.5 -70.5t67.5 -71.5t63.5 -72.5t59.5 -74.5q45 -58 83.5 -116t71.5 -116t60 -116t48 -116q18 -52 32.5 -115t16.5 -132.5t-12 -143t-52 -146.5q-37 -70 -91.5 -127t-121 -97t-142.5 -62t-155 -22t-155 22t-142.5 62t-121 97t-91.5 127
q-38 73 -52 146.5t-12 143t16.5 132.5t32.5 115q21 58 48 116t60 116t71.5 116t83.5 116q29 38 59.5 74.5t63.5 72.5t67.5 71.5t71.5 70.5v0v0zM1024 1920q-111 -94 -216.5 -202t-197.5 -227.5t-167 -249.5t-124 -267q-31 -85 -47 -173t-14.5 -176t22.5 -174t64 -168
q49 -94 122 -170t161.5 -129.5t189.5 -82.5t207 -29t207 29t189.5 82.5t161.5 129.5t122 170q43 82 64 168t22.5 174t-14.5 176t-47 173q-49 137 -124 267t-167 249.5t-197.5 227.5t-216.5 202v0z" />
    <glyph glyph-name="uniE936" unicode="droplet&#x2d;contrast" 
d="M1729 974q-49 137 -124 267t-167 249.5t-197.5 227.5t-216.5 202q-111 -94 -216.5 -202t-197.5 -227.5t-167 -249.5t-124 -267q-31 -85 -47 -173t-14.5 -176t22.5 -174t64 -168q49 -94 122 -170t161.5 -129.5t189.5 -82.5t207 -29t207 29t189.5 82.5t161.5 129.5t122 170
q43 82 64 168t22.5 174t-14.5 176t-47 173v0zM514 372q-38 73 -52 146.5t-12 143t16.5 132.5t32.5 115q21 58 48 116t60 116t71.5 116t83.5 116q29 38 59.5 74.5t63.5 72.5t67.5 71.5t71.5 70.5v-1598q-79 0 -155 22t-142.5 62t-121 97t-91.5 127v0z" />
    <glyph glyph-name="uniE937" unicode="color&#x2d;clear" 
d="M2011 91l-1664 1664l-182 -182l298 -297q-22 -37 -42 -74t-38 -74.5t-34 -76t-30 -77.5q-31 -85 -47 -173t-14.5 -176t22.5 -174t64 -168q49 -94 122 -170t161.5 -129.5t189.5 -82.5t207 -29q83 0 164 18t155 52t140 83t120 111l226 -227l182 182v0zM1729 974
q-49 137 -124 267t-167 249.5t-197.5 227.5t-216.5 202q-39 -33 -77 -67.5t-75.5 -70.5t-74 -74t-71.5 -77l1061 -1061q5 50 3 101t-9.5 102t-20.5 101t-31 100v0z" />
    <glyph glyph-name="uniE938" unicode="format" 
d="M2048 768v768h-384v128q0 53 -37.5 90.5t-90.5 37.5h-1408q-53 0 -90.5 -37.5t-37.5 -90.5v-384q0 -53 37.5 -90.5t90.5 -37.5h1408q53 0 90.5 37.5t37.5 90.5v128h256v-512h-1152v-256h-64q-27 0 -45.5 -18.5t-18.5 -45.5v-640q0 -27 18.5 -45.5t45.5 -18.5h256
q27 0 45.5 18.5t18.5 45.5v640q0 27 -18.5 45.5t-45.5 18.5h-64v128h1152zM1536 1536h-1408v128h1408v-128z" />
    <glyph glyph-name="uniE939" unicode="pattern" 
d="M1984 512h-640q-80 0 -136 56t-56 136v470q56 20 103 55.5t81 82.5t53 104t19 120q0 80 -30 149.5t-82.5 122t-122 82.5t-149.5 30t-149.5 -30t-122 -82.5t-82.5 -122t-30 -149.5q0 -63 19 -120t53 -104t81 -82.5t103 -55.5v-470q0 -80 -56 -136t-136 -56h-640
q-27 0 -45.5 -18.5t-18.5 -45.5v-256q0 -27 18.5 -45.5t45.5 -18.5h1920q27 0 45.5 18.5t18.5 45.5v256q0 27 -18.5 45.5t-45.5 18.5zM128 64v-128q0 -27 18.5 -45.5t45.5 -18.5h1664q27 0 45.5 18.5t18.5 45.5v128h-1792z" />
    <glyph glyph-name="uniE93A" unicode="images" horiz-adv-x="2304" 
d="M2176 1664h-128v128q0 53 -37.5 90.5t-90.5 37.5h-1792q-53 0 -90.5 -37.5t-37.5 -90.5v-1536q0 -53 37.5 -90.5t90.5 -37.5h128v-128q0 -53 37.5 -90.5t90.5 -37.5h1792q53 0 90.5 37.5t37.5 90.5v1536q0 53 -37.5 90.5t-90.5 37.5zM256 1536v-1280h-128v1536h1792v-128
h-1536q-53 0 -90.5 -37.5t-37.5 -90.5zM1920 1216q0 -80 -56 -136t-136 -56t-136 56t-56 136t56 136t136 56t136 -56t56 -136zM2048 128h-1536v256l448 768l512 -640h128l448 384v-768z" />
    <glyph glyph-name="uniE93B" unicode="image" 
d="M1920 1792h-1792q-53 0 -90.5 -37.5t-37.5 -90.5v-1536q0 -53 37.5 -90.5t90.5 -37.5h1792q53 0 90.5 37.5t37.5 90.5v1536q0 53 -37.5 90.5t-90.5 37.5zM1472 1536q80 0 136 -56t56 -136t-56 -136t-136 -56t-136 56t-56 136t56 136t136 56zM1792 256h-1536v256l448 768
l512 -640h128l448 384v-768z" />
    <glyph glyph-name="uniE93C" unicode="image&#x32;" 
d="M1920 1664v0v0v-1536v0v0h-1792v0v0v1536v0v0h1792v0zM1920 1792h-1792q-53 0 -90.5 -37.5t-37.5 -90.5v-1536q0 -53 37.5 -90.5t90.5 -37.5h1792q53 0 90.5 37.5t37.5 90.5v1536q0 53 -37.5 90.5t-90.5 37.5v0zM1664 1344q0 -80 -56 -136t-136 -56t-136 56t-56 136
t56 136t136 56t136 -56t56 -136zM1792 256h-1536v256l448 768l512 -640h128l448 384v-768z" />
    <glyph glyph-name="uniE93D" unicode="diff" 
d="M1664 1216q0 -80 -56 -136t-136 -56t-136 56t-56 136t56 136t136 56t136 -56t56 -136zM0 1536v-1280q0 -53 37.5 -90.5t90.5 -37.5h768v128h-768v0v0v1280v0v0h768v128h-768q-53 0 -90.5 -37.5t-37.5 -90.5v0zM1920 1664h-768v256h-128v-2048h128v256h768q53 0 90.5 37.5
t37.5 90.5v1280q0 53 -37.5 90.5t-90.5 37.5zM1920 256v0v0h-768v128h640v640l-448 -384h-128l-64 80v816h768v0v0v-1280v0zM256 512v-128h640v656l-192 240z" />
    <glyph glyph-name="uniE93E" unicode="images&#x32;" horiz-adv-x="2304" 
d="M2176 1664h-128v128q0 53 -37.5 90.5t-90.5 37.5h-1792q-53 0 -90.5 -37.5t-37.5 -90.5v-1536q0 -53 37.5 -90.5t90.5 -37.5h128v-128q0 -53 37.5 -90.5t90.5 -37.5h1792q53 0 90.5 37.5t37.5 90.5v1536q0 53 -37.5 90.5t-90.5 37.5zM256 1536v-1280h-128v0v0v1536v0v0
h1792v0v0v-128h-1536q-53 0 -90.5 -37.5t-37.5 -90.5v0zM2176 0v0v0h-1792v0v0v1536v0v0h1792v0v0v-1536zM1920 1216q0 -80 -56 -136t-136 -56t-136 56t-56 136t56 136t136 56t136 -56t56 -136zM2048 128h-1536v256l448 768l512 -640h128l448 384v-768z" />
    <glyph glyph-name="uniE93F" unicode="image&#x33;" 
d="M0 1792v-1920h2048v1920h-2048zM1792 384h-1536v1152h1536v-1152zM1664 768l-128 256l-256 -256l-384 640l-512 -768v-128h1280v256z" />
    <glyph glyph-name="uniE940" unicode="images&#x33;" 
d="M1536 1792h-1536v-1536h1536v1536zM1408 640h-1280v1024h1280v-1024zM1024 1280l-91 -183l-293 439l-384 -768h1024zM1664 1426v-1298h-1422l-10 -95l1527 -161l161 1528z" />
    <glyph glyph-name="uniE941" unicode="image&#x34;" 
d="M1728 1152l-448 -448l-384 384l-640 -640v-192h1536v896h-64zM1856 1664q26 0 45 -19t19 -45v-1408q0 -26 -19 -45t-45 -19h-1664q-26 0 -45 19t-19 45v1408q0 26 19 45t45 19h1664zM1856 1792h-1664q-79 0 -135.5 -56.5t-56.5 -135.5v-1408q0 -79 56.5 -135.5
t135.5 -56.5h1664q79 0 135.5 56.5t56.5 135.5v1408q0 79 -56.5 135.5t-135.5 56.5v0z" />
    <glyph glyph-name="uniE942" unicode="image&#x35;" 
d="M1792 1536v-1280h-1536v1280h1536zM1856 1792h-1664q-79 0 -135.5 -56.5t-56.5 -135.5v-1408q0 -79 56.5 -135.5t135.5 -56.5h1664q79 0 135.5 56.5t56.5 135.5v1408q0 79 -56.5 135.5t-135.5 56.5v0zM1280 704l-384 384l-512 -512v-192h1280v704z" />
    <glyph glyph-name="uniE943" unicode="image&#x36;" 
d="M2042 1648h-2036q-2 -8 -3.5 -16t-1.5 -16h2046q0 8 -1.5 16t-3.5 16zM1932 1776h-1816q-14 -6 -26.5 -14t-24.5 -18h1918q-12 10 -24.5 18t-26.5 14zM2012 1712h-1976q-5 -7 -9.5 -15.5t-8.5 -16.5h2012q-4 8 -8.5 16.5t-9.5 15.5zM116 16h1816q14 6 26.5 14t24.5 18
h-1918q12 -10 24.5 -18t26.5 -14v0zM36 80h1976q5 7 9.5 15.5t8.5 16.5h-2012q4 -8 8.5 -16.5t9.5 -15.5v0zM2048 1552v32h-2048v-32h16v-1312h-16v-32h2048v32h-16v1312h16zM176 1552h32v-1312h-32v1312zM144 240h-32v1312h32v-1312zM240 1552h1568v-1312h-1568v1312z
M1840 1552h32v-1312h-32v1312zM1904 1552h32v-1312h-32v1312zM48 1552h32v-1312h-32v1312zM2000 240h-32v1312h32v-1312zM6 144h2036q2 8 3.5 16t1.5 16h-2046q0 -8 1.5 -16t3.5 -16v0zM1728 1152l-448 -448l-384 384l-640 -640v-192h1536v896h-64z" />
    <glyph glyph-name="uniE944" unicode="camera" 
d="M608 704q0 -86 32.5 -162t89 -132.5t132.5 -89t162 -32.5t162 32.5t132.5 89t89 132.5t32.5 162t-32.5 162t-89 132.5t-132.5 89t-162 32.5t-162 -32.5t-132.5 -89t-89 -132.5t-32.5 -162zM1920 1408h-448q-12 48 -25.5 94t-34.5 82t-52.5 58t-79.5 22h-512
q-48 0 -79.5 -22t-52.5 -58t-34.5 -82t-25.5 -94h-448q-53 0 -90.5 -37.5t-37.5 -90.5v-1152q0 -53 37.5 -90.5t90.5 -37.5h1792q53 0 90.5 37.5t37.5 90.5v1152q0 53 -37.5 90.5t-90.5 37.5zM1024 136q-118 0 -221.5 44.5t-180.5 121.5t-121.5 180.5t-44.5 221.5
t44.5 221.5t121.5 180.5t180.5 121.5t221.5 44.5t221.5 -44.5t180.5 -121.5t121.5 -180.5t44.5 -221.5t-44.5 -221.5t-121.5 -180.5t-180.5 -121.5t-221.5 -44.5zM1920 1024h-256v128h256v-128z" />
    <glyph glyph-name="uniE945" unicode="camera&#x32;" 
d="M1920 1280h-384q-8 0 -20 7.5t-15 14.5l-71 141q-20 40 -63 66.5t-87 26.5h-512q-44 0 -87 -26.5t-63 -66.5l-71 -141q-3 -7 -15 -14.5t-20 -7.5v64q0 27 -18.5 45.5t-45.5 18.5h-256q-27 0 -45.5 -18.5t-18.5 -45.5v-64q-53 0 -90.5 -37.5t-37.5 -90.5v-1152
q0 -53 37.5 -90.5t90.5 -37.5h1792q53 0 90.5 37.5t37.5 90.5v1152q0 53 -37.5 90.5t-90.5 37.5v0zM128 0v1152h384q44 0 87 26.5t63 66.5l71 141q3 7 15 14.5t20 7.5h512q8 0 20 -7.5t15 -14.5l71 -141q20 -40 63 -66.5t87 -26.5h384v-1152h-1792v0zM1024 1168
q-109 0 -205 -41.5t-168 -113.5t-113.5 -168t-41.5 -205t41.5 -205t113.5 -168t168 -113.5t205 -41.5t205 41.5t168 113.5t113.5 168t41.5 205t-41.5 205t-113.5 168t-168 113.5t-205 41.5zM1024 244q-82 0 -154 31t-126 85t-85 126t-31 154t31 154t85 126t126 85t154 31
t154 -31t126 -85t85 -126t31 -154t-31 -154t-85 -126t-126 -85t-154 -31zM1280 640q0 -53 -20 -99.5t-55 -81.5t-81.5 -55t-99.5 -20t-99.5 20t-81.5 55t-55 81.5t-20 99.5t20 99.5t55 81.5t81.5 55t99.5 20t99.5 -20t81.5 -55t55 -81.5t20 -99.5zM1664 1024h128v-128h-128
v128z" />
    <glyph glyph-name="uniE946" unicode="camera&#x33;" 
d="M1664 1792h-1280q-53 0 -99.5 -20t-81.5 -55t-55 -81.5t-20 -99.5v-1280q0 -53 20 -99.5t55 -81.5t81.5 -55t99.5 -20h1280q53 0 99.5 20t81.5 55t55 81.5t20 99.5v1280q0 53 -20 99.5t-55 81.5t-81.5 55t-99.5 20zM1344 768q0 -66 -25 -124.5t-68.5 -102t-102 -68.5
t-124.5 -25t-124.5 25t-102 68.5t-68.5 102t-25 124.5q0 78 35 145t93 111h384q58 -44 93 -111t35 -145zM640 1536h128v-256h-128v256zM384 1536h128v-256h-128v256zM1664 256v0v0h-1280v0v0v768h197q-33 -56 -51 -121t-18 -135q0 -106 40 -199.5t109.5 -163t163 -109.5
t199.5 -40t199.5 40t163 109.5t109.5 163t40 199.5q0 70 -18 135t-51 121h197v-768v0z" />
    <glyph glyph-name="uniE947" unicode="camera&#x34;" 
d="M654 1024l512 886q-35 5 -70.5 7.5t-71.5 2.5q-105 0 -204 -20.5t-190 -58.5t-172.5 -92t-150.5 -122zM950 1280h1023q-44 110 -112 205.5t-154.5 173.5t-189.5 135t-219 89zM728 640l-511 886q-51 -65 -91.5 -138t-68 -153t-42.5 -165t-15 -174q0 -66 8 -130.5
t24 -125.5h696zM1320 1152l511 -886q51 65 91.5 138t68 153t42.5 165t15 174q0 66 -8 130.5t-24 125.5h-696zM1098 512h-1023q44 -110 112 -205.5t154.5 -173.5t189.5 -135t219 -89zM1393 768l-511 -886q35 -5 70.5 -7.5t71.5 -2.5q105 0 204 20.5t190 58.5t172.5 92
t150.5 122z" />
    <glyph glyph-name="uniE948" unicode="headphones" 
d="M576 768h-128v-896h128q26 0 45 19t19 45v768q0 26 -19 45t-45 19zM1472 768q-26 0 -45 -19t-19 -45v-768q0 -26 19 -45t45 -19h128v896h-128zM2048 896q0 212 -80.5 398.5t-219.5 325.5t-325.5 219.5t-398.5 80.5t-398.5 -80.5t-325.5 -219.5t-219.5 -325.5
t-80.5 -398.5q0 -46 4 -91t12 -89t19 -86.5t26 -83.5q-29 -50 -45 -107t-16 -119q0 -85 29.5 -160.5t81 -134.5t122 -98t151.5 -50v886q-48 -6 -92 -23t-84 -41q-8 40 -12 81.5t-4 83.5q0 172 65.5 323.5t178.5 264.5t264.5 178.5t323.5 65.5t323.5 -65.5t264.5 -178.5
t178.5 -264.5t65.5 -323.5q0 -42 -4 -83.5t-12 -81.5q-40 24 -84 41t-92 23v-886q81 11 151.5 50t122 98t81 134.5t29.5 160.5q0 62 -16 119t-45 107q15 41 26 83.5t19 86.5t12 89t4 91v0z" />
    <glyph glyph-name="uniE949" unicode="headset&#x32;" 
d="M1658 1658q-64 63 -137 112t-153.5 82.5t-167 50.5t-176.5 17t-176.5 -17t-167 -50.5t-153.5 -82.5t-137 -112q-63 -64 -112 -137t-82.5 -153.5t-50.5 -167t-17 -176.5v-448q0 -80 56 -136t136 -56t136 56t56 136v256q0 80 -56 136t-136 56q-16 0 -31.5 -2.5t-29.5 -7.5
v10q12 148 76.5 276.5t167.5 223.5t236.5 149.5t284.5 54.5t284.5 -54.5t236.5 -149.5t167.5 -223.5t76.5 -276.5v-10q-14 5 -29.5 7.5t-31.5 2.5q-80 0 -136 -56t-56 -136v-256q0 -80 56 -136t136 -56q17 0 33 3t31 8v-203q0 -26 -19 -45t-45 -19h-331q-20 56 -69 92
t-112 36q-80 0 -136 -56t-56 -136t56 -136t136 -56q63 0 112 36t69 92h331q79 0 135.5 56.5t56.5 135.5v832q0 90 -17 176.5t-50.5 167t-82.5 153.5t-112 137z" />
    <glyph glyph-name="uniE94A" unicode="music" 
d="M1624 1331q-130 183 -165 188.5t-161 371.5l-178 29l-199 -1466q-168 96 -301.5 102t-221.5 -50.5t-125 -161t-10 -228.5q14 -65 71 -124t140 -91t185 -27.5t208 65.5q49 30 83 67.5t56 77.5t34.5 80t18.5 74l142 1088q189 -167 265 -304.5t83.5 -259t-31 -234
t-78.5 -228.5q81 33 171.5 120.5t139.5 221t30 308t-157 381.5v0z" />
    <glyph glyph-name="uniE94B" unicode="music&#x32;" 
d="M640 1536v-1055q-44 15 -92 23t-100 8q-93 0 -174.5 -25t-142.5 -68.5t-96 -102t-35 -124.5t35 -124.5t96 -102t142.5 -68.5t174.5 -25t174.5 25t142.5 68.5t96 102t35 124.5v606l896 245v-306q-44 15 -92 23t-100 8q-93 0 -174.5 -25t-142.5 -68.5t-96 -102t-35 -124.5
t35 -124.5t96 -102t142.5 -68.5t174.5 -25t174.5 25t142.5 68.5t96 102t35 124.5v1472l-1408 -384v0zM896 997v195l896 244v-194l-896 -245v0z" />
    <glyph glyph-name="uniE94C" unicode="music&#x33;" 
d="M640 1536l1408 384v-1472q0 -66 -35 -124.5t-96 -102t-142.5 -68.5t-174.5 -25t-174.5 25t-142.5 68.5t-96 102t-35 124.5t35 124.5t96 102t142.5 68.5t174.5 25q52 0 100 -8t92 -23v659l-896 -244v-960q0 -66 -35 -124.5t-96 -102t-142.5 -68.5t-174.5 -25t-174.5 25
t-142.5 68.5t-96 102t-35 124.5t35 124.5t96 102t142.5 68.5t174.5 25q52 0 100 -8t92 -23v1055z" />
    <glyph glyph-name="uniE94D" unicode="music&#x34;" 
d="M1920 1920l-1152 -256v-1248q-30 22 -66.5 40t-77 30.5t-85 19t-91.5 6.5q-93 0 -174.5 -25t-142.5 -68.5t-96 -102t-35 -124.5t35 -124.5t96 -102t142.5 -68.5t174.5 -25t174.5 25t142.5 68.5t96 102t35 124.5v827l1024 227v-574q-30 22 -66.5 40t-77 30.5t-85 19
t-91.5 6.5q-93 0 -174.5 -25t-142.5 -68.5t-96 -102t-35 -124.5t35 -124.5t96 -102t142.5 -68.5t174.5 -25t174.5 25t142.5 68.5t96 102t35 124.5v1472h-128zM1920 1410l-1024 -227v253l1024 228v-254z" />
    <glyph glyph-name="uniE94E" unicode="music&#x35;" 
d="M1920 1920h128v-1472q0 -66 -35 -124.5t-96 -102t-142.5 -68.5t-174.5 -25t-174.5 25t-142.5 68.5t-96 102t-35 124.5t35 124.5t96 102t142.5 68.5t174.5 25q47 0 91.5 -6.5t85 -19t77 -30.5t66.5 -40v736l-1024 -228v-988q0 -66 -35 -124.5t-96 -102t-142.5 -68.5
t-174.5 -25t-174.5 25t-142.5 68.5t-96 102t-35 124.5t35 124.5t96 102t142.5 68.5t174.5 25q47 0 91.5 -6.5t85 -19t77 -30.5t66.5 -40v1248z" />
    <glyph glyph-name="uniE94F" unicode="music&#x36;" 
d="M1920 1920l-1152 -256v-1248q-30 22 -66.5 40t-77 30.5t-85 19t-91.5 6.5q-93 0 -174.5 -25t-142.5 -68.5t-96 -102t-35 -124.5t35 -124.5t96 -102t142.5 -68.5t174.5 -25t174.5 25t142.5 68.5t96 102t35 124.5v827l1024 227v-574q-30 22 -66.5 40t-77 30.5t-85 19
t-91.5 6.5q-93 0 -174.5 -25t-142.5 -68.5t-96 -102t-35 -124.5t35 -124.5t96 -102t142.5 -68.5t174.5 -25t174.5 25t142.5 68.5t96 102t35 124.5v1472h-128zM448 24q-64 0 -118 15t-93.5 39t-62 54t-22.5 60t22.5 60t62 54t93.5 39t118 15t118 -15t93.5 -39t62 -54
t22.5 -60t-22.5 -60t-62 -54t-93.5 -39t-118 -15zM1600 280q-64 0 -118 15t-93.5 39t-62 54t-22.5 60t22.5 60t62 54t93.5 39t118 15t118 -15t93.5 -39t62 -54t22.5 -60t-22.5 -60t-62 -54t-93.5 -39t-118 -15zM1920 1410l-1024 -227v253l1024 228v-254z" />
    <glyph glyph-name="uniE950" unicode="album" 
d="M1856 1408h-1664q-26 0 -45 -19t-19 -45v-1408q0 -26 19 -45t45 -19h1664q26 0 45 19t19 45v1408q0 26 -19 45t-45 19zM1536 320q0 -40 -20 -75t-55 -61t-81.5 -41t-99.5 -15t-99.5 15t-81.5 41t-55 61t-20 75t20 75t55 61t81.5 41t99.5 15q35 0 67.5 -6.5t60.5 -19.5
v373l-512 -182v-485q0 -40 -20 -75t-55 -61t-81.5 -41t-99.5 -15t-99.5 15t-81.5 41t-55 61t-20 75t20 75t55 61t81.5 41t99.5 15q35 0 67.5 -6.5t60.5 -19.5v538l768 256v-832v0zM1728 1536h-1408q-27 0 -45.5 18.5t-18.5 45.5t18.5 45.5t45.5 18.5h1408q27 0 45.5 -18.5
t18.5 -45.5t-18.5 -45.5t-45.5 -18.5zM1600 1792h-1152q-27 0 -45.5 18.5t-18.5 45.5t18.5 45.5t45.5 18.5h1152q27 0 45.5 -18.5t18.5 -45.5t-18.5 -45.5t-45.5 -18.5z" />
    <glyph glyph-name="uniE951" unicode="cassette" 
d="M494 384l-85 -256h1230l-85 256h-1060zM1984 1536h-1920q-27 0 -45.5 -18.5t-18.5 -45.5v-1280q0 -27 18.5 -45.5t45.5 -18.5h210l113 340q7 20 23.5 32t37.5 12h1152q21 0 37.5 -12t23.5 -32l113 -340h210q27 0 45.5 18.5t18.5 45.5v1280q0 27 -18.5 45.5t-45.5 18.5z
M512 640q-53 0 -99.5 20t-81.5 55t-55 81.5t-20 99.5t20 99.5t55 81.5t81.5 55t99.5 20t99.5 -20t81.5 -55t55 -81.5t20 -99.5t-20 -99.5t-55 -81.5t-81.5 -55t-99.5 -20zM1536 640q-53 0 -99.5 20t-81.5 55t-55 81.5t-20 99.5t20 99.5t55 81.5t81.5 55t99.5 20t99.5 -20
t81.5 -55t55 -81.5t20 -99.5t-20 -99.5t-55 -81.5t-81.5 -55t-99.5 -20zM1728 1280h-1408q-27 0 -45.5 18.5t-18.5 45.5t18.5 45.5t45.5 18.5h1408q27 0 45.5 -18.5t18.5 -45.5t-18.5 -45.5t-45.5 -18.5zM640 896q0 -53 -37.5 -90.5t-90.5 -37.5t-90.5 37.5t-37.5 90.5
t37.5 90.5t90.5 37.5t90.5 -37.5t37.5 -90.5zM1664 896q0 -53 -37.5 -90.5t-90.5 -37.5t-90.5 37.5t-37.5 90.5t37.5 90.5t90.5 37.5t90.5 -37.5t37.5 -90.5z" />
    <glyph glyph-name="uniE952" unicode="tape&#x32;" 
d="M1600 1280q-93 0 -174.5 -35t-142.5 -96t-96 -142.5t-35 -174.5q0 -52 11 -100t32 -92h-342q21 44 32 92t11 100q0 93 -35 174.5t-96 142.5t-142.5 96t-174.5 35t-174.5 -35t-142.5 -96t-96 -142.5t-35 -174.5t35 -174.5t96 -142.5t142.5 -96t174.5 -35h1152
q93 0 174.5 35t142.5 96t96 142.5t35 174.5t-35 174.5t-96 142.5t-142.5 96t-174.5 35zM256 832q0 80 56 136t136 56t136 -56t56 -136t-56 -136t-136 -56t-136 56t-56 136zM1600 640q-80 0 -136 56t-56 136t56 136t136 56t136 -56t56 -136t-56 -136t-136 -56z" />
    <glyph glyph-name="uniE953" unicode="music&#x37;" 
d="M0 1920v-2048h1920v2048h-1920zM384 0h-256v1792h128v-1280h128v-512zM896 0h-384v512h128v1280h128v-1280h128v-512zM1408 0h-384v512h128v1280h128v-1280h128v-512zM1792 0h-256v512h128v1280h128v-1792z" />
    <glyph glyph-name="uniE954" unicode="guitar" 
d="M1760 1408l288 256q-9 49 -32 91.5t-56.5 76t-76 56.5t-91.5 32l-256 -288v-68l-363 -363q-70 57 -130 84t-110 31t-90.5 -11t-72.5 -41q-30 -25 -52.5 -60.5t-40 -70.5t-33 -65t-32.5 -45q-34 -30 -91 -37t-125.5 -19t-144 -43t-147.5 -110q-84 -90 -98.5 -182.5
t15.5 -181.5t93.5 -172.5t135.5 -155.5t155.5 -135.5t172.5 -93.5t181.5 -15.5t182.5 98.5q79 72 110 147.5t43 144t19 125.5t37 91q15 17 45 32.5t65 33t70.5 40t60.5 52.5q26 32 41 72.5t11 90.5t-31 110t-84 130l363 363h68v0zM586 202l-256 256l108 108l256 -256
l-108 -108v0zM960 640q-80 0 -136 56t-56 136t56 136t136 56t136 -56t56 -136t-56 -136t-136 -56z" />
    <glyph glyph-name="uniE955" unicode="music&#x39;" 
d="M1984 1536q-27 0 -45.5 -18.5t-18.5 -45.5q0 -61 -16 -111t-41 -90.5t-56 -71t-61 -51.5q-40 -30 -87 -53t-98.5 -38.5t-106 -24t-110.5 -8.5h-64v192q0 27 -18.5 45.5t-45.5 18.5t-45.5 -18.5t-18.5 -45.5v-192h-128v192q0 27 -18.5 45.5t-45.5 18.5t-45.5 -18.5
t-18.5 -45.5v-192h-128v192q0 27 -18.5 45.5t-45.5 18.5t-45.5 -18.5t-18.5 -45.5v-192h-512v64q0 27 -18.5 45.5t-45.5 18.5t-45.5 -18.5t-18.5 -45.5v-384q0 -27 18.5 -45.5t45.5 -18.5t45.5 18.5t18.5 45.5v64h278q-11 -30 -16.5 -62t-5.5 -66q0 -79 30 -149t82.5 -122.5
t122.5 -82.5t149 -30h384q79 0 149 30t122.5 82.5t82.5 122.5t30 149q0 28 -4 54.5t-11 52.5q63 -16 120 -42t105 -61q30 -21 61 -51.5t56 -71t41 -90.5t16 -111q0 -27 18.5 -45.5t45.5 -18.5t45.5 18.5t18.5 45.5v1152q0 27 -18.5 45.5t-45.5 18.5zM1152 512h-384
q-53 0 -90.5 37.5t-37.5 90.5t37.5 90.5t90.5 37.5h384q53 0 90.5 -37.5t37.5 -90.5t-37.5 -90.5t-90.5 -37.5z" />
    <glyph glyph-name="uniE956" unicode="music&#x31;&#x30;" 
d="M1600 1920h-1152q-79 0 -135.5 -56.5t-56.5 -135.5v-1664q0 -79 56.5 -135.5t135.5 -56.5h1152q79 0 135.5 56.5t56.5 135.5v1664q0 79 -56.5 135.5t-135.5 56.5zM1024 1792q53 0 99.5 -20t81.5 -55t55 -81.5t20 -99.5t-20 -99.5t-55 -81.5t-81.5 -55t-99.5 -20t-99.5 20
t-81.5 55t-55 81.5t-20 99.5t20 99.5t55 81.5t81.5 55t99.5 20zM1024 0q-106 0 -199.5 40t-163 109.5t-109.5 163t-40 199.5t40 199.5t109.5 163t163 109.5t199.5 40t199.5 -40t163 -109.5t109.5 -163t40 -199.5t-40 -199.5t-109.5 -163t-163 -109.5t-199.5 -40zM1024 896
q-80 0 -149.5 -30t-122 -82.5t-82.5 -122t-30 -149.5t30 -149.5t82.5 -122t122 -82.5t149.5 -30t149.5 30t122 82.5t82.5 122t30 149.5t-30 149.5t-82.5 122t-122 82.5t-149.5 30zM1024 384q-53 0 -90.5 37.5t-37.5 90.5t37.5 90.5t90.5 37.5t90.5 -37.5t37.5 -90.5
t-37.5 -90.5t-90.5 -37.5zM1152 1536q0 -53 -37.5 -90.5t-90.5 -37.5t-90.5 37.5t-37.5 90.5t37.5 90.5t90.5 37.5t90.5 -37.5t37.5 -90.5z" />
    <glyph glyph-name="uniE957" unicode="play" 
d="M1962 1600q-107 15 -220.5 27t-231 20.5t-239.5 12.5t-247 4t-247 -4t-239.5 -12.5t-231 -20.5t-220.5 -27q-21 -81 -37 -166t-27 -173t-16.5 -179.5t-5.5 -185.5t5.5 -185.5t16.5 -179.5t27 -173t37 -166q107 -15 220.5 -27t231 -20.5t239.5 -12.5t247 -4t247 4
t239.5 12.5t231 20.5t220.5 27q21 81 37 166t27 173t16.5 179.5t5.5 185.5t-5.5 185.5t-16.5 179.5t-27 173t-37 166v0zM768 512v768l640 -384l-640 -384v0z" />
    <glyph glyph-name="uniE958" unicode="play&#x32;" 
d="M768 1196v-600l520 300zM0 1408v-1280h2048v1280h-2048zM1920 256h-1792v128h1792v-128zM1920 512h-1792v768h1792v-768z" />
    <glyph glyph-name="uniE959" unicode="clapboard&#x2d;play" 
d="M157 1395l1730 464l100 -371l-1731 -464zM256 1024v-1152h1792v1152h-1792zM896 128v640l512 -320z" />
    <glyph glyph-name="uniE95A" unicode="clapboard" 
d="M128 1664q-53 0 -90.5 -37.5t-37.5 -90.5v-512h2048v640h-1920zM128 1152v64l320 320h256l-384 -384h-192zM576 1152l384 384h256l-384 -384h-256zM1088 1152l384 384h256l-384 -384h-256zM1920 1216l-64 -64h-256l320 320v-256zM0 896h2048v-1024h-2048v1024z" />
    <glyph glyph-name="uniE95B" unicode="media" 
d="M2048 192q0 -40 -20 -75t-55 -61t-81.5 -41t-99.5 -15t-99.5 15t-81.5 41t-55 61t-20 75t20 75t55 61t81.5 41t99.5 15q35 0 67.5 -6.5t60.5 -19.5v373l-512 -182v-485q0 -40 -20 -75t-55 -61t-81.5 -41t-99.5 -15t-99.5 15t-81.5 41t-55 61t-20 75t20 75t55 61t81.5 41
t99.5 15q35 0 67.5 -6.5t60.5 -19.5v538l768 256v-832v0zM576 1536q-79 0 -135.5 -56.5t-56.5 -135.5t56.5 -135.5t135.5 -56.5t135.5 56.5t56.5 135.5t-56.5 135.5t-135.5 56.5zM1088 1792h-280l-47 93q-8 16 -23.5 25.5t-33.5 9.5h-256q-18 0 -33.5 -9.5t-23.5 -25.5
l-47 -93h-280q-27 0 -45.5 -18.5t-18.5 -45.5v-768q0 -27 18.5 -45.5t45.5 -18.5h1024q27 0 45.5 18.5t18.5 45.5v768q0 27 -18.5 45.5t-45.5 18.5zM576 1024q-66 0 -124.5 25t-102 68.5t-68.5 102t-25 124.5t25 124.5t68.5 102t102 68.5t124.5 25t124.5 -25t102 -68.5
t68.5 -102t25 -124.5t-25 -124.5t-68.5 -102t-102 -68.5t-124.5 -25z" />
    <glyph glyph-name="uniE95C" unicode="board&#x2d;play" 
d="M1824 1920h-1728q-40 0 -68 -28t-28 -68v-1472q0 -40 28 -68t68 -28h570l-261 -261q-21 -21 -21 -51t21 -51q11 -10 24 -15.5t27 -5.5t27 5.5t24 15.5l363 363h26v-320q0 -27 18.5 -45.5t45.5 -18.5t45.5 18.5t18.5 45.5v320h26l363 -363q11 -10 24 -15.5t27 -5.5t27 5.5
t24 15.5q21 21 21 51t-21 51l-261 261h570q40 0 68 28t28 68v1472q0 40 -28 68t-68 28zM768 1536l512 -320l-512 -320v640zM1600 512h-1280q-27 0 -45.5 18.5t-18.5 45.5t18.5 45.5t45.5 18.5h1280q27 0 45.5 -18.5t18.5 -45.5t-18.5 -45.5t-45.5 -18.5z" />
    <glyph glyph-name="uniE95D" unicode="movie" 
d="M1024 1920q-212 0 -398.5 -80.5t-325.5 -219.5t-219.5 -325.5t-80.5 -398.5t80.5 -398.5t219.5 -325.5t325.5 -219.5t398.5 -80.5t398.5 80.5t325.5 219.5t219.5 325.5t80.5 398.5t-80.5 398.5t-219.5 325.5t-325.5 219.5t-398.5 80.5zM1024 1693q45 0 85 -17.5t69.5 -47
t47 -69.5t17.5 -85t-17.5 -85t-47 -69.5t-69.5 -47t-85 -17.5t-85 17.5t-69.5 47t-47 69.5t-17.5 85t17.5 85t47 69.5t69.5 47t85 17.5zM231 1091q0 45 17 84.5t47 69.5t69.5 47t85.5 17q45 0 85 -17t69.5 -47t46.5 -69.5t17 -84.5q0 -46 -17 -85.5t-46.5 -69.5t-69.5 -47
t-85 -17q-46 0 -85.5 17t-69.5 47t-47 69.5t-17 85.5zM677 229q-45 0 -85 17.5t-69.5 47t-47 69.5t-17.5 85t17.5 85t47 69.5t69.5 47t85 17.5t85 -17.5t69.5 -47t46.5 -69.5t17 -85t-17 -85t-46.5 -69.5t-69.5 -47t-85 -17.5zM1024 768q-53 0 -90.5 37.5t-37.5 90.5
t37.5 90.5t90.5 37.5t90.5 -37.5t37.5 -90.5t-37.5 -90.5t-90.5 -37.5zM1371 228q-45 0 -85 17t-69.5 47t-46.5 69.5t-17 85.5q0 45 17 85t46.5 69.5t69.5 46.5t85 17t85 -17t69.5 -46.5t47 -69.5t17.5 -85q0 -46 -17.5 -85.5t-47 -69.5t-69.5 -47t-85 -17zM1598 871
q-45 0 -85 17t-69.5 46.5t-46.5 69.5t-17 85q0 46 17 85.5t46.5 69.5t69.5 47t85 17q46 0 85.5 -17t69.5 -47t47 -69.5t17 -85.5q0 -45 -17 -85t-47 -69.5t-69.5 -46.5t-85.5 -17z" />
    <glyph glyph-name="uniE95E" unicode="film" 
d="M0 1920v-2048h2048v2048h-2048zM1280 1792h256v-256h-256v256zM896 1792h256v-256h-256v256zM512 1792h256v-256h-256v256zM128 1792h256v-256h-256v256zM128 1408h768v-1024h-768v1024zM384 0h-256v256h256v-256zM768 0h-256v256h256v-256zM1152 0h-256v256h256v-256z
M1536 0h-256v256h256v-256zM1920 0h-256v256h256v-256zM1920 384h-896v1024h896v-1024zM1920 1536h-256v256h256v-256z" />
    <glyph glyph-name="uniE95F" unicode="film&#x32;" 
d="M0 1792v-1792h2048v1792h-2048zM384 128h-256v256h256v-256zM384 512h-256v256h256v-256zM384 1024h-256v256h256v-256zM384 1408h-256v256h256v-256zM1536 128h-1024v640h1024v-640zM1536 1024h-1024v640h1024v-640zM1920 128h-256v256h256v-256zM1920 512h-256v256h256
v-256zM1920 1024h-256v256h256v-256zM1920 1408h-256v256h256v-256z" />
    <glyph glyph-name="uniE960" unicode="film&#x33;" 
d="M0 1664v-1536h2048v1536h-2048zM384 256h-256v256h256v-256zM384 768h-256v256h256v-256zM384 1280h-256v256h256v-256zM1536 256h-1024v1280h1024v-1280zM1920 256h-256v256h256v-256zM1920 768h-256v256h256v-256zM1920 1280h-256v256h256v-256z" />
    <glyph glyph-name="uniE961" unicode="film&#x34;" 
d="M0 1664v-1536h2048v1536h-2048zM384 256h-256v256h256v-256zM384 768h-256v256h256v-256zM384 1280h-256v256h256v-256zM1536 256h-1024v1280h1024v-1280zM1920 256h-256v256h256v-256zM1920 768h-256v256h256v-256zM1920 1280h-256v256h256v-256zM768 1280v-768l512 384
z" />
    <glyph glyph-name="uniE962" unicode="video&#x2d;camera" 
d="M768 1344q0 66 25 124.5t68.5 102t102 68.5t124.5 25t124.5 -25t102 -68.5t68.5 -102t25 -124.5t-25 -124.5t-68.5 -102t-102 -68.5t-124.5 -25t-124.5 25t-102 68.5t-68.5 102t-25 124.5zM0 1344q0 66 25 124.5t68.5 102t102 68.5t124.5 25t124.5 -25t102 -68.5
t68.5 -102t25 -124.5t-25 -124.5t-68.5 -102t-102 -68.5t-124.5 -25t-124.5 25t-102 68.5t-68.5 102t-25 124.5zM1536 704v192q0 53 -37.5 90.5t-90.5 37.5h-1280q-53 0 -90.5 -37.5t-37.5 -90.5v-640q0 -53 37.5 -90.5t90.5 -37.5h1280q53 0 90.5 37.5t37.5 90.5v192
l512 -320v896zM1280 384h-1024v384h1024v-384z" />
    <glyph glyph-name="uniE963" unicode="video&#x2d;camera&#x32;" 
d="M1958 1407q-16 0 -32 -5t-31 -16l-359 -253v211q0 79 -56.5 135.5t-135.5 56.5h-1152q-79 0 -135.5 -56.5t-56.5 -135.5v-896q0 -79 56.5 -135.5t135.5 -56.5h1152q79 0 135.5 56.5t56.5 135.5v211l359 -253q15 -11 31 -16t32 -5v0v0q21 0 39.5 9t30.5 26q10 13 15 30
t5 35v822q0 49 -28.5 74.5t-61.5 25.5v0z" />
    <glyph glyph-name="uniE964" unicode="video&#x2d;camera&#x2d;slash" 
d="M192 1536q-79 0 -135.5 -56.5t-56.5 -135.5v-896q0 -35 11.5 -66t32.5 -56l807 1210h-659v0zM1958 1407q-16 0 -32 -5t-31 -16l-359 -253v211q0 79 -56.5 135.5t-135.5 56.5h-34l178 267l-160 106l-1280 -1920l160 -106l249 373h887q79 0 135.5 56.5t56.5 135.5v211
l359 -253q15 -11 31 -16.5t32 -5.5v0v0q21 0 39.5 9.5t30.5 26.5q10 13 15 30t5 35v822q0 49 -28.5 74.5t-61.5 25.5v0z" />
    <glyph glyph-name="uniE965" unicode="video&#x2d;camera&#x33;" 
d="M1958 1407q-16 0 -32 -5t-31 -16l-359 -253v211q0 79 -56.5 135.5t-135.5 56.5h-1152q-79 0 -135.5 -56.5t-56.5 -135.5v-896q0 -79 56.5 -135.5t135.5 -56.5h1152q79 0 135.5 56.5t56.5 135.5v211l359 -253q15 -11 31 -16.5t32 -5.5v0v0q21 0 39.5 9.5t30.5 26.5
q10 13 15 30t5 35v822q0 49 -28.5 74.5t-61.5 25.5v0zM512 512v768l640 -384z" />
    <glyph glyph-name="uniE966" unicode="video&#x2d;camera&#x34;" 
d="M1958 1407q-16 0 -32 -5t-31 -16l-359 -253v211q0 79 -56.5 135.5t-135.5 56.5h-1152q-79 0 -135.5 -56.5t-56.5 -135.5v-896q0 -79 56.5 -135.5t135.5 -56.5h1152q79 0 135.5 56.5t56.5 135.5v211l359 -253q15 -11 31 -16t32 -5v0v0q21 0 39.5 9t30.5 26q10 13 15 30
t5 35v822q0 49 -28.5 74.5t-61.5 25.5v0zM1920 545l-316 223h-196v-320q0 -26 -19 -45t-45 -19h-1152q-26 0 -45 19t-19 45v896q0 26 19 45t45 19h1152q26 0 45 -19t19 -45v-320h196l316 223v-702z" />
    <glyph glyph-name="uniE967" unicode="video&#x2d;camera&#x2d;slash&#x32;" 
d="M1958 1407q-16 0 -32 -5t-31 -16l-359 -253v211q0 79 -56.5 135.5t-135.5 56.5h-27l207 282q15 22 11 48t-25 42q-22 15 -48 11t-42 -25l-262 -358h-966q-79 0 -135.5 -56.5t-56.5 -135.5v-896q0 -79 56.5 -135.5t135.5 -56.5h27l-207 -282q-15 -22 -11 -48t25 -42
q9 -6 18.5 -9t19.5 -3q15 0 28.5 6.5t23.5 19.5l262 358h966q79 0 135.5 56.5t56.5 135.5v211l359 -253q15 -11 31 -16.5t32 -5.5v0v0q21 0 39.5 9.5t30.5 26.5q10 13 15 30t5 35v822q0 49 -28.5 74.5t-61.5 25.5v0zM192 384q-26 0 -45 19t-19 45v896q0 26 19 45t45 19h872
l-751 -1024h-121v0zM1920 545l-316 223h-196v-320q0 -26 -19 -45t-45 -19h-872l751 1024h121q26 0 45 -19t19 -45v-320h196l316 223v-702z" />
    <glyph glyph-name="uniE968" unicode="video&#x2d;camera&#x35;" 
d="M1958 1407q-16 0 -32 -5t-31 -16l-359 -253v211q0 79 -56.5 135.5t-135.5 56.5h-1152q-79 0 -135.5 -56.5t-56.5 -135.5v-896q0 -79 56.5 -135.5t135.5 -56.5h1152q79 0 135.5 56.5t56.5 135.5v211l359 -253q15 -11 31 -16.5t32 -5.5v0v0q21 0 39.5 9.5t30.5 26.5
q10 13 15 30t5 35v822q0 49 -28.5 74.5t-61.5 25.5v0zM1920 545l-316 223h-196v-320q0 -26 -19 -45t-45 -19h-1152q-26 0 -45 19t-19 45v896q0 26 19 45t45 19h1152q26 0 45 -19t19 -45v-320h196l316 223v-702zM512 1280l640 -384l-640 -384v768z" />
    <glyph glyph-name="uniE969" unicode="recording" 
d="M1408 1408q0 -80 -30 -149.5t-82.5 -122t-122 -82.5t-149.5 -30t-149.5 30t-122 82.5t-82.5 122t-30 149.5t30 149.5t82.5 122t122 82.5t149.5 30t149.5 -30t122 -82.5t82.5 -122t30 -149.5zM1216 640q27 0 45.5 18.5t18.5 45.5t-18.5 45.5t-45.5 18.5h-384
q-27 0 -45.5 -18.5t-18.5 -45.5v-768q0 -27 18.5 -45.5t45.5 -18.5h384q27 0 45.5 18.5t18.5 45.5t-18.5 45.5t-45.5 18.5h-320v256h320q27 0 45.5 18.5t18.5 45.5t-18.5 45.5t-45.5 18.5h-320v256h320zM512 512q0 53 -20 99.5t-55 81.5t-81.5 55t-99.5 20h-192
q-27 0 -45.5 -18.5t-18.5 -45.5v-768q0 -27 18.5 -45.5t45.5 -18.5t45.5 18.5t18.5 45.5v320h88l175 -349q8 -16 23.5 -25.5t33.5 -9.5q7 0 14.5 1.5t14.5 5.5q23 12 31.5 37t-3.5 49l-155 309q71 28 116.5 92.5t45.5 145.5zM256 384h-128v256h128q53 0 90.5 -37.5
t37.5 -90.5t-37.5 -90.5t-90.5 -37.5zM1984 0h-192q-53 0 -90.5 37.5t-37.5 90.5v384q0 53 37.5 90.5t90.5 37.5h192q27 0 45.5 18.5t18.5 45.5t-18.5 45.5t-45.5 18.5h-192q-53 0 -99.5 -20t-81.5 -55t-55 -81.5t-20 -99.5v-384q0 -53 20 -99.5t55 -81.5t81.5 -55t99.5 -20
h192q27 0 45.5 18.5t18.5 45.5t-18.5 45.5t-45.5 18.5z" />
    <glyph glyph-name="uniE96A" unicode="dice" 
d="M1728 1536h-1024q-66 0 -124 -25t-101.5 -68.5t-69 -102t-25.5 -124.5v-1024q0 -66 25 -124t68.5 -101.5t102 -69t124.5 -25.5h1024q66 0 124 25t101.5 68.5t69 102t25.5 124.5v1024q0 66 -25 124t-68.5 101.5t-102 69t-124.5 25.5zM832 128q-80 0 -136 56t-56 136
t56 136t136 56t136 -56t56 -136t-56 -136t-136 -56zM832 896q-80 0 -136 56t-56 136t56 136t136 56t136 -56t56 -136t-56 -136t-136 -56zM1216 512q-80 0 -136 56t-56 136t56 136t136 56t136 -56t56 -136t-56 -136t-136 -56zM1600 128q-80 0 -136 56t-56 136t56 136t136 56
t136 -56t56 -136t-56 -136t-136 -56zM1600 896q-80 0 -136 56t-56 136t56 136t136 56t136 -56t56 -136t-56 -136t-136 -56zM1658 1664q-12 55 -40.5 101.5t-70 81t-93.5 54t-110 19.5h-1024q-66 0 -124 -25t-101.5 -68.5t-69 -102t-25.5 -124.5v-1024q0 -58 19.5 -110
t54 -93.5t81 -70t101.5 -40.5v1274q0 53 37.5 90.5t90.5 37.5h1274z" />
    <glyph glyph-name="uniE96B" unicode="gamepad" 
d="M640 1280h-128v-128h-128v-128h128v-128h128v128h128v128h-128v128zM1280 1184q0 40 28 68t68 28t68 -28t28 -68t-28 -68t-68 -28t-68 28t-28 68zM1472 992q0 40 28 68t68 28t68 -28t28 -68t-28 -68t-68 -28t-68 28t-28 68zM1479 1576q-87 0 -143 -21.5t-102 -47t-93 -47
t-117 -21.5t-117 21.5t-93 47t-102 47t-143 21.5q-141 0 -247.5 -76.5t-178 -193.5t-107.5 -255.5t-36 -261.5q0 -116 6.5 -215t22.5 -173.5t44.5 -121t71.5 -58.5q44 -12 93 3t101 48.5t106.5 80t108.5 97.5q108 102 153 114.5t132 12.5l185 -4l185 4q87 0 132 -12.5
t153 -114.5q54 -51 108.5 -97.5t106.5 -80t101 -48.5t93 -3q43 12 71.5 58.5t44.5 121t22.5 173.5t6.5 215q0 123 -36 261.5t-107.5 255.5t-178 193.5t-247.5 76.5v0zM576 768q-66 0 -124.5 25t-102 68.5t-68.5 102t-25 124.5t25 124.5t68.5 102t102 68.5t124.5 25
t124.5 -25t102 -68.5t68.5 -102t25 -124.5t-25 -124.5t-68.5 -102t-102 -68.5t-124.5 -25zM1472 768q-66 0 -124.5 25t-102 68.5t-68.5 102t-25 124.5t25 124.5t68.5 102t102 68.5t124.5 25t124.5 -25t102 -68.5t68.5 -102t25 -124.5t-25 -124.5t-68.5 -102t-102 -68.5
t-124.5 -25z" />
    <glyph glyph-name="uniE96C" unicode="gamepad&#x32;" 
d="M1904 1288q-39 64 -85.5 114t-99.5 86q-60 41 -126 61.5t-138 20.5q-97 0 -158 -25t-109 -52q-40 -23 -76 -38t-88 -15t-88 15t-76 38q-48 27 -109 52t-158 25q-72 0 -138 -20.5t-126 -61.5q-53 -36 -99.5 -86t-85.5 -114q-34 -55 -60.5 -118t-45 -129.5t-28.5 -135
t-10 -134.5q0 -64 1.5 -119t5.5 -101.5t9 -86.5t13 -73q20 -91 56.5 -143.5t91.5 -66.5q12 -4 24.5 -5.5t25.5 -1.5q47 0 95.5 20t97.5 53t98 76t97 88q84 79 116.5 92.5t82.5 13.5h7h8h9.5h9.5l176 -4l176 4h9.5h9.5h8h7q50 0 82.5 -13.5t116.5 -92.5q48 -45 97 -88t98 -76
t97.5 -53t95.5 -20v0v0q13 0 25.5 1.5t24.5 4.5q55 15 91.5 67.5t56.5 143.5q8 33 13 73t9 86.5t5.5 101.5t1.5 119q0 66 -10 134.5t-28.5 135t-45 129.5t-60.5 118zM1894 418q-11 -48 -26 -79t-31 -35q-4 -1 -8 -1.5t-8 -0.5q-32 0 -73 22.5t-83 54t-80 66t-64 59.5
q-51 48 -85 74t-64 41q-40 19 -74 22.5t-64 3.5h-8h-8h-8.5h-9.5h-1l-175 -4l-176 4h-9.5h-8.5h-8h-8q-30 0 -64 -3.5t-74 -22.5q-30 -15 -64 -41t-85 -74q-26 -25 -64 -59.5t-80 -66t-83 -54t-73 -22.5q-4 0 -8.5 0.5t-7.5 1.5q-16 4 -31 35t-26 79q-7 30 -11.5 66.5t-8 80
t-5 95t-1.5 111.5q0 56 8.5 116t25.5 119q16 59 39.5 114t51.5 101q32 52 69 92.5t78 68.5q44 30 92.5 45t100.5 15q72 0 116.5 -18t88.5 -43q43 -24 96 -46.5t130 -22.5t130 22.5t96 46.5q44 25 88.5 43t116.5 18q52 0 100.5 -15t92.5 -45q41 -28 78 -68.5t69 -92.5
q28 -46 51.5 -101t39.5 -114q17 -59 25.5 -119t8.5 -116q0 -60 -1.5 -111.5t-5 -95t-8 -80t-11.5 -66.5v0v0zM1280 1152q0 53 37.5 90.5t90.5 37.5t90.5 -37.5t37.5 -90.5t-37.5 -90.5t-90.5 -37.5t-90.5 37.5t-37.5 90.5zM1536 896q0 53 37.5 90.5t90.5 37.5t90.5 -37.5
t37.5 -90.5t-37.5 -90.5t-90.5 -37.5t-90.5 37.5t-37.5 90.5zM512 1280q-53 0 -99.5 -20t-81.5 -55t-55 -81.5t-20 -99.5t20 -99.5t55 -81.5t81.5 -55t99.5 -20t99.5 20t81.5 55t55 81.5t20 99.5t-20 99.5t-55 81.5t-81.5 55t-99.5 20v0z" />
    <glyph glyph-name="uniE96D" unicode="gamepad&#x33;" horiz-adv-x="2560" 
d="M1984 1533v3h-1344q-133 0 -249.5 -50.5t-203 -137t-137 -203t-50.5 -249.5t50.5 -249.5t137 -203t203 -137t249.5 -50.5q79 0 152 18t138.5 51.5t121.5 81t100 105.5h256q44 -58 100 -105.5t121.5 -81t138.5 -51.5t152 -18q133 0 249.5 50.5t203 137t137 203t50.5 249.5
q0 124 -44.5 235t-122 196t-183 139.5t-226.5 66.5zM1024 768h-256v-256h-256v256h-256v256h256v256h256v-256h256v-256zM1792 768q-53 0 -90.5 37.5t-37.5 90.5t37.5 90.5t90.5 37.5t90.5 -37.5t37.5 -90.5t-37.5 -90.5t-90.5 -37.5zM2176 768q-53 0 -90.5 37.5t-37.5 90.5
t37.5 90.5t90.5 37.5t90.5 -37.5t37.5 -90.5t-37.5 -90.5t-90.5 -37.5z" />
    <glyph glyph-name="uniE96E" unicode="game&#x35;" 
d="M1929 1562q-70 82 -156.5 148.5t-185.5 113t-208.5 71.5t-226.5 25q-212 0 -398.5 -80.5t-325.5 -219.5t-219.5 -325.5t-80.5 -398.5t80.5 -398.5t219.5 -325.5t325.5 -219.5t398.5 -80.5q117 0 226.5 25t208.5 71.5t185.5 113t156.5 148.5l-649 666zM1408 1679
q59 0 101 -42t42 -101t-42 -101t-101 -42t-101 42t-42 101t42 101t101 42v0z" />
    <glyph glyph-name="uniE96F" unicode="cards" 
d="M1635 1224q-145 108 -246 205t-170.5 184t-115 163.5t-79.5 143.5v0v0v0v0q-34 -67 -79.5 -143.5t-115 -163.5t-170.5 -184t-246 -205q-248 -184 -276.5 -385t77.5 -340t304 -177t402 103q-13 -87 -41 -162.5t-66 -136.5t-82.5 -106t-90.5 -73v-75h768v75
q-46 28 -90.5 73t-82.5 106t-66 136.5t-41 162.5q204 -141 402 -103t304 177t77.5 340t-276.5 385z" />
    <glyph glyph-name="uniE970" unicode="cards&#x32;" 
d="M1574 1134q-45 0 -86.5 -8.5t-79.5 -25.5t-72 -41t-62 -54q-24 -25 -63.5 -54t-84.5 -56q11 41 31.5 85t46 85t52 76t50.5 57q29 29 53 63t40.5 72.5t25.5 81t9 86.5q0 87 -32.5 162.5t-88 132.5t-130 90t-159.5 34q-85 -1 -159.5 -34t-130 -90t-88 -132.5t-32.5 -162.5
q0 -44 9 -86.5t25.5 -81t40.5 -72.5t53 -63q24 -22 50.5 -57t52 -76t46 -85t31.5 -85q-45 27 -84.5 56t-63.5 54q-28 30 -62 54t-72 41t-79.5 25.5t-86.5 8.5q-85 0 -160.5 -32.5t-132 -89.5t-89 -133t-32.5 -163t32.5 -163t89 -133t132 -90t160.5 -33q45 0 86.5 9
t79.5 26.5t72 41.5t62 54q25 27 67 58.5t90 58.5q-3 -110 -28.5 -205.5t-66 -172t-91.5 -132t-105 -88.5v-75h768v75q-54 33 -105 88.5t-91.5 132t-66 172t-28.5 205.5q48 -27 90 -58.5t67 -58.5q28 -30 62 -54t72 -41.5t79.5 -26.5t86.5 -9q85 0 160.5 33t132 90t89 133
t32.5 163t-32.5 163t-89 133t-132 89.5t-160.5 32.5v0z" />
    <glyph glyph-name="uniE971" unicode="cards&#x33;" 
d="M1024 1920l-640 -1024l640 -1024l640 1024z" />
    <glyph glyph-name="uniE972" unicode="chess&#x2d;king" 
d="M1948 1389q-51 51 -118.5 75.5t-144.5 24.5q-52 0 -106.5 -11t-109.5 -32t-109 -52.5t-106 -72.5q-24 74 -67.5 128t-98.5 75v140h192v128h-192v128h-128v-128h-192v-128h192v-140q-55 -21 -98.5 -75t-67.5 -128q-52 41 -106 72.5t-109 52.5t-109.5 32t-106.5 11
q-77 0 -144.5 -24.5t-118.5 -75.5q-66 -66 -88 -159t-3.5 -197.5t76 -212t151.5 -200.5q35 -35 72 -65t76 -55v-188q66 -13 140 -23.5t155 -17.5t167.5 -11t177.5 -4t177.5 4t167.5 11t155 17.5t140 23.5v188q39 25 76 55t72 65q94 93 151.5 200.5t76 212t-3.5 197.5
t-88 159zM326 1163q2 1 11 3.5t26 2.5v0q24 0 56 -7.5t68.5 -24.5t76.5 -44t79 -66q52 -52 87.5 -112t48.5 -117q9 -41 5.5 -62.5t-5.5 -25.5q-2 -1 -11 -3.5t-26 -2.5q-24 0 -56 7.5t-68.5 24t-76.5 44t-79 66.5q-52 52 -87.5 112t-48.5 117q-9 41 -5.5 62.5t5.5 25.5z
M1722 1075q-13 -57 -48.5 -117t-87.5 -112q-39 -39 -79 -66.5t-76.5 -44t-68.5 -24t-56 -7.5q-17 0 -26 2.5t-11 3.5q-2 4 -5.5 25.5t5.5 62.5q13 57 48.5 117t87.5 112q39 39 79 66t76.5 44t68.5 24.5t56 7.5q17 0 26 -2.5t11 -3.5q2 -4 5.5 -25.5t-5.5 -62.5v0zM384 117
v-189q66 -13 140 -23.5t155 -17.5t167.5 -11t177.5 -4t177.5 4t167.5 11t155 17.5t140 23.5v189q-70 -13 -146.5 -23t-157 -16.5t-165 -10t-171.5 -3.5t-171.5 3.5t-165 10t-157 16.5t-146.5 23z" />
    <glyph glyph-name="uniE973" unicode="chess&#x2d;queen" 
d="M1024 0q-86 0 -170 3.5t-163.5 11t-153.5 17.5t-139 24q-4 1 -7.5 1.5t-6.5 1.5v-131q66 -13 140 -23.5t155 -17.5t167.5 -11t177.5 -4t177.5 4t167.5 11t155 17.5t140 23.5v131q-3 -1 -6.5 -1.5t-7.5 -1.5q-65 -14 -139 -24t-153.5 -17.5t-163.5 -11t-170 -3.5z
M1536 196v60l-64 128h-896l-64 -128v-60q56 -8 117 -14.5t125.5 -11t132 -6.5t137.5 -2t137.5 2t132 6.5t125.5 11t117 14.5zM2003 1357q-45 45 -108.5 45t-108.5 -45q-38 -38 -44 -91t21 -97l-391 -234l77 363q51 -11 98.5 12t71.5 71q28 57 7 117.5t-78 87.5
q-57 28 -117 7.5t-88 -77.5q-24 -49 -12 -100.5t51 -84.5l-236 -282l-85 338q50 12 83.5 53.5t33.5 95.5q0 64 -45 109t-109 45t-109 -45t-45 -109q0 -54 33.5 -95.5t83.5 -53.5l-85 -338l-236 282q39 33 51 84.5t-12 100.5q-28 57 -88 77.5t-117 -7.5q-57 -27 -78 -87.5
t7 -117.5q24 -48 71.5 -71t98.5 -12l77 -363l-391 234q27 44 21 97t-44 91q-45 45 -108.5 45t-108.5 -45t-45 -109t45 -109q38 -38 90.5 -43.5t97.5 20.5l362 -604h858l362 604q45 -26 97.5 -20.5t90.5 43.5q45 45 45 109t-45 109v0z" />
    <glyph glyph-name="uniE974" unicode="chess&#x2d;rock" 
d="M384 1344h1152v-1024h-1152v1024zM1536 1408l256 256v256h-256v-128h-384v128h-384v-128h-384v128h-256v-256l256 -256h1152zM1536 1600l-64 -64h-1024l-64 64h1152zM256 256h1408v-128h-1408v128zM1792 64h-1664l-52.5 -48t-75.5 -144h1920q-22 96 -75 144z" />
    <glyph glyph-name="uniE975" unicode="chess&#x2d;bishop" 
d="M1587 384h-1254q22 -55 79.5 -101.5t140.5 -81t187 -54t220 -19.5t220 19.5t187 54t140.5 81t79.5 101.5zM0 -128h180q0 4 5 15.5t17 24.5q13 14 23.5 19t14.5 5h540q40 1 73 21.5t57 50.5t37 62.5t13 57.5h-95.5h-219.5h-242h-163t-88 -22t-77 -58t-54.5 -82t-20.5 -94z
M1680 128h-163h-242h-219.5h-95.5q0 -25 13 -57.5t37 -62.5t57 -50.5t73 -21.5h540q4 0 14.5 -5t23.5 -19q12 -13 17 -24.5t5 -15.5h180q0 48 -20.5 94t-54.5 82t-77 58t-88 22zM960 512h627q-19 48 -66 90t-114 75q31 42 48 96.5t17 122.5q0 121 -39 220t-98.5 175.5
t-129 130t-130.5 82.5q49 29 79 80t30 112q0 46 -17.5 87t-48 71.5t-71.5 48t-87 17.5t-87 -17.5t-71.5 -48t-48 -71.5t-17.5 -87q0 -61 30 -112t79 -80q-61 -29 -130.5 -82.5t-129 -130t-98.5 -175.5t-39 -220q0 -68 17 -122.5t48 -96.5q-67 -33 -114 -75t-66 -90h627v0v0
v0zM640 1024v128h256v256h128v-256h256v-128h-256v-256h-128v256h-256z" />
    <glyph glyph-name="uniE976" unicode="chess&#x2d;knight" 
d="M1984 0h-1472l-64 -128h1600zM1135 896q10 -156 -43.5 -270t-131.5 -207t-160.5 -176.5t-129.5 -178.5h1250v124v157.5v192.5v230q0 167 -30.5 310t-82.5 259t-121 204.5t-146 146.5q-7 31 -17.5 62.5t-22.5 58.5l-24 57q-22 48 -61 53.5t-73 -35.5l-77 -92h-1.5h-0.5
q-25 0 -47.5 -1t-43.5 -2l-169 113q-44 29 -75.5 12.5t-31.5 -69.5v-131q-39 -22 -73.5 -48t-71.5 -54q-48 -37 -125.5 -121t-166 -187t-180 -212t-168.5 -196q-71 -80 -90.5 -149.5t-1.5 -117.5t67.5 -70t116.5 -7q-3 -63 18.5 -87.5t56 -23t76 22t77.5 48.5
q84 64 207 90.5t236 55t190.5 78.5t70.5 160zM1550 1574q52 -53 96 -119t79 -144q26 -60 46.5 -124t34 -132t20 -140t6.5 -147v-576l-192 192v384q0 65 -5.5 127t-17 120t-28.5 112.5t-40 105.5q-27 61 -61.5 113t-73.5 92l136 136v0zM320 741q-37 0 -64 27t-27 64t27 64
t64 27t64 -27t27 -64t-27 -64t-64 -27zM964 1344q-56 -56 -116 -76t-88 8t-8 88t76 116t116 76t88 -8t8 -88t-76 -116z" />
    <glyph glyph-name="uniE977" unicode="chess&#x2d;pawn" 
d="M1472 648q31 55 47.5 118t16.5 130q0 77 -22 148.5t-61.5 131.5t-94.5 107.5t-121 78.5q49 43 78 105t29 133q0 66 -25 124.5t-68.5 102t-102 68.5t-124.5 25t-124.5 -25t-102 -68.5t-68.5 -102t-25 -124.5q0 -71 29 -133t78 -105q-66 -31 -121 -78.5t-94.5 -107.5
t-61.5 -131.5t-22 -148.5q0 -67 16.5 -130t47.5 -118q-100 -58 -183 -140t-141.5 -182t-91 -215t-32.5 -239h1792q0 124 -32.5 239t-91 215t-141.5 182t-183 140z" />
    <glyph glyph-name="uniE978" unicode="chess&#x37;" 
d="M1792 1920h256v-256h-256v256zM1792 1408h256v-256h-256v256zM1792 896h256v-256h-256v256zM1792 384h256v-256h-256v256zM1536 1664h256v-256h-256v256zM1536 1152h256v-256h-256v256zM1536 640h256v-256h-256v256zM1536 128h256v-256h-256v256zM1280 1920h256v-256
h-256v256zM1280 1408h256v-256h-256v256zM1280 896h256v-256h-256v256zM1280 384h256v-256h-256v256zM1024 1664h256v-256h-256v256zM1024 1152h256v-256h-256v256zM1024 640h256v-256h-256v256zM1024 128h256v-256h-256v256zM768 1920h256v-256h-256v256zM768 1408h256
v-256h-256v256zM768 896h256v-256h-256v256zM768 384h256v-256h-256v256zM512 1664h256v-256h-256v256zM512 1152h256v-256h-256v256zM512 640h256v-256h-256v256zM512 128h256v-256h-256v256zM256 1920h256v-256h-256v256zM256 1408h256v-256h-256v256zM256 896h256v-256
h-256v256zM256 384h256v-256h-256v256zM0 1664h256v-256h-256v256zM0 1152h256v-256h-256v256zM0 640h256v-256h-256v256zM0 128h256v-256h-256v256z" />
    <glyph glyph-name="uniE979" unicode="bullhorn" 
d="M2048 1061q0 151 -20.5 283.5t-56.5 231.5t-83.5 157t-102.5 59h0.5h1.5h-166l-69.5 -47.5t-195.5 -113t-300.5 -134.5t-385.5 -113q-6 -33 -11 -70.5t-9 -78t-6 -84t-2 -90.5q0 -46 2 -89.5t6 -84t9 -78t11 -71.5q211 -43 385.5 -112t300.5 -134.5t195.5 -113
l69.5 -47.5h166h-1.5h-0.5q55 1 102.5 58.5t83.5 157t56.5 232t20.5 282.5v0zM1730 441q-14 0 -28 11.5t-22 20.5q-19 21 -37 53t-33 73q-18 46 -31.5 99.5t-22.5 112t-13.5 122t-4.5 128.5q0 66 4.5 129.5t13.5 122t22.5 112t31.5 99.5q15 41 33 73t37 53q8 9 22 20t28 11
t27.5 -11t21.5 -20q19 -21 37 -53t34 -73q17 -46 30.5 -99.5t22.5 -112t14 -122t5 -129.5q0 -65 -5 -128.5t-14 -122t-22.5 -112t-30.5 -99.5q-16 -41 -34 -73t-37 -53q-8 -9 -21.5 -20.5t-27.5 -11.5zM504 1061q0 78 5.5 153.5t16.5 145.5q-71 -10 -137.5 -15.5
t-143.5 -5.5h-117.5h-16.5l-111 -189v-177l111 -189h16.5h117.5q77 0 143.5 -5.5t137.5 -15.5q-11 70 -16.5 145.5t-5.5 152.5zM736 636l-256 49l164 -643q6 -25 27.5 -36t45.5 -2l237 95q24 10 32.5 33t-3.5 45zM1730 823q-6 0 -11 4t-8 8q-8 8 -15 20.5t-13 27.5
q-13 36 -20 82t-7 96q0 51 7 97t20 82q6 15 13 27.5t15 20.5q3 4 8 8t11 4q5 0 10.5 -4t8.5 -8q7 -8 14 -20.5t13 -27.5q13 -36 20.5 -82t7.5 -97q0 -50 -7.5 -96t-20.5 -82q-6 -15 -13 -27.5t-14 -20.5q-3 -4 -8.5 -8t-10.5 -4z" />
    <glyph glyph-name="uniE97A" unicode="bullhorn&#x32;" 
d="M256 1152h-256v-640h256v128l256 -73v-1.5v-1.5v-180q0 -53 37.5 -90.5t90.5 -37.5h256q53 0 90.5 37.5t37.5 90.5v37l640 -183v1188l-1408 -402v128zM640 530l256 -73v-73h-256v146zM1792 1463v-1262l256 -73v1408z" />
    <glyph glyph-name="uniE97B" unicode="news&#x32;" 
d="M1792 1536h-1536q-53 0 -99.5 -20t-81.5 -55t-55 -81.5t-20 -99.5v-896q0 -53 20 -99.5t55 -81.5t81.5 -55t99.5 -20h1536q53 0 99.5 20t81.5 55t55 81.5t20 99.5v896q0 53 -20 99.5t-55 81.5t-81.5 55t-99.5 20zM640 512h-128l-256 427v-427h-128v640h128l256 -427v427
h128v-640zM1152 1024h-256v-128h256v-128h-256v-128h256v-128h-384v640h384v-128zM1920 512h-192l-128 256l-128 -256h-192v640h128v-512l128 256h128l128 -256v512h128v-640z" />
    <glyph glyph-name="uniE97C" unicode="connection" horiz-adv-x="2560" 
d="M1280 768q79 0 154.5 -15.5t144.5 -45t130.5 -71t113.5 -93.5l-181 -181q-35 35 -76 62.5t-87 47t-96 30t-103 10.5t-103 -10.5t-96 -30t-87 -47t-76 -62.5l-181 181q52 52 113.5 93.5t130.5 71t144.5 45t154.5 15.5v0zM375 905q91 91 195.5 161t219.5 117.5t238.5 72
t251.5 24.5t251.5 -24.5t238.5 -72t219.5 -117.5t195.5 -161l-181 -181q-72 73 -156 128.5t-176 94t-190.5 58t-201.5 19.5t-201.5 -19.5t-190.5 -58t-176 -94t-156 -128.5zM1978 1651q80 -34 155.5 -75t147 -89t138 -103t128.5 -117v0l-181 -181q-109 109 -234.5 193
t-263.5 141t-286 86.5t-302 29.5t-302 -29.5t-286 -86.5t-263.5 -141t-234.5 -193l-181 181q62 62 128.5 117t138 103t147 89t155.5 75q83 35 168.5 61.5t173 44t176.5 26.5t180 9t180 -9t176.5 -26.5t173 -44t168.5 -61.5zM1152 128q0 53 37.5 90.5t90.5 37.5t90.5 -37.5
t37.5 -90.5t-37.5 -90.5t-90.5 -37.5t-90.5 37.5t-37.5 90.5z" />
    <glyph glyph-name="uniE97D" unicode="connection&#x32;" horiz-adv-x="2560" 
d="M1280 768q79 0 154.5 -15.5t144.5 -45t130.5 -71t113.5 -93.5l-181 -181q-35 35 -76 62.5t-87 47t-96 30t-103 10.5t-103 -10.5t-96 -30t-87 -47t-76 -62.5l-181 181q52 52 113.5 93.5t130.5 71t144.5 45t154.5 15.5v0v0zM375 905q91 91 195.5 161t219.5 117.5t238.5 72
t251.5 24.5t251.5 -24.5t238.5 -72t219.5 -117.5t195.5 -161l-181 -181q-72 73 -156 128.5t-176 94t-190.5 58t-201.5 19.5t-201.5 -19.5t-190.5 -58t-176 -94t-156 -128.5l-181 181v0zM1152 128q0 53 37.5 90.5t90.5 37.5t90.5 -37.5t37.5 -90.5t-37.5 -90.5t-90.5 -37.5
t-90.5 37.5t-37.5 90.5zM1680 1484q8 -2 16 -4.5t16 -4.5v265q-8 2 -16 3.5t-16 3.5v-263v0zM1616 1499q8 -1 16 -3l16 -4v262q-8 2 -16 3.5t-16 3.5v-262zM1872 1418q8 -3 16 -6.5t16 -7.5v276l-16 6l-16 6v-274zM1744 1465q8 -3 16 -5.5t16 -4.5v267q-8 3 -16 5l-16 4
v-266zM1808 1443l16 -6l16 -6v272q-8 2 -16 5t-16 5v-270zM1424 1529q8 0 16 -1l16 -2v257l-16 2t-16 1v-257zM1296 1536q8 0 16 -0.5t16 -0.5v256q-8 1 -16 1h-16v-256zM1552 1512q8 -1 16 -2.5t16 -3.5v260q-8 2 -16 3t-16 3v-260zM1488 1522l16 -2t16 -3v259l-16 2l-16 2
v-258zM1360 1534q8 0 16 -0.5t16 -1.5v257q-8 0 -16 0.5t-16 0.5v-256zM2448 1168l32 32v131l-16 14l-16 14v-191zM2384 1104l32 32v250q-8 7 -16 13t-16 13v-308zM2320 1130q8 -7 16 -14.5t16 -15.5v336l-16 12l-16 12v-330zM2512 1301v-69l32 32v6l-16 16t-16 15z
M1936 1668v-278l16 -8l16 -8v281q-8 3 -16 6.5t-16 6.5zM2000 1358q8 -5 16 -9t16 -9v287q-8 4 -16 7.5t-16 6.5v-283zM2064 1322l16 -10l16 -10v294l-16 8l-16 8v-290zM2192 1236l16 -12l16 -12v312q-8 5 -16 9.5t-16 9.5v-307zM2256 1186q8 -6 16 -13l16 -14v323
q-8 5 -16 10.5t-16 10.5v-317zM2128 1281q8 -5 16 -10.5t16 -11.5v302q-8 5 -16 9.5t-16 8.5v-298zM400 1259q8 6 16 11.5t16 10.5v298q-8 -4 -16 -8.5t-16 -9.5v-302zM1232 1535q8 0 16 0.5t16 0.5v256h-16t-16 -1v-256zM464 1302l16 10l16 10v290l-16 -8l-16 -8v-294z
M272 1159l16 14t16 13v317q-8 -5 -16 -10.5t-16 -10.5v-323zM528 1627v-287q8 5 16 9t16 9v283q-8 -3 -16 -6.5t-16 -7.5zM16 1264l32 -32v69q-8 -7 -16 -15l-16 -16v-6zM208 1100q8 8 16 15.5t16 14.5v330l-16 -12l-16 -12v-336zM592 1374l16 8l16 8v278q-8 -3 -16 -6.5
t-16 -6.5v-281v0zM80 1200l32 -32v191l-16 -14l-16 -14v-131zM144 1136l32 -32v308q-8 -7 -16 -13t-16 -13v-250zM336 1212l16 12l16 12v307q-8 -5 -16 -9.5t-16 -9.5v-312zM656 1404q8 4 16 7.5t16 6.5v274l-16 -6l-16 -6v-276zM1104 1526l16 2t16 1v257q-8 0 -16 -1
t-16 -1v-258zM1168 1532q8 1 16 1.5t16 0.5v256q-8 0 -16 -0.5t-16 -0.5v-257zM976 1506q8 2 16 3.5t16 2.5v260q-8 -2 -16 -3t-16 -3v-260v0zM1040 1517q8 2 16 3l16 2v258l-16 -2l-16 -2v-259zM784 1455q8 2 16 4.5t16 5.5v266l-16 -4t-16 -5v-267zM720 1431l16 6l16 6
v270q-8 -2 -16 -5t-16 -5v-272zM912 1492l16 4t16 3v262q-8 -2 -16 -3.5t-16 -3.5v-262zM848 1475q8 2 16 4.5t16 4.5v263q-8 -2 -16 -3.5t-16 -3.5v-265z" />
    <glyph glyph-name="uniE97E" unicode="connection&#x33;" horiz-adv-x="2560" 
d="M1280 768q79 0 154.5 -15.5t144.5 -45t130.5 -71t113.5 -93.5l-181 -181q-35 35 -76 62.5t-87 47t-96 30t-103 10.5t-103 -10.5t-96 -30t-87 -47t-76 -62.5l-181 181q52 52 113.5 93.5t130.5 71t144.5 45t154.5 15.5v0v0zM1152 128q0 53 37.5 90.5t90.5 37.5t90.5 -37.5
t37.5 -90.5t-37.5 -90.5t-90.5 -37.5t-90.5 37.5t-37.5 90.5zM1680 1484q8 -2 16 -4.5t16 -4.5v265q-8 2 -16 3.5t-16 3.5v-263v0zM1616 1499q8 -1 16 -3l16 -4v262q-8 2 -16 3.5t-16 3.5v-262zM1872 1418q8 -3 16 -6.5t16 -7.5v276l-16 6l-16 6v-274zM1744 1465
q8 -3 16 -5.5t16 -4.5v267q-8 3 -16 5l-16 4v-266zM1808 1443l16 -6l16 -6v272q-8 2 -16 5t-16 5v-270zM1424 1529q8 0 16 -1l16 -2v257l-16 2t-16 1v-257zM1296 1536q8 0 16 -0.5t16 -0.5v256q-8 1 -16 1h-16v-256zM1552 1512q8 -1 16 -2.5t16 -3.5v260q-8 2 -16 3t-16 3
v-260zM1488 1522l16 -2t16 -3v259l-16 2l-16 2v-258zM1360 1534q8 0 16 -0.5t16 -1.5v257q-8 0 -16 0.5t-16 0.5v-256zM2448 1168l32 32v131l-16 14l-16 14v-191zM2384 1104l32 32v250q-8 7 -16 13t-16 13v-308zM2320 1130q8 -7 16 -14.5t16 -15.5v336l-16 12l-16 12v-330z
M2512 1301v-69l32 32v6l-16 16t-16 15zM1936 1668v-278l16 -8l16 -8v281q-8 3 -16 6.5t-16 6.5zM2000 1358q8 -5 16 -9t16 -9v287q-8 4 -16 7.5t-16 6.5v-283zM2064 1322l16 -10l16 -10v294l-16 8l-16 8v-290zM2192 1236l16 -12l16 -12v312q-8 5 -16 9.5t-16 9.5v-307z
M2256 1186q8 -6 16 -13l16 -14v323q-8 5 -16 10.5t-16 10.5v-317zM2128 1281q8 -5 16 -10.5t16 -11.5v302q-8 5 -16 9.5t-16 8.5v-298zM400 1259q8 6 16 11.5t16 10.5v298q-8 -4 -16 -8.5t-16 -9.5v-302zM1232 1535q8 0 16 0.5t16 0.5v256h-16t-16 -1v-256zM464 1302l16 10
l16 10v290l-16 -8l-16 -8v-294zM272 1159l16 14t16 13v317q-8 -5 -16 -10.5t-16 -10.5v-323zM528 1627v-287q8 5 16 9t16 9v283q-8 -3 -16 -6.5t-16 -7.5zM16 1264l32 -32v69q-8 -7 -16 -15l-16 -16v-6zM208 1100q8 8 16 15.5t16 14.5v330l-16 -12l-16 -12v-336zM592 1374
l16 8l16 8v278q-8 -3 -16 -6.5t-16 -6.5v-281v0zM80 1200l32 -32v191l-16 -14l-16 -14v-131zM144 1136l32 -32v308q-8 -7 -16 -13t-16 -13v-250zM336 1212l16 12l16 12v307q-8 -5 -16 -9.5t-16 -9.5v-312zM656 1404q8 4 16 7.5t16 6.5v274l-16 -6l-16 -6v-276zM1104 1526
l16 2t16 1v257q-8 0 -16 -1t-16 -1v-258zM1168 1532q8 1 16 1.5t16 0.5v256q-8 0 -16 -0.5t-16 -0.5v-257zM976 1506q8 2 16 3.5t16 2.5v260q-8 -2 -16 -3t-16 -3v-260v0zM1040 1517q8 2 16 3l16 2v258l-16 -2l-16 -2v-259zM784 1455q8 2 16 4.5t16 5.5v266l-16 -4t-16 -5
v-267zM720 1431l16 6l16 6v270q-8 -2 -16 -5t-16 -5v-272zM912 1492l16 4t16 3v262q-8 -2 -16 -3.5t-16 -3.5v-262zM848 1475q8 2 16 4.5t16 4.5v263q-8 -2 -16 -3.5t-16 -3.5v-265zM1552 988q8 -3 16 -5t16 -5v266q-8 2 -16 3.5t-16 3.5v-263zM1616 968l16 -6l16 -6v271
l-16 4t-16 5v-268zM1424 1014q8 -1 16 -2.5t16 -2.5v259l-16 2l-16 2v-258zM1360 1021q8 -1 16 -1.5t16 -1.5v257q-8 1 -16 1.5t-16 0.5v-256zM1488 1003q8 -2 16 -3.5t16 -3.5v262q-8 1 -16 2.5t-16 2.5v-260v0zM1680 943q8 -3 16 -6.5t16 -7.5v277q-8 2 -16 5l-16 6v-274z
M1744 913l16 -8t16 -9v285q-8 3 -16 6.5t-16 6.5v-281v0zM2064 784l32 32v170q-8 7 -16 13.5t-16 12.5v-228zM2128 959v-111l32 32v49q-8 8 -16 15.5t-16 14.5zM2000 728l2 -2l2 -2l28 28v284q-8 6 -16 11.5t-16 11.5v-331zM1808 878l16 -10l16 -10v294q-8 4 -16 7.5
t-16 7.5v-289zM1936 786q8 -6 16 -13t16 -15v322l-16 10l-16 10v-314zM1296 1024q8 0 16 -0.5t16 -0.5v256q-8 0 -16 0.5t-16 0.5v-256v0zM1872 836l16 -12l16 -12v306q-8 5 -16 9l-16 8v-299zM912 956l16 6l16 6v268q-8 -3 -16 -5l-16 -4v-271v0zM592 758q8 8 16 15t16 13
v314l-16 -10l-16 -10v-322zM528 752l28 -28l2 2l2 2v331q-8 -6 -16 -11.5t-16 -11.5v-284zM656 812l16 12l16 12v299l-16 -8t-16 -9v-306zM720 858l16 10l16 10v289q-8 -4 -16 -7.5t-16 -7.5v-294zM464 816l32 -32v228q-8 -6 -16 -12.5t-16 -13.5v-170zM400 880l32 -32v111
q-8 -7 -16 -14.5t-16 -15.5v-49zM1168 1018q8 1 16 1.5t16 1.5v256q-8 0 -16 -0.5t-16 -1.5v-257v0zM784 896q8 5 16 9l16 8v281q-8 -3 -16 -6.5t-16 -6.5v-285v0zM1232 1023q8 0 16 0.5t16 0.5v256q-8 0 -16 -0.5t-16 -0.5v-256v0zM1040 996q8 2 16 3.5t16 3.5v260
q-8 -1 -16 -2.5t-16 -2.5v-262zM1104 1009q8 1 16 2.5t16 2.5v258l-16 -2l-16 -2v-259zM848 929q8 4 16 7.5t16 6.5v274l-16 -6t-16 -5v-277zM976 978q8 3 16 5t16 5v263q-8 -2 -16 -3.5t-16 -3.5v-266z" />
    <glyph glyph-name="uniE97F" unicode="connection&#x34;" horiz-adv-x="2560" 
d="M1152 128q0 53 37.5 90.5t90.5 37.5t90.5 -37.5t37.5 -90.5t-37.5 -90.5t-90.5 -37.5t-90.5 37.5t-37.5 90.5zM1680 1484q8 -2 16 -4.5t16 -4.5v265q-8 2 -16 3.5t-16 3.5v-263v0zM1616 1499q8 -1 16 -3l16 -4v262q-8 2 -16 3.5t-16 3.5v-262zM1872 1418q8 -3 16 -6.5
t16 -7.5v276l-16 6l-16 6v-274zM1744 1465q8 -3 16 -5.5t16 -4.5v267q-8 3 -16 5l-16 4v-266zM1808 1443l16 -6l16 -6v272q-8 2 -16 5t-16 5v-270zM1424 1529q8 0 16 -1l16 -2v257l-16 2t-16 1v-257zM1296 1536q8 0 16 -0.5t16 -0.5v256q-8 1 -16 1h-16v-256zM1552 1512
q8 -1 16 -2.5t16 -3.5v260q-8 2 -16 3t-16 3v-260zM1488 1522l16 -2t16 -3v259l-16 2l-16 2v-258zM1360 1534q8 0 16 -0.5t16 -1.5v257q-8 0 -16 0.5t-16 0.5v-256zM2448 1168l32 32v131l-16 14l-16 14v-191zM2384 1104l32 32v250q-8 7 -16 13t-16 13v-308zM2320 1130
q8 -7 16 -14.5t16 -15.5v336l-16 12l-16 12v-330zM2512 1301v-69l32 32v6l-16 16t-16 15zM1936 1668v-278l16 -8l16 -8v281q-8 3 -16 6.5t-16 6.5zM2000 1358q8 -5 16 -9t16 -9v287q-8 4 -16 7.5t-16 6.5v-283zM2064 1322l16 -10l16 -10v294l-16 8l-16 8v-290zM2192 1236
l16 -12l16 -12v312q-8 5 -16 9.5t-16 9.5v-307zM2256 1186q8 -6 16 -13l16 -14v323q-8 5 -16 10.5t-16 10.5v-317zM2128 1281q8 -5 16 -10.5t16 -11.5v302q-8 5 -16 9.5t-16 8.5v-298zM400 1259q8 6 16 11.5t16 10.5v298q-8 -4 -16 -8.5t-16 -9.5v-302zM1232 1535
q8 0 16 0.5t16 0.5v256h-16t-16 -1v-256zM464 1302l16 10l16 10v290l-16 -8l-16 -8v-294zM272 1159l16 14t16 13v317q-8 -5 -16 -10.5t-16 -10.5v-323zM528 1627v-287q8 5 16 9t16 9v283q-8 -3 -16 -6.5t-16 -7.5zM16 1264l32 -32v69q-8 -7 -16 -15l-16 -16v-6zM208 1100
q8 8 16 15.5t16 14.5v330l-16 -12l-16 -12v-336zM592 1374l16 8l16 8v278q-8 -3 -16 -6.5t-16 -6.5v-281v0zM80 1200l32 -32v191l-16 -14l-16 -14v-131zM144 1136l32 -32v308q-8 -7 -16 -13t-16 -13v-250zM336 1212l16 12l16 12v307q-8 -5 -16 -9.5t-16 -9.5v-312zM656 1404
q8 4 16 7.5t16 6.5v274l-16 -6l-16 -6v-276zM1104 1526l16 2t16 1v257q-8 0 -16 -1t-16 -1v-258zM1168 1532q8 1 16 1.5t16 0.5v256q-8 0 -16 -0.5t-16 -0.5v-257zM976 1506q8 2 16 3.5t16 2.5v260q-8 -2 -16 -3t-16 -3v-260v0zM1040 1517q8 2 16 3l16 2v258l-16 -2l-16 -2
v-259zM784 1455q8 2 16 4.5t16 5.5v266l-16 -4t-16 -5v-267zM720 1431l16 6l16 6v270q-8 -2 -16 -5t-16 -5v-272zM912 1492l16 4t16 3v262q-8 -2 -16 -3.5t-16 -3.5v-262zM848 1475q8 2 16 4.5t16 4.5v263q-8 -2 -16 -3.5t-16 -3.5v-265zM1552 988q8 -3 16 -5t16 -5v266
q-8 2 -16 3.5t-16 3.5v-263zM1616 968l16 -6l16 -6v271l-16 4t-16 5v-268zM1424 1014q8 -1 16 -2.5t16 -2.5v259l-16 2l-16 2v-258zM1360 1021q8 -1 16 -1.5t16 -1.5v257q-8 1 -16 1.5t-16 0.5v-256zM1488 1003q8 -2 16 -3.5t16 -3.5v262q-8 1 -16 2.5t-16 2.5v-260v0z
M1680 943q8 -3 16 -6.5t16 -7.5v277q-8 2 -16 5l-16 6v-274zM1744 913l16 -8t16 -9v285q-8 3 -16 6.5t-16 6.5v-281v0zM2064 784l32 32v170q-8 7 -16 13.5t-16 12.5v-228zM2128 959v-111l32 32v49q-8 8 -16 15.5t-16 14.5zM2000 728l2 -2l2 -2l28 28v284q-8 6 -16 11.5
t-16 11.5v-331zM1808 878l16 -10l16 -10v294q-8 4 -16 7.5t-16 7.5v-289zM1936 786q8 -6 16 -13t16 -15v322l-16 10l-16 10v-314zM1296 1024q8 0 16 -0.5t16 -0.5v256q-8 0 -16 0.5t-16 0.5v-256v0zM1872 836l16 -12l16 -12v306q-8 5 -16 9l-16 8v-299zM912 956l16 6l16 6
v268q-8 -3 -16 -5l-16 -4v-271v0zM592 758q8 8 16 15t16 13v314l-16 -10l-16 -10v-322zM528 752l28 -28l2 2l2 2v331q-8 -6 -16 -11.5t-16 -11.5v-284zM656 812l16 12l16 12v299l-16 -8t-16 -9v-306zM720 858l16 10l16 10v289q-8 -4 -16 -7.5t-16 -7.5v-294zM464 816l32 -32
v228q-8 -6 -16 -12.5t-16 -13.5v-170zM400 880l32 -32v111q-8 -7 -16 -14.5t-16 -15.5v-49zM1168 1018q8 1 16 1.5t16 1.5v256q-8 0 -16 -0.5t-16 -1.5v-257v0zM784 896q8 5 16 9l16 8v281q-8 -3 -16 -6.5t-16 -6.5v-285v0zM1232 1023q8 0 16 0.5t16 0.5v256q-8 0 -16 -0.5
t-16 -0.5v-256v0zM1040 996q8 2 16 3.5t16 3.5v260q-8 -1 -16 -2.5t-16 -2.5v-262zM1104 1009q8 1 16 2.5t16 2.5v258l-16 -2l-16 -2v-259zM848 929q8 4 16 7.5t16 6.5v274l-16 -6t-16 -5v-277zM976 978q8 3 16 5t16 5v263q-8 -2 -16 -3.5t-16 -3.5v-266zM1296 512
q8 -1 16 -1.5t16 -0.5v256q-8 1 -16 1.5t-16 0.5v-256zM1424 491q8 -2 16 -4.5t16 -5.5v267q-8 1 -16 3t-16 3v-263zM1360 506q8 -2 16 -3.5t16 -2.5v260l-16 2l-16 2v-258zM1552 434q8 -6 16 -11.5t16 -10.5v293q-8 4 -16 7l-16 6v-284zM1488 468l16 -8l16 -8v278
q-8 2 -16 4.5t-16 4.5v-271v0zM1616 386q7 -6 13.5 -12t12.5 -12l6 6v306q-8 4 -16 8.5t-16 7.5v-304zM1808 557v-29l15 15q-4 3 -7.5 7t-7.5 7zM1744 464l32 32v90q-8 6 -16 12.5t-16 13.5v-148zM1680 400l32 32v203l-16 10l-16 10v-255zM1232 510q8 0 16 0.5t16 1.5v256
q-8 0 -16 -0.5t-16 -1.5v-256v0zM848 432l32 -32v255l-16 -10l-16 -10v-203zM1168 500q8 1 16 2.5t16 3.5v258l-16 -2l-16 -2v-260v0zM752 528v29q-4 -3 -7.5 -7t-7.5 -7zM912 368l6 -6q6 6 12.5 12t13.5 12v304q-8 -3 -16 -7.5t-16 -8.5v-306zM784 496l32 -32v148
q-8 -7 -16 -13.5t-16 -12.5v-90zM976 412q8 5 16 10.5t16 11.5v284l-16 -6t-16 -7v-293zM1104 481q8 3 16 5.5t16 4.5v263q-8 -1 -16 -3t-16 -3v-267zM1040 452l16 8l16 8v271q-8 -2 -16 -4.5t-16 -4.5v-278v0z" />
    <glyph glyph-name="uniE980" unicode="broadcast" 
d="M2048 896q0 212 -80.5 398.5t-219.5 325.5t-325.5 219.5t-398.5 80.5t-398.5 -80.5t-325.5 -219.5t-219.5 -325.5t-80.5 -398.5q0 -165 49.5 -315.5t138 -275.5t211 -220t268.5 -149l-27 -64h768l-27 64q146 54 268.5 149t211 220t138 275.5t49.5 315.5zM974 650
q-35 15 -56.5 46.5t-21.5 71.5q0 53 37.5 90.5t90.5 37.5t90.5 -37.5t37.5 -90.5q0 -40 -21.5 -71.5t-56.5 -46.5l-50 118l-50 -118v0zM1077 645q43 10 80.5 32.5t64.5 56t42.5 75t15.5 87.5q0 53 -20 99.5t-55 81.5t-81.5 55t-99.5 20t-99.5 -20t-81.5 -55t-55 -81.5
t-20 -99.5q0 -46 15.5 -87.5t42.5 -75t64.5 -56t81.5 -31.5l-150 -349q-68 30 -125 77.5t-98 108.5t-64 133.5t-23 151.5q0 106 40 203t109.5 171t163 118t199.5 44t199.5 -44t163 -118t109.5 -171t40 -203q0 -79 -23 -151.5t-64 -133.5t-98 -108.5t-125 -77.5l-149 348v0z
M1377 -55l-148 345q95 32 175 91t137.5 138t90 175t32.5 202q0 133 -50.5 249.5t-137 203t-203 137t-249.5 50.5t-249.5 -50.5t-203 -137t-137 -203t-50.5 -249.5q0 -106 32.5 -202t90 -175t137.5 -138t175 -91l-148 -345q-120 51 -219.5 134t-171.5 190t-112 233.5
t-40 265.5q0 185 70.5 352t192 293t285 200.5t348.5 74.5t348.5 -74.5t285 -200.5t192 -293t70.5 -352q0 -139 -40 -265.5t-112 -233.5t-171.5 -190t-219.5 -134v0z" />
    <glyph glyph-name="uniE981" unicode="radio" 
d="M1280 1280q0 53 -20 99.5t-55 81.5t-81.5 55t-99.5 20t-99.5 -20t-81.5 -55t-55 -81.5t-20 -99.5q0 -68 32.5 -125t85.5 -91l-325 -1192h158l35 128h540l35 -128h158l-325 1192q53 34 85.5 91t32.5 125v0zM1190 384h-332l35 128h262zM928 640l96 351l96 -351h-192z
M789 128l35 128h400l35 -128h-470v0zM1329 1843q75 -41 136.5 -99.5t105.5 -131.5t68.5 -157t24.5 -175t-24.5 -175t-68.5 -157t-105.5 -131.5t-136.5 -99.5q33 53 59.5 116t45 134.5t28.5 150.5t10 162t-10 162t-28.5 150.5t-45 134.5t-59.5 116zM1713 1843
q75 -41 136.5 -99.5t105.5 -131.5t68.5 -157t24.5 -175t-24.5 -175t-68.5 -157t-105.5 -131.5t-136.5 -99.5q33 53 59.5 116t45 134.5t28.5 150.5t10 162t-10 162t-28.5 150.5t-45 134.5t-59.5 116zM719 717q-75 41 -136.5 99.5t-105.5 131.5t-68.5 157t-24.5 175t24.5 175
t68.5 157t105.5 131.5t136.5 99.5q-33 -53 -59.5 -116t-45 -134.5t-28.5 -150.5t-10 -162t10 -162t28.5 -150.5t45 -134.5t59.5 -116zM0 1280q0 91 24.5 175t68.5 157t105.5 131.5t136.5 99.5q-33 -53 -59.5 -116t-45 -134.5t-28.5 -150.5t-10 -162t10 -162t28.5 -150.5
t45 -134.5t59.5 -116q-75 41 -136.5 99.5t-105.5 131.5t-68.5 157t-24.5 175z" />
    <glyph glyph-name="uniE982" unicode="radio&#x32;" 
d="M400 468l83 181q-67 57 -121 127.5t-91.5 150.5t-58 169t-20.5 184q0 74 12.5 144t36 136t57.5 126t77 114l-150 120q-55 -68 -97 -143.5t-70.5 -156.5t-43 -166.5t-14.5 -173.5q0 -103 19.5 -201.5t58 -190.5t94 -176t128.5 -156q24 -24 49 -46t51 -42v0zM1565 649
l83 -181q26 20 51 42t49 46q73 72 128.5 156t94 176t58 190.5t19.5 201.5q0 88 -14.5 173.5t-43 166.5t-70.5 156.5t-97 143.5l-150 -120q43 -54 77 -114t57.5 -126t36 -136t12.5 -144q0 -95 -20.5 -184t-58 -169t-91.5 -150.5t-121 -127.5zM1409 993l87 -191q1 0 1.5 1
t1.5 2q92 91 141 205.5t55 234.5t-30.5 238t-115.5 217l-150 -120q51 -64 77 -139t27.5 -153t-22.5 -154t-72 -141zM549 805q1 -1 1.5 -2t1.5 -1l87 191q-48 65 -72 141t-22.5 154t27.5 153t77 139l-150 120q-79 -99 -115.5 -217t-30.5 -238t55 -234.5t141 -205.5z
M1280 1280q0 53 -20 99.5t-55 81.5t-81.5 55t-99.5 20t-99.5 -20t-81.5 -55t-55 -81.5t-20 -99.5q0 -56 22.5 -104.5t60.5 -84.5l-554 -1219h211l116 256h800l116 -256h211l-554 1219q38 36 60.5 84.5t22.5 104.5v0zM1024 1008l167 -368h-334zM1366 256h-684l116 256h452z
" />
    <glyph glyph-name="uniE983" unicode="antenna" 
d="M1431 393q-18 0 -36 7t-32 21q-28 28 -28 67.5t28 68.5q71 70 106 158.5t35 180.5t-35 180.5t-106 158.5q-70 71 -158.5 106t-180.5 35t-180.5 -35t-158.5 -106q-34 -34 -60.5 -73t-44.5 -82t-27 -89.5t-9 -94.5t9 -94.5t27 -89.5t44.5 -82t60.5 -73q28 -29 28 -68.5
t-28 -67.5q-29 -28 -68.5 -28t-67.5 28q-48 47 -84.5 102t-61.5 115.5t-38 125.5t-13 132t13 132t38 125.5t61.5 115.5t84.5 102q98 98 222 147.5t253 49.5t253 -49.5t222 -147.5t147.5 -222t49.5 -253t-49.5 -253t-147.5 -222q-14 -14 -31.5 -21t-36.5 -7v0zM1680 144
q-18 0 -36 7t-32 21q-28 28 -28 68t28 68q122 121 183 274.5t61 313.5t-61 313.5t-183 274.5q-121 122 -274.5 183t-313.5 61t-313.5 -61t-274.5 -183q-122 -121 -183 -274.5t-61 -313.5t61 -313.5t183 -274.5q28 -28 28 -68t-28 -68t-68 -28t-68 28q-73 72 -128.5 156
t-94 176t-58 190.5t-19.5 201.5t19.5 201.5t58 190.5t94 176t128.5 156q72 73 156 128.5t176 94t190.5 58t201.5 19.5t201.5 -19.5t190.5 -58t176 -94t156 -128.5q73 -72 128.5 -156t94 -176t58 -190.5t19.5 -201.5t-19.5 -201.5t-58 -190.5t-94 -176t-128.5 -156
q-14 -14 -31.5 -21t-36.5 -7v0v0zM1216 0h-64v674q57 34 92.5 92.5t35.5 129.5q0 53 -20 99.5t-55 81.5t-81.5 55t-99.5 20t-99.5 -20t-81.5 -55t-55 -81.5t-20 -99.5q0 -71 35.5 -129.5t92.5 -92.5v-674h-64q-27 0 -45.5 -18.5t-18.5 -45.5t18.5 -45.5t45.5 -18.5h384
q27 0 45.5 18.5t18.5 45.5t-18.5 45.5t-45.5 18.5z" />
    <glyph glyph-name="uniE984" unicode="satellite&#x2d;dish" 
d="M2044 1840q6 16 2.5 33t-16.5 29q-12 13 -29 16.5t-33 -2.5v1l-703 -250q-32 22 -64.5 42.5t-65.5 38.5q-54 30 -105.5 53t-100.5 38.5t-94.5 23.5t-86.5 8q-65 0 -119 -20t-92 -59q-20 -19 -34.5 -42t-23.5 -49q-23 -49 -40.5 -100.5t-30 -105t-18.5 -109.5t-6 -113
q0 -211 80 -396t218 -323t323 -218t396 -80q57 0 113 6.5t110 18.5t106 29.5t101 40.5q26 10 48.5 24.5t40.5 33.5q37 36 56.5 84.5t22 108t-12 128t-45.5 144.5q-27 64 -63.5 130.5t-82.5 132.5l249 703v0zM1543 788q-8 -23 2.5 -45.5t34.5 -31.5l10 -2t10 -1
q19 0 34.5 10.5t22.5 29.5l83 235q25 -42 46.5 -83t37.5 -81q41 -99 46 -175.5t-27 -109.5q-14 -14 -36.5 -21t-53.5 -7q-56 0 -134 24.5t-170 75t-195 127.5t-210 183q-62 63 -117 128t-101 130t-82.5 129.5t-62.5 126.5q-41 99 -46 175.5t27 109.5q14 14 37 21t54 7
t70.5 -8t85 -24t96.5 -41t106 -58l-235 -83q-24 -9 -34.5 -31.5t-2.5 -45.5q9 -24 31.5 -34.5t45.5 -2.5l842 299l-584 -584q-18 -17 -18 -42t18 -42q8 -9 19 -13.5t23 -4.5t23 4.5t19 13.5l584 584l-299 -842v0zM1152 -64v64q0 24 -3 47t-8 45q-72 16 -142 40.5t-136 57
t-127.5 73.5t-119.5 90q-51 -22 -93.5 -57.5t-73.5 -81.5t-48 -100.5t-17 -113.5v-64q0 -27 18.5 -45.5t45.5 -18.5h640q27 0 45.5 18.5t18.5 45.5z" />
    <glyph glyph-name="uniE985" unicode="satellite&#x2d;dish&#x32;" 
d="M1920 1920q-53 0 -90.5 -37.5t-37.5 -90.5q0 -17 4 -32.5t12 -29.5l-704 -503q26 -37 54.5 -71t60 -65.5t65.5 -60t71 -54.5l503 704q14 -8 29.5 -12t32.5 -4q53 0 90.5 37.5t37.5 90.5t-37.5 90.5t-90.5 37.5zM1725 1232l-79 -111q29 -38 55 -76.5t48 -76.5t41 -75
t34 -74q41 -99 46 -175.5t-27 -109.5q-14 -14 -36.5 -21t-53.5 -7q-56 0 -134 24.5t-170 75t-195 127.5t-210 183q-62 63 -117 128t-101 130t-82.5 129.5t-62.5 126.5q-41 99 -46 175.5t27 109.5q14 14 37 21t54 7q41 0 95.5 -13.5t118 -41.5t135 -70t147.5 -100l111 79
q-56 44 -112.5 82t-112.5 69q-54 30 -105.5 53t-100.5 38.5t-94.5 23.5t-86.5 8q-65 0 -119 -20t-92 -59q-20 -19 -34.5 -42t-23.5 -49q-23 -48 -40.5 -100t-30 -105.5t-18.5 -109.5t-6 -113q0 -211 80 -396t218 -323t323 -218t396 -80q57 0 113 6.5t110 18.5t106 29.5
t101 40.5q26 10 48.5 24.5t40.5 33.5q37 36 56.5 84.5t22 108t-12 128t-45.5 144.5q-18 44 -41 88.5t-50 89.5t-58.5 90t-66.5 90zM1152 -64v64q0 24 -3 47t-8 45q-72 16 -142 40.5t-136 57t-127.5 73.5t-119.5 90q-51 -22 -93.5 -57.5t-73.5 -81.5t-48 -100.5t-17 -113.5
v-64q0 -27 18.5 -45.5t45.5 -18.5h640q27 0 45.5 18.5t18.5 45.5z" />
    <glyph glyph-name="uniE986" unicode="feed" 
d="M768 896q0 53 20 99.5t55 81.5t81.5 55t99.5 20t99.5 -20t81.5 -55t55 -81.5t20 -99.5t-20 -99.5t-55 -81.5t-81.5 -55t-99.5 -20t-99.5 20t-81.5 55t-55 81.5t-20 99.5zM1329 1459q75 -41 136.5 -99.5t105.5 -131.5t68.5 -157t24.5 -175t-24.5 -175t-68.5 -157
t-105.5 -131.5t-136.5 -99.5q33 53 59.5 116t45 134.5t28.5 150.5t10 162t-10 162t-28.5 150.5t-45 134.5t-59.5 116v0zM576 896q0 -83 10 -162t28.5 -150.5t45 -134.5t59.5 -116q-75 41 -136.5 99.5t-105.5 131.5t-68.5 157t-24.5 175t24.5 175t68.5 157t105.5 131.5
t136.5 99.5q-33 -53 -59.5 -116t-45 -134.5t-28.5 -150.5t-10 -162v0zM192 896q0 -129 19.5 -250.5t56.5 -231t89 -206t116 -175.5q-106 68 -193.5 160.5t-149.5 203t-96 237t-34 262.5t34 262.5t96 237t149.5 203t193.5 160.5q-64 -79 -116 -175.5t-89 -206t-56.5 -231
t-19.5 -250.5zM1575 1759q106 -68 193.5 -160.5t149.5 -203t96 -237t34 -262.5t-34 -262.5t-96 -237t-149.5 -203t-193.5 -160.5q64 79 116 175.5t89 206t56.5 231t19.5 250.5t-19.5 250.5t-56.5 231t-89 206t-116 175.5z" />
    <glyph glyph-name="uniE987" unicode="broadcast&#x32;" 
d="M1024 1920q-212 0 -398.5 -80.5t-325.5 -219.5t-219.5 -325.5t-80.5 -398.5q0 -106 21 -206.5t59.5 -192t94 -174t125.5 -151.5l90 90q-60 61 -109 133t-83 152.5t-52 168t-18 180.5q0 186 70.5 349t192 284.5t284.5 192t349 70.5t349 -70.5t284.5 -192t192 -284.5
t70.5 -349q0 -93 -18 -180.5t-52 -168t-83 -152.5t-109 -133l90 -90q70 69 125.5 151.5t94 174t59.5 192t21 206.5q0 212 -80.5 398.5t-219.5 325.5t-325.5 219.5t-398.5 80.5zM1024 1536q-133 0 -249.5 -50.5t-203 -137t-137 -203t-50.5 -249.5q0 -66 13 -129t37.5 -120.5
t59 -108.5t77.5 -95l91 91q-35 35 -62.5 76t-47 87t-30 96t-10.5 103q0 106 40.5 199.5t109.5 162.5t162.5 109.5t199.5 40.5t199.5 -40.5t162.5 -109.5t109.5 -162.5t40.5 -199.5q0 -53 -10.5 -103t-30 -96t-47 -87t-62.5 -76l91 -91q43 44 77.5 95t59 108.5t37.5 120.5
t13 129q0 133 -50.5 249.5t-137 203t-203 137t-249.5 50.5v0zM1205 715q35 35 55 81.5t20 99.5t-20 99.5t-55 81.5t-81.5 55t-99.5 20t-99.5 -20t-81.5 -55t-55 -81.5t-20 -99.5t20 -99.5t55 -81.5l90 90q-17 18 -27 41t-10 50q0 53 37.5 90.5t90.5 37.5t90.5 -37.5
t37.5 -90.5q0 -27 -10 -50t-27 -41zM976 768l-336 -896h768l-336 896h-96z" />
    <glyph glyph-name="uniE988" unicode="antenna&#x32;" 
d="M640 -128h768l-256 256v930q57 34 92.5 92.5t35.5 129.5q0 53 -20 99.5t-55 81.5t-81.5 55t-99.5 20t-99.5 -20t-81.5 -55t-55 -81.5t-20 -99.5q0 -71 35.5 -129.5t92.5 -92.5v-930zM1424 1600q26 -33 47 -70t35.5 -77.5t22 -84t7.5 -88.5t-7.5 -88.5t-22 -84
t-35.5 -77.5t-47 -70l100 -80q33 41 59 87.5t44 97t27.5 104.5t9.5 111t-9.5 111t-27.5 104.5t-44 97t-59 87.5zM524 1680q-33 -41 -59 -87.5t-44 -97t-27.5 -104.5t-9.5 -111t9.5 -111t27.5 -104.5t44 -97t59 -87.5l100 80q-26 33 -47 70t-35.5 77.5t-22 84t-7.5 88.5
t7.5 88.5t22 84t35.5 77.5t47 70l-100 80v0zM225 1920q-53 -66 -94.5 -140t-70.5 -155t-44.5 -167.5t-15.5 -177.5t15.5 -177.5t44.5 -167.5t70.5 -155t94.5 -140l100 80q-47 58 -83 122.5t-61.5 135.5t-39 147t-13.5 155t13.5 155t39 147t61.5 135.5t83 122.5zM1823 1920
l-100 -80q47 -58 83 -122.5t61.5 -135.5t39 -147t13.5 -155t-13.5 -155t-39 -147t-61.5 -135.5t-83 -122.5l100 -80q53 66 94.5 140t70.5 155t44.5 167.5t15.5 177.5t-15.5 177.5t-44.5 167.5t-70.5 155t-94.5 140v0z" />
    <glyph glyph-name="uniE989" unicode="microphone" 
d="M960 512q66 0 124.5 25t102 68.5t68.5 102t25 124.5v768q0 66 -25 124.5t-68.5 102t-102 68.5t-124.5 25t-124.5 -25t-102 -68.5t-68.5 -102t-25 -124.5v-768q0 -66 25 -124.5t68.5 -102t102 -68.5t124.5 -25zM1408 1024v-192q0 -93 -35 -174.5t-96 -142.5t-142.5 -96
t-174.5 -35t-174.5 35t-142.5 96t-96 142.5t-35 174.5v192h-128v-192q0 -111 39.5 -210t108.5 -175.5t162.5 -125.5t201.5 -61v-260h-256v-128h640v128h-256v260q108 11 201.5 60.5t162.5 126t108.5 175.5t39.5 210v192h-128z" />
    <glyph glyph-name="uniE98A" unicode="microphone&#x32;" 
d="M1280 1600q0 66 -25 124.5t-68.5 102t-102 68.5t-124.5 25t-124.5 -25t-102 -68.5t-68.5 -102t-25 -124.5v-688l640 640v48zM514 786q-1 11 -1.5 22.5t-0.5 23.5v192h-128v-192q0 -40 5.5 -79t15.5 -76zM1408 832q0 -93 -35 -174.5t-96 -142.5t-142.5 -96t-174.5 -35
q-50 0 -97 10.5t-89.5 30t-80 47.5t-68.5 63l91 90q44 -52 107.5 -82.5t136.5 -30.5q66 0 124.5 25t102 68.5t68.5 102t25 124.5v357l513 514l-90 90l-423 -422l-1276 -1282l91 -90l439 445q35 -38 75.5 -69t86.5 -55t96 -39.5t104 -20.5v-260h-256v-128h640v128h-256v260
q108 11 201.5 60.5t162.5 126t108.5 175.5t39.5 210v192h-128v-192z" />
    <glyph glyph-name="uniE98B" unicode="microphone&#x33;" 
d="M1792 1024v18.5t-1 19.5q-2 39 -31.5 66t-68.5 25q-40 -2 -67 -31.5t-25 -69.5q1 -7 1 -14v-14q0 -119 -45.5 -224t-123.5 -183.5t-183 -123.5t-224 -45t-224 45t-183 123.5t-123.5 183.5t-45.5 224v14t1 14q2 40 -25 69.5t-67 31.5q-39 2 -68.5 -25t-31.5 -67
q-1 -9 -1 -18.5v-18.5q0 -143 49 -270.5t135 -228t203 -168.5t253 -91v-266q0 -53 37.5 -90.5t90.5 -37.5t90.5 37.5t37.5 90.5v266q136 23 253 91t203 168.5t135 228t49 270.5v0zM1024 1920q-80 0 -149.5 -30t-122 -82.5t-82.5 -122t-30 -149.5v-512q0 -80 30 -149.5
t82.5 -122t122 -82.5t149.5 -30t149.5 30t122 82.5t82.5 122t30 149.5v512q0 80 -30 149.5t-82.5 122t-122 82.5t-149.5 30z" />
    <glyph glyph-name="uniE98C" unicode="microphone&#x34;" 
d="M1374 1694q-23 50 -58.5 91.5t-81 71.5t-99 46.5t-111.5 16.5q-80 0 -149.5 -30t-122 -82.5t-82.5 -122t-30 -149.5v-512q0 -15 1 -30t4 -29zM489 809q-20 50 -30.5 104t-10.5 111v14t1 14q2 40 -25 69.5t-67 31.5q-39 2 -68.5 -25t-31.5 -67q-1 -9 -1 -18.5v-18.5
q0 -49 6 -96t17.5 -92t28 -88t37.5 -83l144 144v0zM1691 1153q-40 -2 -67 -31.5t-25 -69.5q1 -7 1 -14v-14q0 -119 -45.5 -224t-123.5 -183.5t-183 -123.5t-224 -45q-82 0 -158 22t-142 62l142 142q36 -16 76 -25t82 -9q80 0 149.5 30t122 82.5t82.5 122t30 149.5v192
l576 576l-128 128l-1856 -1856l128 -128l458 458q34 -24 70.5 -44.5t75.5 -36.5t80 -27.5t84 -19.5v-266q0 -53 37.5 -90.5t90.5 -37.5t90.5 37.5t37.5 90.5v266q136 23 253 91t203 168.5t135 228t49 270.5v18.5t-1 19.5q-2 39 -31.5 66t-68.5 25v0z" />
    <glyph glyph-name="uniE98D" unicode="microphone&#x35;" 
d="M1792 1024v18.5t-1 19.5q-2 39 -31.5 66t-68.5 25q-40 -2 -67 -31.5t-25 -69.5q1 -7 1 -14v-14q0 -119 -45.5 -224t-123.5 -183.5t-183 -123.5t-224 -45t-224 45t-183 123.5t-123.5 183.5t-45.5 224v14t1 14q2 40 -25 69.5t-67 31.5q-39 2 -68.5 -25t-31.5 -67
q-1 -9 -1 -18.5v-18.5q0 -143 49 -270.5t135 -228t203 -168.5t253 -91v-266q0 -53 37.5 -90.5t90.5 -37.5t90.5 37.5t37.5 90.5v266q136 23 253 91t203 168.5t135 228t49 270.5v0zM1024 1728q79 0 135.5 -56.5t56.5 -135.5v-512q0 -79 -56.5 -135.5t-135.5 -56.5
t-135.5 56.5t-56.5 135.5v512q0 79 56.5 135.5t135.5 56.5zM1024 1920q-80 0 -149.5 -30t-122 -82.5t-82.5 -122t-30 -149.5v-512q0 -80 30 -149.5t82.5 -122t122 -82.5t149.5 -30t149.5 30t122 82.5t82.5 122t30 149.5v512q0 80 -30 149.5t-82.5 122t-122 82.5t-149.5 30v0
z" />
    <glyph glyph-name="uniE98E" unicode="microphone&#x36;" 
d="M512 768q0 -53 20 -99.5t55 -81.5t81.5 -55t99.5 -20h512q53 0 99.5 20t81.5 55t55 81.5t20 99.5v384h-1024v-384zM1856 1280h-256q-27 0 -45.5 -18.5t-18.5 -45.5t18.5 -45.5t45.5 -18.5h64v-384q0 -79 -30 -149t-82.5 -122.5t-122.5 -82.5t-149 -30h-512q-79 0 -149 30
t-122.5 82.5t-82.5 122.5t-30 149v384h64q27 0 45.5 18.5t18.5 45.5t-18.5 45.5t-45.5 18.5h-256q-27 0 -45.5 -18.5t-18.5 -45.5t18.5 -45.5t45.5 -18.5h64v-384q0 -106 40.5 -199t110 -162.5t162.5 -110t199 -40.5h128v-256h-192q-27 0 -45.5 -18.5t-18.5 -45.5
t18.5 -45.5t45.5 -18.5h640q27 0 45.5 18.5t18.5 45.5t-18.5 45.5t-45.5 18.5h-192v256h128q106 0 199 40.5t162.5 110t110 162.5t40.5 199v384h64q27 0 45.5 18.5t18.5 45.5t-18.5 45.5t-45.5 18.5zM1280 1920h-512q-53 0 -99.5 -20t-81.5 -55t-55 -81.5t-20 -99.5v-384
h1024v384q0 53 -20 99.5t-55 81.5t-81.5 55t-99.5 20zM704 1440q-13 0 -22.5 9.5t-9.5 22.5t9.5 22.5t22.5 9.5t22.5 -9.5t9.5 -22.5t-9.5 -22.5t-22.5 -9.5zM704 1568q-13 0 -22.5 9.5t-9.5 22.5t9.5 22.5t22.5 9.5t22.5 -9.5t9.5 -22.5t-9.5 -22.5t-22.5 -9.5zM704 1696
q-13 0 -22.5 9.5t-9.5 22.5t9.5 22.5t22.5 9.5t22.5 -9.5t9.5 -22.5t-9.5 -22.5t-22.5 -9.5zM832 1440q-13 0 -22.5 9.5t-9.5 22.5t9.5 22.5t22.5 9.5t22.5 -9.5t9.5 -22.5t-9.5 -22.5t-22.5 -9.5zM832 1568q-13 0 -22.5 9.5t-9.5 22.5t9.5 22.5t22.5 9.5t22.5 -9.5
t9.5 -22.5t-9.5 -22.5t-22.5 -9.5zM832 1696q-13 0 -22.5 9.5t-9.5 22.5t9.5 22.5t22.5 9.5t22.5 -9.5t9.5 -22.5t-9.5 -22.5t-22.5 -9.5zM960 1440q-13 0 -22.5 9.5t-9.5 22.5t9.5 22.5t22.5 9.5t22.5 -9.5t9.5 -22.5t-9.5 -22.5t-22.5 -9.5zM960 1568q-13 0 -22.5 9.5
t-9.5 22.5t9.5 22.5t22.5 9.5t22.5 -9.5t9.5 -22.5t-9.5 -22.5t-22.5 -9.5zM960 1696q-13 0 -22.5 9.5t-9.5 22.5t9.5 22.5t22.5 9.5t22.5 -9.5t9.5 -22.5t-9.5 -22.5t-22.5 -9.5zM1088 1440q-13 0 -22.5 9.5t-9.5 22.5t9.5 22.5t22.5 9.5t22.5 -9.5t9.5 -22.5t-9.5 -22.5
t-22.5 -9.5zM1088 1568q-13 0 -22.5 9.5t-9.5 22.5t9.5 22.5t22.5 9.5t22.5 -9.5t9.5 -22.5t-9.5 -22.5t-22.5 -9.5zM1088 1696q-13 0 -22.5 9.5t-9.5 22.5t9.5 22.5t22.5 9.5t22.5 -9.5t9.5 -22.5t-9.5 -22.5t-22.5 -9.5zM1216 1440q-13 0 -22.5 9.5t-9.5 22.5t9.5 22.5
t22.5 9.5t22.5 -9.5t9.5 -22.5t-9.5 -22.5t-22.5 -9.5zM1216 1568q-13 0 -22.5 9.5t-9.5 22.5t9.5 22.5t22.5 9.5t22.5 -9.5t9.5 -22.5t-9.5 -22.5t-22.5 -9.5zM1216 1696q-13 0 -22.5 9.5t-9.5 22.5t9.5 22.5t22.5 9.5t22.5 -9.5t9.5 -22.5t-9.5 -22.5t-22.5 -9.5z
M1344 1440q-13 0 -22.5 9.5t-9.5 22.5t9.5 22.5t22.5 9.5t22.5 -9.5t9.5 -22.5t-9.5 -22.5t-22.5 -9.5zM1344 1568q-13 0 -22.5 9.5t-9.5 22.5t9.5 22.5t22.5 9.5t22.5 -9.5t9.5 -22.5t-9.5 -22.5t-22.5 -9.5zM1344 1696q-13 0 -22.5 9.5t-9.5 22.5t9.5 22.5t22.5 9.5
t22.5 -9.5t9.5 -22.5t-9.5 -22.5t-22.5 -9.5z" />
    <glyph glyph-name="uniE98F" unicode="microphone&#x37;" 
d="M916 1248l-916 -1120q0 -48 22 -94t58 -82t82 -58t94 -22l1120 916q-84 22 -158.5 65t-134 102.5t-102.5 134t-65 158.5v0zM1166 1762q-33 -35 -59.5 -75t-44.5 -85t-28 -94t-10 -100q0 -106 40 -199.5t109.5 -163t163 -109.5t199.5 -40q51 0 100 10t94 28t85 44.5
t75 59.5q-138 25 -259 89t-216.5 159.5t-159.5 216.5t-89 259zM1536 1920q-69 0 -133 -17.5t-120 -49.5q12 -139 70.5 -261t151.5 -215t215 -151.5t261 -70.5q32 56 49.5 120t17.5 133q0 106 -40 199.5t-109.5 163t-163 109.5t-199.5 40zM1728 1792q27 0 45.5 -18.5
t18.5 -45.5t-18.5 -45.5t-45.5 -18.5t-45.5 18.5t-18.5 45.5t18.5 45.5t45.5 18.5zM1472 1664q-27 0 -45.5 18.5t-18.5 45.5t18.5 45.5t45.5 18.5t45.5 -18.5t18.5 -45.5t-18.5 -45.5t-45.5 -18.5zM1600 1536q-27 0 -45.5 18.5t-18.5 45.5t18.5 45.5t45.5 18.5t45.5 -18.5
t18.5 -45.5t-18.5 -45.5t-45.5 -18.5zM1728 1408q-27 0 -45.5 18.5t-18.5 45.5t18.5 45.5t45.5 18.5t45.5 -18.5t18.5 -45.5t-18.5 -45.5t-45.5 -18.5zM1856 1280q-27 0 -45.5 18.5t-18.5 45.5t18.5 45.5t45.5 18.5t45.5 -18.5t18.5 -45.5t-18.5 -45.5t-45.5 -18.5z
M1856 1536q-27 0 -45.5 18.5t-18.5 45.5t18.5 45.5t45.5 18.5t45.5 -18.5t18.5 -45.5t-18.5 -45.5t-45.5 -18.5z" />
    <glyph glyph-name="uniE990" unicode="book" 
d="M2034 1459q-39 47 -92.5 85t-118 64.5t-137.5 41t-150 14.5t-150 -14.5t-137.5 -41t-118 -64.5t-92.5 -85q-7 -9 -10.5 -19.5t-3.5 -21.5q0 11 -3.5 21.5t-10.5 19.5q-39 47 -92.5 85t-118 64.5t-137.5 41t-150 14.5t-150 -14.5t-137.5 -41t-118 -64.5t-92.5 -85
q-7 -9 -10.5 -19.5t-3.5 -21.5v-1280q0 -20 12 -36.5t31 -23.5t38.5 -1.5t32.5 21.5q29 37 71.5 66t94 49.5t110.5 31.5t122 11t122 -11t110.5 -31.5t94 -49.5t71.5 -66q9 -11 22.5 -17.5t27.5 -6.5h128q14 0 27.5 6.5t22.5 17.5q29 37 71.5 66t94 49.5t110.5 31.5t122 11
t122 -11t110.5 -31.5t94 -49.5t71.5 -66q13 -16 32.5 -21.5t38.5 1.5t31 23.5t12 36.5v1280q0 11 -3.5 21.5t-10.5 19.5v0zM896 279q-39 25 -83.5 44.5t-93.5 33t-101 20.5t-106 7t-106 -7t-101 -20.5t-93.5 -33t-83.5 -44.5v1116q31 33 72.5 59t91 44t105.5 28t115 10
t115 -10t105.5 -28t91 -44t72.5 -59v-1116v0zM1920 279q-39 25 -83.5 44.5t-93.5 33t-101 20.5t-106 7t-106 -7t-101 -20.5t-93.5 -33t-83.5 -44.5v1116q31 33 72.5 59t91 44t105.5 28t115 10t115 -10t105.5 -28t91 -44t72.5 -59v-1116v0zM1280 1280h512v-128h-512v128z
M1280 1024h512v-128h-512v128zM1280 768h384v-128h-384v128zM256 1280h512v-128h-512v128zM256 1024h512v-128h-512v128zM256 768h384v-128h-384v128z" />
    <glyph glyph-name="uniE991" unicode="book&#x32;" 
d="M2034 1459q-39 47 -92.5 85t-118 64.5t-137.5 41t-150 14.5t-150 -14.5t-137.5 -41t-118 -64.5t-92.5 -85q-7 -9 -10.5 -19.5t-3.5 -21.5q0 11 -3.5 21.5t-10.5 19.5q-39 47 -92.5 85t-118 64.5t-137.5 41t-150 14.5t-150 -14.5t-137.5 -41t-118 -64.5t-92.5 -85
q-7 -9 -10.5 -19.5t-3.5 -21.5v-1280q0 -20 12 -36.5t31 -23.5t38.5 -1.5t32.5 21.5q29 37 71.5 66t94 49.5t110.5 31.5t122 11t122 -11t110.5 -31.5t94 -49.5t71.5 -66q9 -11 22.5 -17.5t27.5 -6.5h128q14 0 27.5 6.5t22.5 17.5q29 37 71.5 66t94 49.5t110.5 31.5t122 11
t122 -11t110.5 -31.5t94 -49.5t71.5 -66q13 -16 32.5 -21.5t38.5 1.5t31 23.5t12 36.5v1280q0 11 -3.5 21.5t-10.5 19.5v0zM896 279q-39 25 -83.5 44.5t-93.5 33t-101 20.5t-106 7t-106 -7t-101 -20.5t-93.5 -33t-83.5 -44.5v1116q31 33 72.5 59t91 44t105.5 28t115 10
t115 -10t105.5 -28t91 -44t72.5 -59v-1116v0zM1920 279q-39 25 -83.5 44.5t-93.5 33t-101 20.5t-106 7t-106 -7t-101 -20.5t-93.5 -33t-83.5 -44.5v1116q31 33 72.5 59t91 44t105.5 28t115 10t115 -10t105.5 -28t91 -44t72.5 -59v-1116v0z" />
    <glyph glyph-name="uniE992" unicode="book&#x2d;play" 
d="M768 1216l640 -384l-640 -384v768zM1024 -30q-15 0 -28 6.5t-22 17.5q-28 35 -79.5 70.5t-115 63.5t-133 46t-134.5 18q-63 0 -122 -11t-110.5 -31.5t-94 -49.5t-71.5 -66q-13 -16 -32.5 -21.5t-38.5 1.5t-31 23.5t-12 36.5v1344q0 11 3.5 21.5t10.5 19.5q39 47 92.5 85
t118 64.5t137.5 41t150 14.5q70 0 142.5 -16t140 -43t126.5 -62t103 -73q44 38 103 73t126.5 62t140 43t142.5 16q77 0 150 -14.5t137.5 -41t118 -64.5t92.5 -85q7 -9 10.5 -19.5t3.5 -21.5v-1344q0 -20 -12 -36.5t-31 -23.5t-38.5 -1.5t-32.5 21.5q-29 37 -71.5 66
t-94 49.5t-110.5 31.5t-122 11q-65 0 -134.5 -18t-133 -46t-115 -63.5t-79.5 -70.5q-9 -11 -22 -17.5t-28 -6.5zM512 320q70 0 142.5 -16t140 -43t126.5 -62t103 -73q44 38 103 73t126.5 62t140 43t142.5 16q54 0 106 -7t101 -20.5t93.5 -33t83.5 -44.5v1180
q-31 33 -72.5 59t-91 44t-105.5 28t-115 10q-65 0 -134.5 -18t-133 -46t-115 -63.5t-79.5 -70.5q-9 -11 -22 -17.5t-28 -6.5t-28 6.5t-22 17.5q-28 35 -79.5 70.5t-115 63.5t-133 46t-134.5 18q-59 0 -115 -10t-105.5 -28t-91 -44t-72.5 -59v-1180q39 25 83.5 44.5t93.5 33
t101 20.5t106 7z" />
    <glyph glyph-name="uniE993" unicode="book&#x34;" 
d="M1792 1664v-1664h-1344q-80 0 -136 56t-56 136t56 136t136 56h1216v1536h-1280q-53 0 -99.5 -20t-81.5 -55t-55 -81.5t-20 -99.5v-1536q0 -53 20 -99.5t55 -81.5t81.5 -55t99.5 -20h1536v1792h-128zM448 256v0v0v0q-27 0 -45.5 -18.5t-18.5 -45.5t18.5 -45.5t45.5 -18.5
v0v0v0h1216v128h-1216v0z" />
    <glyph glyph-name="uniE994" unicode="bookmark" 
d="M1792 1664v-1664h-1344q-80 0 -136 56t-56 136t56 136t136 56h1216v1536h-1280q-53 0 -99.5 -20t-81.5 -55t-55 -81.5t-20 -99.5v-1536q0 -53 20 -99.5t55 -81.5t81.5 -55t99.5 -20h1536v1792h-128zM640 1856h640v-896l-320 320l-320 -320v896zM448 256v0v0v0
q-27 0 -45.5 -18.5t-18.5 -45.5t18.5 -45.5t45.5 -18.5v0v0v0h1216v128h-1216v0z" />
    <glyph glyph-name="uniE995" unicode="books" horiz-adv-x="2304" 
d="M448 1664h-384q-26 0 -45 -19t-19 -45v-1408q0 -26 19 -45t45 -19h384q26 0 45 19t19 45v1408q0 26 -19 45t-45 19zM384 1280h-256v128h256v-128zM1088 1664h-384q-26 0 -45 -19t-19 -45v-1408q0 -26 19 -45t45 -19h384q26 0 45 19t19 45v1408q0 26 -19 45t-45 19z
M1024 1280h-256v128h256v-128zM1530 1565l-343 -173q-23 -12 -31.5 -37t3.5 -49l576 -1143q12 -23 37 -31.5t49 3.5l343 173q23 12 31.5 37t-3.5 49l-576 1143q-12 23 -37 31.5t-49 -3.5v0zM1856 192q0 -27 -18.5 -45.5t-45.5 -18.5t-45.5 18.5t-18.5 45.5t18.5 45.5
t45.5 18.5t45.5 -18.5t18.5 -45.5z" />
    <glyph glyph-name="uniE996" unicode="archive" horiz-adv-x="2176" 
d="M512 1792h-384q-53 0 -90.5 -37.5t-37.5 -90.5v-1536q0 -53 37.5 -90.5t90.5 -37.5h384q53 0 90.5 37.5t37.5 90.5v1536q0 53 -37.5 90.5t-90.5 37.5zM384 304q0 -20 -14 -34t-34 -14h-32q-20 0 -34 14t-14 34v32q0 20 14 34t34 14h32q20 0 34 -14t14 -34v-32zM512 640
h-384v640h384v-640zM512 1408h-384v128h384v-128zM1280 1792h-384q-53 0 -90.5 -37.5t-37.5 -90.5v-1536q0 -53 37.5 -90.5t90.5 -37.5h384q53 0 90.5 37.5t37.5 90.5v1536q0 53 -37.5 90.5t-90.5 37.5zM1152 304q0 -20 -14 -34t-34 -14h-32q-20 0 -34 14t-14 34v32
q0 20 14 34t34 14h32q20 0 34 -14t14 -34v-32zM1280 640h-384v640h384v-640zM1280 1408h-384v128h384v-128zM2048 1792h-384q-53 0 -90.5 -37.5t-37.5 -90.5v-1536q0 -53 37.5 -90.5t90.5 -37.5h384q53 0 90.5 37.5t37.5 90.5v1536q0 53 -37.5 90.5t-90.5 37.5zM1920 304
q0 -20 -14 -34t-34 -14h-32q-20 0 -34 14t-14 34v32q0 20 14 34t34 14h32q20 0 34 -14t14 -34v-32zM2048 640h-384v640h384v-640zM2048 1408h-384v128h384v-128z" />
    <glyph glyph-name="uniE997" unicode="library&#x32;" 
d="M704 1600q0 66 25 124.5t68.5 102t102 68.5t124.5 25t124.5 -25t102 -68.5t68.5 -102t25 -124.5t-25 -124.5t-68.5 -102t-102 -68.5t-124.5 -25t-124.5 25t-102 68.5t-68.5 102t-25 124.5zM2020 464l-512 640q-19 24 -45.5 36t-54.5 12v0h-768q-28 0 -54.5 -12t-45.5 -36
l-512 -640q-25 -32 -27.5 -72t18.5 -75q17 -29 46.5 -45t62.5 -16q6 0 12.5 0.5t12.5 1.5l359 72v-458h1024v458l359 -72q6 -1 12.5 -1.5t12.5 -0.5q33 0 62.5 16t46.5 45q21 35 18.5 75t-27.5 72v0zM1408 617l-103 21q-52 10 -96 -19.5t-55 -81.5q-10 -52 19.5 -96
t81.5 -55l153 -30v-100l-384 -128l-384 128v100l153 30q52 11 81.5 55t19.5 96q-11 52 -55 81.5t-96 19.5l-103 -21v279l384 -128l384 128v-279z" />
    <glyph glyph-name="uniE998" unicode="bank" horiz-adv-x="2176" 
d="M2048 0v128h-128v768h128v128h-384v-128h128v-768h-384v768h128v128h-384v-128h128v-768h-384v768h128v128h-384v-128h128v-768h-384v768h128v128h-384v-128h128v-768h-128v-128h-128v-128h2176v128h-128zM1024 1920h128l1024 -640v-128h-2176v128z" />
    <glyph glyph-name="uniE999" unicode="bank&#x32;" 
d="M1920 1024h-256v-896h-256v896h-256v-896h-256v896h-256v-896h-256v896h-256v-1024h-128v-128h2048v128h-128v1024zM1088 1920h-128l-960 -640v-128h2048v128zM1024 1408q-53 0 -90.5 37.5t-37.5 90.5t37.5 90.5t90.5 37.5t90.5 -37.5t37.5 -90.5t-37.5 -90.5
t-90.5 -37.5z" />
    <glyph glyph-name="uniE99A" unicode="education" 
d="M384 745v-297q0 -48 50.5 -104t137 -104t203 -80t249.5 -32t249.5 32t203 80t137 104t50.5 104v297l-640 -320zM1024 1664l-1024 -512l1024 -512l831 415l-63 -543h128v576l128 64zM1088 1123q-38 0 -65.5 27.5t-27.5 65.5t27.5 65.5t65.5 27.5t65.5 -27.5t27.5 -65.5
t-27.5 -65.5t-65.5 -27.5z" />
    <glyph glyph-name="uniE99B" unicode="file&#x2d;text" 
d="M1728 1920h-1536q-79 0 -135.5 -56.5t-56.5 -135.5v-1664q0 -79 56.5 -135.5t135.5 -56.5h1536q79 0 135.5 56.5t56.5 135.5v1664q0 79 -56.5 135.5t-135.5 56.5zM1664 128h-1408v1536h1408v-1536zM512 1024h896v-128h-896v128zM512 768h896v-128h-896v128zM512 512h896
v-128h-896v128zM512 1280h896v-128h-896v128z" />
    <glyph glyph-name="uniE99C" unicode="file&#x32;" 
d="M1728 1920h-1536q-79 0 -135.5 -56.5t-56.5 -135.5v-1664q0 -79 56.5 -135.5t135.5 -56.5h1536q79 0 135.5 56.5t56.5 135.5v1664q0 79 -56.5 135.5t-135.5 56.5zM1664 128h-1408v1536h1408v-1536zM512 768h896v-128h-896v128zM512 512h896v-128h-896v128zM640 1344
q0 80 56 136t136 56t136 -56t56 -136t-56 -136t-136 -56t-136 56t-56 136zM960 1152h-256q-79 0 -135.5 -37.5t-56.5 -90.5v-128h640v128q0 53 -56.5 90.5t-135.5 37.5z" />
    <glyph glyph-name="uniE99D" unicode="file&#x2d;empty" 
d="M1836 1462q-34 45 -79 96.5t-96 102.5t-102.5 96t-96.5 79q-78 56 -119.5 70t-62.5 14h-992q-66 0 -113 -47t-47 -113v-1728q0 -66 47 -113t113 -47h1472q66 0 113 47t47 113v1248q0 21 -14 62.5t-70 119.5v0zM1571 1571q46 -46 82 -87.5t63 -75.5h-308v308
q34 -27 75.5 -63t87.5 -82zM1792 32q0 -13 -9.5 -22.5t-22.5 -9.5h-1472q-13 0 -22.5 9.5t-9.5 22.5v1728q0 13 9.5 22.5t22.5 9.5h155h341h341h155v-448q0 -27 18.5 -45.5t45.5 -18.5h448v-1248z" />
    <glyph glyph-name="uniE99E" unicode="file&#x2d;empty&#x32;" 
d="M1408 1408h464q-7 12 -16 25.5t-20 28.5q-34 45 -79 96.5t-96 102.5t-102.5 96t-96.5 79q-15 11 -28.5 20t-25.5 16v-464zM1280 1344v576h-992q-66 0 -113 -47t-47 -113v-1728q0 -66 47 -113t113 -47h1472q66 0 113 47t47 113v1248h-576q-27 0 -45.5 18.5t-18.5 45.5z
" />
    <glyph glyph-name="uniE99F" unicode="files&#x2d;empty" 
d="M1836 1206q-34 45 -79 96.5t-96 102.5t-102.5 96t-96.5 79q-78 56 -119.5 70t-62.5 14h-736q-66 0 -113 -47t-47 -113v-1472q0 -66 47 -113t113 -47h1216q66 0 113 47t47 113v992q0 21 -14 62.5t-70 119.5v0zM1571 1315q46 -46 82 -87.5t63 -75.5h-308v308
q34 -27 75.5 -63t87.5 -82v0zM1792 32q0 -13 -9.5 -22.5t-22.5 -9.5h-1216q-13 0 -22.5 9.5t-9.5 22.5v1472q0 13 9.5 22.5t22.5 9.5h115h253h253h115v-448q0 -27 18.5 -45.5t45.5 -18.5h448v-992zM1206 1836q-78 56 -119.5 70t-62.5 14h-736q-66 0 -113 -47t-47 -113v-1472
q0 -58 36.5 -102t91.5 -55v1629q0 13 9.5 22.5t22.5 9.5h974q-15 12 -29 23t-27 21z" />
    <glyph glyph-name="uniE9A0" unicode="files&#x2d;empty&#x32;" 
d="M1206 1836q-78 56 -119.5 70t-62.5 14h-736q-66 0 -113 -47t-47 -113v-1472q0 -58 36.5 -102t91.5 -55v1629q0 13 9.5 22.5t22.5 9.5h974q-15 12 -29 23t-27 21zM1408 1152h464q-7 12 -16 25.5t-20 28.5q-34 45 -79 96.5t-96 102.5t-102.5 96t-96.5 79q-15 11 -28.5 20
t-25.5 16v-464zM1280 1088v576h-736q-66 0 -113 -47t-47 -113v-1472q0 -66 47 -113t113 -47h1216q66 0 113 47t47 113v992h-576q-27 0 -45.5 18.5t-18.5 45.5z" />
    <glyph glyph-name="uniE9A1" unicode="file&#x2d;plus" 
d="M1836 1462q-34 45 -79 96.5t-96 102.5t-102.5 96t-96.5 79q-78 56 -119.5 70t-62.5 14h-992q-66 0 -113 -47t-47 -113v-1728q0 -66 47 -113t113 -47h800q27 0 45.5 18.5t18.5 45.5t-18.5 45.5t-45.5 18.5h-800q-13 0 -22.5 9.5t-9.5 22.5v1728q0 13 9.5 22.5t22.5 9.5
h155h341h341h155v-448q0 -27 18.5 -45.5t45.5 -18.5h448v-448q0 -27 18.5 -45.5t45.5 -18.5t45.5 18.5t18.5 45.5v448q0 21 -14 62.5t-70 119.5v0zM1408 1408v308q34 -27 75.5 -63t87.5 -82t82 -87.5t63 -75.5h-308v0zM2048 384h-256v256h-256v-256h-256v-256h256v-256h256
v256h256v256z" />
    <glyph glyph-name="uniE9A2" unicode="file&#x2d;plus&#x32;" 
d="M1408 1408h464q-7 12 -16 25.5t-20 28.5q-34 45 -79 96.5t-96 102.5t-102.5 96t-96.5 79q-15 11 -28.5 20t-25.5 16v-464zM1008 320q0 122 46.5 230t127 188.5t188.5 127t230 46.5q44 0 86.5 -6.5t83 -18.5t78 -29.5t72.5 -39.5v462h-576q-27 0 -45.5 18.5t-18.5 45.5
v576h-992q-66 0 -113 -47t-47 -113v-1728q0 -66 47 -113t113 -47h925q-47 41 -85 91t-64.5 107t-41 120t-14.5 130zM1600 768q-93 0 -174.5 -35t-142.5 -96t-96 -142.5t-35 -174.5t35 -174.5t96 -142.5t142.5 -96t174.5 -35t174.5 35t142.5 96t96 142.5t35 174.5t-35 174.5
t-96 142.5t-142.5 96t-174.5 35zM1664 256v-256h-128v256h-256v128h256v256h128v-256h256v-128h-256z" />
    <glyph glyph-name="uniE9A3" unicode="file&#x2d;minus" 
d="M1836 1462q-34 45 -79 96.5t-96 102.5t-102.5 96t-96.5 79q-78 56 -119.5 70t-62.5 14h-992q-66 0 -113 -47t-47 -113v-1728q0 -66 47 -113t113 -47h800q27 0 45.5 18.5t18.5 45.5t-18.5 45.5t-45.5 18.5h-800q-13 0 -22.5 9.5t-9.5 22.5v1728q0 13 9.5 22.5t22.5 9.5
h155h341h341h155v-448q0 -27 18.5 -45.5t45.5 -18.5h448v-448q0 -27 18.5 -45.5t45.5 -18.5t45.5 18.5t18.5 45.5v448q0 21 -14 62.5t-70 119.5v0zM1408 1408v308q34 -27 75.5 -63t87.5 -82t82 -87.5t63 -75.5h-308v0zM1280 384h768v-256h-768v256z" />
    <glyph glyph-name="uniE9A4" unicode="file&#x2d;minus&#x32;" 
d="M1408 1408h464q-7 12 -16 25.5t-20 28.5q-34 45 -79 96.5t-96 102.5t-102.5 96t-96.5 79q-15 11 -28.5 20t-25.5 16v-464zM1008 320q0 122 46.5 230t127 188.5t188.5 127t230 46.5q44 0 86.5 -6.5t83 -18.5t78 -29.5t72.5 -39.5v462h-576q-27 0 -45.5 18.5t-18.5 45.5
v576h-992q-66 0 -113 -47t-47 -113v-1728q0 -66 47 -113t113 -47h925q-47 41 -85 91t-64.5 107t-41 120t-14.5 130zM1600 768q-93 0 -174.5 -35t-142.5 -96t-96 -142.5t-35 -174.5t35 -174.5t96 -142.5t142.5 -96t174.5 -35t174.5 35t142.5 96t96 142.5t35 174.5t-35 174.5
t-96 142.5t-142.5 96t-174.5 35zM1280 256v128h640v-128h-640z" />
    <glyph glyph-name="uniE9A5" unicode="file&#x2d;download" 
d="M1708 1462q-34 45 -79 96.5t-96 102.5t-102.5 96t-96.5 79q-78 56 -119.5 70t-62.5 14h-864q-66 0 -113 -47t-47 -113v-480l64 -1408l64 1408v480q0 13 9.5 22.5t22.5 9.5h135h297h297h135v-448q0 -27 18.5 -45.5t45.5 -18.5h448l64 -1408l64 1408q0 21 -14 62.5
t-70 119.5v0zM1280 1408v308q34 -27 75.5 -63t87.5 -82t82 -87.5t63 -75.5h-308zM1152 1024h-384v-640h-320l512 -512l512 512h-320v640z" />
    <glyph glyph-name="uniE9A6" unicode="file&#x2d;download&#x32;" 
d="M1408 1408h464q-7 12 -16 25.5t-20 28.5q-34 45 -79 96.5t-96 102.5t-102.5 96t-96.5 79q-15 11 -28.5 20t-25.5 16v-464zM1344 1280q-27 0 -45.5 18.5t-18.5 45.5v576h-992q-66 0 -113 -47t-47 -113v-1728q0 -66 47 -113t113 -47h1472q66 0 113 47t47 113v1248h-576z
M1024 -64l-448 448h320v640h256v-640h320z" />
    <glyph glyph-name="uniE9A7" unicode="file&#x2d;upload" 
d="M1708 1462q-34 45 -79 96.5t-96 102.5t-102.5 96t-96.5 79q-78 56 -119.5 70t-62.5 14h-864q-66 0 -113 -47t-47 -113v-480l64 -1408l64 1408v480q0 13 9.5 22.5t22.5 9.5h135h297h297h135v-448q0 -27 18.5 -45.5t45.5 -18.5h448l64 -1408l64 1408q0 21 -14 62.5
t-70 119.5v0zM1280 1408v308q34 -27 75.5 -63t87.5 -82t82 -87.5t63 -75.5h-308zM768 -128h384v640h320l-512 512l-512 -512h320v-640z" />
    <glyph glyph-name="uniE9A8" unicode="file&#x2d;upload&#x32;" 
d="M1408 1408h464q-7 12 -16 25.5t-20 28.5q-34 45 -79 96.5t-96 102.5t-102.5 96t-96.5 79q-15 11 -28.5 20t-25.5 16v-464zM1344 1280q-27 0 -45.5 18.5t-18.5 45.5v576h-992q-66 0 -113 -47t-47 -113v-1728q0 -66 47 -113t113 -47h1472q66 0 113 47t47 113v1248h-576z
M1024 1088l448 -448h-320v-640h-256v640h-320z" />
    <glyph glyph-name="uniE9A9" unicode="file&#x2d;check" 
d="M1408 -128l-384 448l163 163l221 -222l512 507l128 -128zM1836 1462q-34 45 -79 96.5t-96 102.5t-102.5 96t-96.5 79q-78 56 -119.5 70t-62.5 14h-992q-66 0 -113 -47t-47 -113v-1728q0 -66 47 -113t113 -47h800q27 0 45.5 18.5t18.5 45.5t-18.5 45.5t-45.5 18.5h-800
q-13 0 -22.5 9.5t-9.5 22.5v1728q0 13 9.5 22.5t22.5 9.5h155h341h341h155v-448q0 -27 18.5 -45.5t45.5 -18.5h448v-320q0 -27 18.5 -45.5t45.5 -18.5t45.5 18.5t18.5 45.5v320q0 21 -14 62.5t-70 119.5v0zM1408 1408v308q34 -27 75.5 -63t87.5 -82t82 -87.5t63 -75.5h-308
v0z" />
    <glyph glyph-name="uniE9AA" unicode="file&#x2d;check&#x32;" 
d="M1408 1408h464q-7 12 -16 25.5t-20 28.5q-34 45 -79 96.5t-96 102.5t-102.5 96t-96.5 79q-15 11 -28.5 20t-25.5 16v-464zM1344 1280q-27 0 -45.5 18.5t-18.5 45.5v576h-992q-66 0 -113 -47t-47 -113v-1728q0 -66 47 -113t113 -47h1472q66 0 113 47t47 113v1248h-576z
M860 83l-411 474l118 118l293 -230l549 486l118 -118z" />
    <glyph glyph-name="uniE9AB" unicode="file&#x2d;eye" 
d="M2042 537q-23 53 -53 102.5t-67.5 93.5t-82 83t-94.5 72q-51 33 -107 58.5t-114.5 43t-119.5 26t-124 8.5t-124 -8.5t-119.5 -26t-114.5 -43t-107 -58.5q-50 -33 -94.5 -72t-82 -83t-67.5 -93.5t-53 -102.5q-5 -12 -5 -25t5 -25q23 -53 53 -102.5t67.5 -93.5t82 -83
t94.5 -72q51 -33 107 -58.5t114.5 -43t119.5 -26t124 -8.5t124 8.5t119.5 26t114.5 43t107 58.5q50 33 94.5 72t82 83t67.5 93.5t53 102.5q5 12 5 25t-5 25zM1280 640q0 -53 -37.5 -90.5t-90.5 -37.5t-90.5 37.5t-37.5 90.5t37.5 90.5t90.5 37.5t90.5 -37.5t37.5 -90.5z
M1675 243q-43 -28 -90.5 -49.5t-97 -36t-102 -22t-105.5 -7.5t-105.5 7.5t-102 22t-97 36t-90.5 49.5q-40 26 -74.5 56t-64.5 64t-55 71t-44 78q19 41 44 78t55 71t64.5 64t74.5 56l20 12l20 12q-19 -39 -29.5 -82.5t-10.5 -89.5q0 -81 30.5 -152t83.5 -123.5t124 -83.5
t151 -31q81 0 152 31t124 83.5t83.5 123.5t30.5 152q0 49 -11.5 94.5t-32.5 85.5q14 -7 28 -15.5t27 -16.5q40 -26 74.5 -56t64.5 -64t55 -71.5t44 -77.5q-19 -41 -44 -78t-55 -71t-64.5 -64t-74.5 -56v0zM1836 1462q-34 45 -79 96.5t-96 102.5t-102.5 96t-96.5 79
q-78 56 -119.5 70t-62.5 14h-992q-66 0 -113 -47t-47 -113v-1728q0 -66 47 -113t113 -47h672q27 0 45.5 18.5t18.5 45.5t-18.5 45.5t-45.5 18.5h-672q-13 0 -22.5 9.5t-9.5 22.5v1728q0 13 9.5 22.5t22.5 9.5h155h341h341h155v-448q0 -27 18.5 -45.5t45.5 -18.5h448v-320
q0 -27 18.5 -45.5t45.5 -18.5t45.5 18.5t18.5 45.5v320q0 21 -14 62.5t-70 119.5v0zM1408 1408v308q34 -27 75.5 -63t87.5 -82t82 -87.5t63 -75.5h-308v0z" />
    <glyph glyph-name="uniE9AC" unicode="file&#x2d;eye&#x32;" 
d="M1408 1408h464q-7 12 -16 25.5t-20 28.5q-34 45 -79 96.5t-96 102.5t-102.5 96t-96.5 79q-15 11 -28.5 20t-25.5 16v-464zM737 -113q-60 39 -112.5 85t-96.5 98.5t-80 111t-62 122.5q-16 38 -16 80t16 80q26 64 62 122.5t80 111t96.5 98.5t112.5 85t125 68.5t133.5 50
t140 30.5t144.5 10t144.5 -10t140 -30.5t133.5 -50t125 -68.5q26 -17 50 -35t47 -37v471h-576q-27 0 -45.5 18.5t-18.5 45.5v576h-992q-66 0 -113 -47t-47 -113v-1728q0 -66 47 -113t113 -47h473q-6 4 -12 7.5t-12 7.5zM2042 409q-23 53 -53 102.5t-67.5 93.5t-82 83
t-94.5 72q-51 33 -107 58.5t-114.5 43t-119.5 26t-124 8.5t-124 -8.5t-119.5 -26t-114.5 -43t-107 -58.5q-50 -33 -94.5 -72t-82 -83t-67.5 -93.5t-53 -102.5q-5 -12 -5 -25t5 -25q23 -53 53 -102.5t67.5 -93.5t82 -83t94.5 -72q51 -33 107 -58.5t114.5 -43t119.5 -26
t124 -8.5t124 8.5t119.5 26t114.5 43t107 58.5q50 33 94.5 72t82 83t67.5 93.5t53 102.5q5 12 5 25t-5 25zM1280 512q0 -53 -37.5 -90.5t-90.5 -37.5t-90.5 37.5t-37.5 90.5t37.5 90.5t90.5 37.5t90.5 -37.5t37.5 -90.5zM1675 115q-43 -28 -90.5 -49.5t-97 -36t-102 -22
t-105.5 -7.5t-105.5 7.5t-102 22t-97 36t-90.5 49.5q-40 26 -74.5 56t-64.5 64t-55 71t-44 78q19 41 44 78t55 71t64.5 64t74.5 56l20 12l20 12q-19 -39 -29.5 -82.5t-10.5 -89.5q0 -81 30.5 -152t83.5 -123.5t124 -83.5t151 -31q81 0 152 31t124 83.5t83.5 123.5t30.5 152
q0 49 -11.5 94.5t-32.5 85.5q14 -7 28 -15.5t27 -16.5q40 -26 74.5 -56t64.5 -64t55 -71.5t44 -77.5q-19 -41 -44 -78t-55 -71t-64.5 -64t-74.5 -56v0v0z" />
    <glyph glyph-name="uniE9AD" unicode="file&#x2d;text&#x32;" 
d="M1836 1462q-34 45 -79 96.5t-96 102.5t-102.5 96t-96.5 79q-78 56 -119.5 70t-62.5 14h-992q-66 0 -113 -47t-47 -113v-1728q0 -66 47 -113t113 -47h1472q66 0 113 47t47 113v1248q0 21 -14 62.5t-70 119.5v0zM1571 1571q46 -46 82 -87.5t63 -75.5h-308v308
q34 -27 75.5 -63t87.5 -82zM1792 32q0 -13 -9.5 -22.5t-22.5 -9.5h-1472q-13 0 -22.5 9.5t-9.5 22.5v1728q0 13 9.5 22.5t22.5 9.5h155h341h341h155v-448q0 -27 18.5 -45.5t45.5 -18.5h448v-1248zM1472 256h-896q-27 0 -45.5 18.5t-18.5 45.5t18.5 45.5t45.5 18.5h896
q27 0 45.5 -18.5t18.5 -45.5t-18.5 -45.5t-45.5 -18.5zM1472 512h-896q-27 0 -45.5 18.5t-18.5 45.5t18.5 45.5t45.5 18.5h896q27 0 45.5 -18.5t18.5 -45.5t-18.5 -45.5t-45.5 -18.5zM1472 768h-896q-27 0 -45.5 18.5t-18.5 45.5t18.5 45.5t45.5 18.5h896q27 0 45.5 -18.5
t18.5 -45.5t-18.5 -45.5t-45.5 -18.5z" />
    <glyph glyph-name="uniE9AE" unicode="file&#x2d;text&#x33;" 
d="M1408 1408h464q-7 12 -16 25.5t-20 28.5q-34 45 -79 96.5t-96 102.5t-102.5 96t-96.5 79q-15 11 -28.5 20t-25.5 16v-464zM1344 1280q-27 0 -45.5 18.5t-18.5 45.5v576h-992q-66 0 -113 -47t-47 -113v-1728q0 -66 47 -113t113 -47h1472q66 0 113 47t47 113v1248h-576z
M1472 256h-896q-27 0 -45.5 18.5t-18.5 45.5t18.5 45.5t45.5 18.5h896q27 0 45.5 -18.5t18.5 -45.5t-18.5 -45.5t-45.5 -18.5zM1472 512h-896q-27 0 -45.5 18.5t-18.5 45.5t18.5 45.5t45.5 18.5h896q27 0 45.5 -18.5t18.5 -45.5t-18.5 -45.5t-45.5 -18.5zM1472 768h-896
q-27 0 -45.5 18.5t-18.5 45.5t18.5 45.5t45.5 18.5h896q27 0 45.5 -18.5t18.5 -45.5t-18.5 -45.5t-45.5 -18.5z" />
    <glyph glyph-name="uniE9AF" unicode="file&#x2d;picture" 
d="M1664 128h-1280v256l384 640l526 -640l370 256v-512zM1664 960q0 -80 -56 -136t-136 -56t-136 56t-56 136t56 136t136 56t136 -56t56 -136zM1836 1462q-34 45 -79 96.5t-96 102.5t-102.5 96t-96.5 79q-78 56 -119.5 70t-62.5 14h-992q-66 0 -113 -47t-47 -113v-1728
q0 -66 47 -113t113 -47h1472q66 0 113 47t47 113v1248q0 21 -14 62.5t-70 119.5v0zM1571 1571q46 -46 82 -87.5t63 -75.5h-308v308q34 -27 75.5 -63t87.5 -82zM1792 32q0 -13 -9.5 -22.5t-22.5 -9.5h-1472q-13 0 -22.5 9.5t-9.5 22.5v1728q0 13 9.5 22.5t22.5 9.5h155h341
h341h155v-448q0 -27 18.5 -45.5t45.5 -18.5h448v-1248z" />
    <glyph glyph-name="uniE9B0" unicode="file&#x2d;picture&#x32;" 
d="M1408 1408h464q-7 12 -16 25.5t-20 28.5q-34 45 -79 96.5t-96 102.5t-102.5 96t-96.5 79q-15 11 -28.5 20t-25.5 16v-464zM1344 1280q-27 0 -45.5 18.5t-18.5 45.5v576h-992q-66 0 -113 -47t-47 -113v-1728q0 -66 47 -113t113 -47h1472q66 0 113 47t47 113v1248h-576z
M1664 128h-1280v256l384 640l526 -640l370 256v-512zM1472 768q-80 0 -136 56t-56 136t56 136t136 56t136 -56t56 -136t-56 -136t-136 -56z" />
    <glyph glyph-name="uniE9B1" unicode="file&#x2d;music" 
d="M1836 1462q-34 45 -79 96.5t-96 102.5t-102.5 96t-96.5 79q-78 56 -119.5 70t-62.5 14h-992q-66 0 -113 -47t-47 -113v-1728q0 -66 47 -113t113 -47h1472q66 0 113 47t47 113v1248q0 21 -14 62.5t-70 119.5v0v0zM1571 1571q46 -46 82 -87.5t63 -75.5h-308v308
q34 -27 75.5 -63t87.5 -82v0zM1792 32q0 -13 -9.5 -22.5t-22.5 -9.5h-1472q-13 0 -22.5 9.5t-9.5 22.5v1728q0 13 9.5 22.5t22.5 9.5h155h341h341h155v-448q0 -27 18.5 -45.5t45.5 -18.5h448v-1248zM1513 1137q-12 10 -25.5 13.5t-28.5 0.5l-640 -128q-22 -5 -36.5 -22.5
t-14.5 -40.5v-474q-28 13 -60.5 19.5t-67.5 6.5q-53 0 -99.5 -15t-81.5 -41t-55 -61t-20 -75t20 -75t55 -61t81.5 -41t99.5 -15t99.5 15t81.5 41t55 61t20 75v460l512 102v-268q-28 13 -60.5 19.5t-67.5 6.5q-53 0 -99.5 -15t-81.5 -41t-55 -61t-20 -75t20 -75t55 -61
t81.5 -41t99.5 -15t99.5 15t81.5 41t55 61t20 75v640q0 14 -6 27t-17 22v0z" />
    <glyph glyph-name="uniE9B2" unicode="file&#x2d;music&#x32;" 
d="M1408 1408h464q-7 12 -16 25.5t-20 28.5q-34 45 -79 96.5t-96 102.5t-102.5 96t-96.5 79q-15 11 -28.5 20t-25.5 16v-464zM1344 1280q-27 0 -45.5 18.5t-18.5 45.5v576h-992q-66 0 -113 -47t-47 -113v-1728q0 -66 47 -113t113 -47h1472q66 0 113 47t47 113v1248h-576z
M1536 320q0 -40 -20 -75t-55 -61t-81.5 -41t-99.5 -15t-99.5 15t-81.5 41t-55 61t-20 75t20 75t55 61t81.5 41t99.5 15q35 0 67.5 -6.5t60.5 -19.5v268l-512 -102v-460q0 -40 -20 -75t-55 -61t-81.5 -41t-99.5 -15t-99.5 15t-81.5 41t-55 61t-20 75t20 75t55 61t81.5 41
t99.5 15q35 0 67.5 -6.5t60.5 -19.5v474q0 23 14.5 40.5t36.5 22.5l640 128q15 3 28.5 -0.5t25.5 -13.5q11 -9 17 -22t6 -27v-640v0z" />
    <glyph glyph-name="uniE9B3" unicode="file&#x2d;play" 
d="M768 1152l640 -448l-640 -448v896zM1836 1462q-34 45 -79 96.5t-96 102.5t-102.5 96t-96.5 79q-78 56 -119.5 70t-62.5 14h-992q-66 0 -113 -47t-47 -113v-1728q0 -66 47 -113t113 -47h1472q66 0 113 47t47 113v1248q0 21 -14 62.5t-70 119.5v0zM1571 1571
q46 -46 82 -87.5t63 -75.5h-308v308q34 -27 75.5 -63t87.5 -82zM1792 32q0 -13 -9.5 -22.5t-22.5 -9.5h-1472q-13 0 -22.5 9.5t-9.5 22.5v1728q0 13 9.5 22.5t22.5 9.5h155h341h341h155v-448q0 -27 18.5 -45.5t45.5 -18.5h448v-1248z" />
    <glyph glyph-name="uniE9B4" unicode="file&#x2d;play&#x32;" 
d="M1408 1408h464q-7 12 -16 25.5t-20 28.5q-34 45 -79 96.5t-96 102.5t-102.5 96t-96.5 79q-15 11 -28.5 20t-25.5 16v-464zM1344 1280q-27 0 -45.5 18.5t-18.5 45.5v576h-992q-66 0 -113 -47t-47 -113v-1728q0 -66 47 -113t113 -47h1472q66 0 113 47t47 113v1248h-576z
M768 256v896l640 -448z" />
    <glyph glyph-name="uniE9B5" unicode="file&#x2d;video" 
d="M1836 1462q-34 45 -79 96.5t-96 102.5t-102.5 96t-96.5 79q-78 56 -119.5 70t-62.5 14h-992q-66 0 -113 -47t-47 -113v-1728q0 -66 47 -113t113 -47h1472q66 0 113 47t47 113v1248q0 21 -14 62.5t-70 119.5v0v0v0zM1571 1571q46 -46 82 -87.5t63 -75.5h-308v308
q34 -27 75.5 -63t87.5 -82v0v0zM1792 32q0 -13 -9.5 -22.5t-22.5 -9.5h-1472q-13 0 -22.5 9.5t-9.5 22.5v1728q0 13 9.5 22.5t22.5 9.5h155h341h341h155v-448q0 -27 18.5 -45.5t45.5 -18.5h448v-1248zM512 896h640v-640h-640v640zM1152 640l384 256v-640l-384 256v128z" />
    <glyph glyph-name="uniE9B6" unicode="file&#x2d;video&#x32;" 
d="M1408 1408h464q-7 12 -16 25.5t-20 28.5q-34 45 -79 96.5t-96 102.5t-102.5 96t-96.5 79q-15 11 -28.5 20t-25.5 16v-464zM1344 1280q-27 0 -45.5 18.5t-18.5 45.5v576h-992q-66 0 -113 -47t-47 -113v-1728q0 -66 47 -113t113 -47h1472q66 0 113 47t47 113v1248h-576z
M1536 128l-384 256v-256h-640v640h640v-256l384 256v-640z" />
    <glyph glyph-name="uniE9B7" unicode="copy" 
d="M1728 1664h-128v-128h64v-1024h-512v-512h-768v1536h64v128h-128q-26 0 -45 -19t-19 -45v-1664q0 -26 19 -45t45 -19h1008l464 464v1264q0 26 -19 45t-45 19zM1280 0v384h384zM1536 1664h-256v128q0 53 -37.5 90.5t-90.5 37.5h-256q-53 0 -90.5 -37.5t-37.5 -90.5v-128
h-256v-256h1024v256zM1152 1664h-256v128v0v0h256v0v0v-128z" />
    <glyph glyph-name="uniE9B8" unicode="copy&#x32;" 
d="M1728 1664q26 0 45 -19t19 -45v-1216l-512 -512h-960q-26 0 -45 19t-19 45v1664q0 26 19 45t45 19h128v-128h-64v-1536h768v512h512v1024h-64v128h128zM1536 1664h-256v128q0 53 -37.5 90.5t-90.5 37.5h-256q-53 0 -90.5 -37.5t-37.5 -90.5v-128h-256v-256h1024v256z
M1152 1664h-256v128v0v0h256v0v0v-128z" />
    <glyph glyph-name="uniE9B9" unicode="file&#x2d;zip" 
d="M1836 1462q-34 45 -79 96.5t-96 102.5t-102.5 96t-96.5 79q-78 56 -119.5 70t-62.5 14h-992q-66 0 -113 -47t-47 -113v-1728q0 -66 47 -113t113 -47h1472q66 0 113 47t47 113v1248q0 21 -14 62.5t-70 119.5v0v0v0zM1571 1571q46 -46 82 -87.5t63 -75.5h-308v308
q34 -27 75.5 -63t87.5 -82v0v0zM1792 32q0 -13 -9.5 -22.5t-22.5 -9.5h-1472q-13 0 -22.5 9.5t-9.5 22.5v1728q0 13 9.5 22.5t22.5 9.5h155h341h341h155v-448q0 -27 18.5 -45.5t45.5 -18.5h448v-1248zM512 1792h256v-128h-256v128zM768 1664h256v-128h-256v128zM512 1536
h256v-128h-256v128zM768 1408h256v-128h-256v128zM512 1280h256v-128h-256v128zM768 1152h256v-128h-256v128zM512 1024h256v-128h-256v128zM768 896h256v-128h-256v128zM512 224q0 -40 28 -68t68 -28h320q40 0 68 28t28 68v320q0 40 -28 68t-68 28h-160v128h-256v-544z
M896 384v-128h-256v128h256z" />
    <glyph glyph-name="uniE9BA" unicode="file&#x2d;zip&#x32;" 
d="M1408 1408h464q-7 12 -16 25.5t-20 28.5q-34 45 -79 96.5t-96 102.5t-102.5 96t-96.5 79q-15 11 -28.5 20t-25.5 16v-464zM1344 1280q-27 0 -45.5 18.5t-18.5 45.5v576h-992q-66 0 -113 -47t-47 -113v-1728q0 -66 47 -113t113 -47h1472q66 0 113 47t47 113v1248h-576z
M896 1536h-256v-128h256v-128h-256v-128h256v-128h-256v-128h256v-128h-256v-128h160q40 0 68 -28t28 -68v-320q0 -40 -28 -68t-68 -28h-320q-40 0 -68 28t-28 68v544h256v128h-256v128h256v128h-256v128h256v128h-256v128h256v128h-256v128h256v-128h256v-128zM512 384h256
v-128h-256v128z" />
    <glyph glyph-name="uniE9BB" unicode="file&#x2d;xml" 
d="M960 768l-128 128l-384 -384l384 -384l128 128l-256 256zM1088 256l128 -128l384 384l-384 384l-128 -128l256 -256zM1836 1462q-34 45 -79 96.5t-96 102.5t-102.5 96t-96.5 79q-78 56 -119.5 70t-62.5 14h-992q-66 0 -113 -47t-47 -113v-1728q0 -66 47 -113t113 -47
h1472q66 0 113 47t47 113v1248q0 21 -14 62.5t-70 119.5v0v0zM1571 1571q46 -46 82 -87.5t63 -75.5h-308v308q34 -27 75.5 -63t87.5 -82v0zM1792 32q0 -13 -9.5 -22.5t-22.5 -9.5h-1472q-13 0 -22.5 9.5t-9.5 22.5v1728q0 13 9.5 22.5t22.5 9.5h155h341h341h155v-448
q0 -27 18.5 -45.5t45.5 -18.5h448v-1248z" />
    <glyph glyph-name="uniE9BC" unicode="file&#x2d;xml&#x32;" 
d="M1408 1408h464q-7 12 -16 25.5t-20 28.5q-34 45 -79 96.5t-96 102.5t-102.5 96t-96.5 79q-15 11 -28.5 20t-25.5 16v-464zM1344 1280q-27 0 -45.5 18.5t-18.5 45.5v576h-992q-66 0 -113 -47t-47 -113v-1728q0 -66 47 -113t113 -47h1472q66 0 113 47t47 113v1248h-576z
M960 256l-128 -128l-384 384l384 384l128 -128l-256 -256zM1216 128l-128 128l256 256l-256 256l128 128l384 -384z" />
    <glyph glyph-name="uniE9BD" unicode="file&#x2d;css" 
d="M1836 1462q-34 45 -79 96.5t-96 102.5t-102.5 96t-96.5 79q-78 56 -119.5 70t-62.5 14h-992q-66 0 -113 -47t-47 -113v-1728q0 -66 47 -113t113 -47h1472q66 0 113 47t47 113v1248q0 21 -14 62.5t-70 119.5v0v0zM1571 1571q46 -46 82 -87.5t63 -75.5h-308v308
q34 -27 75.5 -63t87.5 -82v0zM1792 32q0 -13 -9.5 -22.5t-22.5 -9.5h-1472q-13 0 -22.5 9.5t-9.5 22.5v1728q0 13 9.5 22.5t22.5 9.5h155h341h341h155v-448q0 -27 18.5 -45.5t45.5 -18.5h448v-1248zM832 256q-26 0 -45 19t-19 45v160q0 27 -8.5 51.5t-23.5 44.5
q15 20 23.5 44.5t8.5 51.5v160q0 26 19 45t45 19q27 0 45.5 18.5t18.5 45.5t-18.5 45.5t-45.5 18.5q-79 0 -135.5 -56.5t-56.5 -135.5v-160q0 -13 -9.5 -22.5t-22.5 -9.5h-32q-27 0 -45.5 -18.5t-18.5 -45.5t18.5 -45.5t45.5 -18.5h32q13 0 22.5 -9.5t9.5 -22.5v-160
q0 -79 56.5 -135.5t135.5 -56.5q27 0 45.5 18.5t18.5 45.5t-18.5 45.5t-45.5 18.5zM1216 256q26 0 45 19t19 45v160q0 27 8.5 51.5t23.5 44.5q-15 20 -23.5 44.5t-8.5 51.5v160q0 26 -19 45t-45 19q-27 0 -45.5 18.5t-18.5 45.5t18.5 45.5t45.5 18.5q79 0 135.5 -56.5
t56.5 -135.5v-160q0 -13 9.5 -22.5t22.5 -9.5h32q27 0 45.5 -18.5t18.5 -45.5t-18.5 -45.5t-45.5 -18.5h-32q-13 0 -22.5 -9.5t-9.5 -22.5v-160q0 -79 -56.5 -135.5t-135.5 -56.5q-27 0 -45.5 18.5t-18.5 45.5t18.5 45.5t45.5 18.5z" />
    <glyph glyph-name="uniE9BE" unicode="file&#x2d;css&#x32;" 
d="M1408 1408h464q-7 12 -16 25.5t-20 28.5q-34 45 -79 96.5t-96 102.5t-102.5 96t-96.5 79q-15 11 -28.5 20t-25.5 16v-464zM1344 1280q-27 0 -45.5 18.5t-18.5 45.5v576h-992q-66 0 -113 -47t-47 -113v-1728q0 -66 47 -113t113 -47h1472q66 0 113 47t47 113v1248h-576z
M768 480v-160q0 -26 19 -45t45 -19q27 0 45.5 -18.5t18.5 -45.5t-18.5 -45.5t-45.5 -18.5q-79 0 -135.5 56.5t-56.5 135.5v160q0 13 -9.5 22.5t-22.5 9.5h-32q-27 0 -45.5 18.5t-18.5 45.5t18.5 45.5t45.5 18.5h32q13 0 22.5 9.5t9.5 22.5v160q0 79 56.5 135.5t135.5 56.5
q27 0 45.5 -18.5t18.5 -45.5t-18.5 -45.5t-45.5 -18.5q-26 0 -45 -19t-19 -45v-160q0 -27 -8.5 -51.5t-23.5 -44.5q15 -20 23.5 -44.5t8.5 -51.5zM1472 512h-32q-13 0 -22.5 -9.5t-9.5 -22.5v-160q0 -79 -56.5 -135.5t-135.5 -56.5q-27 0 -45.5 18.5t-18.5 45.5t18.5 45.5
t45.5 18.5q26 0 45 19t19 45v160q0 27 8.5 51.5t23.5 44.5q-15 20 -23.5 44.5t-8.5 51.5v160q0 26 -19 45t-45 19q-27 0 -45.5 18.5t-18.5 45.5t18.5 45.5t45.5 18.5q79 0 135.5 -56.5t56.5 -135.5v-160q0 -13 9.5 -22.5t22.5 -9.5h32q27 0 45.5 -18.5t18.5 -45.5
t-18.5 -45.5t-45.5 -18.5z" />
    <glyph glyph-name="uniE9BF" unicode="file&#x2d;presentation" 
d="M384 896h384v-128h-384v128zM384 640h384v-128h-384v128zM384 384h384v-128h-384v128zM1152 512h378q-12 -55 -40.5 -101.5t-70 -81t-93.5 -54t-110 -19.5q-66 0 -124.5 25t-102 68.5t-68.5 102t-25 124.5q0 58 19.5 110t54 93.5t81 70t101.5 40.5v-378zM1344 1024
q66 0 124.5 -25t102 -68.5t68.5 -102t25 -124.5q0 -16 -1.5 -32t-4.5 -32h-378v378q16 3 32 4.5t32 1.5zM1836 1462q-34 45 -79 96.5t-96 102.5t-102.5 96t-96.5 79q-78 56 -119.5 70t-62.5 14h-992q-66 0 -113 -47t-47 -113v-1728q0 -66 47 -113t113 -47h1472q66 0 113 47
t47 113v1248q0 21 -14 62.5t-70 119.5v0v0zM1571 1571q46 -46 82 -87.5t63 -75.5h-308v308q34 -27 75.5 -63t87.5 -82v0zM1792 32q0 -13 -9.5 -22.5t-22.5 -9.5h-1472q-13 0 -22.5 9.5t-9.5 22.5v1728q0 13 9.5 22.5t22.5 9.5h155h341h341h155v-448q0 -27 18.5 -45.5
t45.5 -18.5h448v-1248z" />
    <glyph glyph-name="uniE9C0" unicode="file&#x2d;presentation&#x32;" 
d="M1408 1408h464q-7 12 -16 25.5t-20 28.5q-34 45 -79 96.5t-96 102.5t-102.5 96t-96.5 79q-15 11 -28.5 20t-25.5 16v-464zM1344 1280q-27 0 -45.5 18.5t-18.5 45.5v576h-992q-66 0 -113 -47t-47 -113v-1728q0 -66 47 -113t113 -47h1472q66 0 113 47t47 113v1248h-576z
M768 128h-384v128h384v-128zM768 384h-384v128h384v-128zM768 640h-384v128h384v-128zM1216 128q-66 0 -124.5 25t-102 68.5t-68.5 102t-25 124.5q0 58 19.5 110t54 93.5t81 70t101.5 40.5v-378h378q-12 -55 -40.5 -101.5t-70 -81t-93.5 -54t-110 -19.5zM1658 512h-378v378
q16 3 32 4.5t32 1.5q66 0 124.5 -25t102 -68.5t68.5 -102t25 -124.5q0 -16 -1.5 -32t-4.5 -32z" />
    <glyph glyph-name="uniE9C1" unicode="file&#x2d;stats" 
d="M1836 1462q-34 45 -79 96.5t-96 102.5t-102.5 96t-96.5 79q-78 56 -119.5 70t-62.5 14h-992q-66 0 -113 -47t-47 -113v-1728q0 -66 47 -113t113 -47h1472q66 0 113 47t47 113v1248q0 21 -14 62.5t-70 119.5v0v0v0zM1571 1571q46 -46 82 -87.5t63 -75.5h-308v308
q34 -27 75.5 -63t87.5 -82v0v0zM1792 32q0 -13 -9.5 -22.5t-22.5 -9.5h-1472q-13 0 -22.5 9.5t-9.5 22.5v1728q0 13 9.5 22.5t22.5 9.5h155h341h341h155v-448q0 -27 18.5 -45.5t45.5 -18.5h448v-1248zM512 1280h256v-1152h-256v1152zM896 768h256v-640h-256v640zM1280 512
h256v-384h-256v384z" />
    <glyph glyph-name="uniE9C2" unicode="file&#x2d;stats&#x32;" 
d="M1408 1408h464q-7 12 -16 25.5t-20 28.5q-34 45 -79 96.5t-96 102.5t-102.5 96t-96.5 79q-15 11 -28.5 20t-25.5 16v-464zM1344 1280q-27 0 -45.5 18.5t-18.5 45.5v576h-992q-66 0 -113 -47t-47 -113v-1728q0 -66 47 -113t113 -47h1472q66 0 113 47t47 113v1248h-576z
M768 128h-256v1152h256v-1152zM1152 128h-256v640h256v-640zM1536 128h-256v384h256v-384z" />
    <glyph glyph-name="uniE9C3" unicode="file&#x2d;locked" 
d="M1836 1462q-34 45 -79 96.5t-96 102.5t-102.5 96t-96.5 79q-78 56 -119.5 70t-62.5 14h-992q-66 0 -113 -47t-47 -113v-1728q0 -66 47 -113t113 -47h1472q66 0 113 47t47 113v1248q0 21 -14 62.5t-70 119.5v0v0v0zM1571 1571q46 -46 82 -87.5t63 -75.5h-308v308
q34 -27 75.5 -63t87.5 -82v0v0zM1792 32q0 -13 -9.5 -22.5t-22.5 -9.5h-1472q-13 0 -22.5 9.5t-9.5 22.5v1728q0 13 9.5 22.5t22.5 9.5h155h341h341h155v-448q0 -27 18.5 -45.5t45.5 -18.5h448v-1248zM1344 768h-64v320q0 27 -18.5 45.5t-45.5 18.5h-384q-27 0 -45.5 -18.5
t-18.5 -45.5v-320h-64q-26 0 -45 -19t-19 -45v-512q0 -26 19 -45t45 -19h640q26 0 45 19t19 45v512q0 26 -19 45t-45 19zM896 1024h256v-256h-256v256z" />
    <glyph glyph-name="uniE9C4" unicode="file&#x2d;locked&#x32;" 
d="M1408 1408h464q-7 12 -16 25.5t-20 28.5q-34 45 -79 96.5t-96 102.5t-102.5 96t-96.5 79q-15 11 -28.5 20t-25.5 16v-464zM896 1024h256v-256h-256v256zM1344 1280q-27 0 -45.5 18.5t-18.5 45.5v576h-992q-66 0 -113 -47t-47 -113v-1728q0 -66 47 -113t113 -47h1472
q66 0 113 47t47 113v1248h-576zM1408 192q0 -26 -19 -45t-45 -19h-640q-26 0 -45 19t-19 45v512q0 26 19 45t45 19h64v320q0 27 18.5 45.5t45.5 18.5h384q27 0 45.5 -18.5t18.5 -45.5v-320h64q26 0 45 -19t19 -45v-512z" />
    <glyph glyph-name="uniE9C5" unicode="file&#x2d;spreadsheet" 
d="M1836 1462q-34 45 -79 96.5t-96 102.5t-102.5 96t-96.5 79q-78 56 -119.5 70t-62.5 14h-992q-66 0 -113 -47t-47 -113v-1728q0 -66 47 -113t113 -47h1472q66 0 113 47t47 113v1248q0 21 -14 62.5t-70 119.5v0v0v0zM1571 1571q46 -46 82 -87.5t63 -75.5h-308v308
q34 -27 75.5 -63t87.5 -82v0v0zM1792 32q0 -13 -9.5 -22.5t-22.5 -9.5h-1472q-13 0 -22.5 9.5t-9.5 22.5v1728q0 13 9.5 22.5t22.5 9.5h155h341h341h155v-448q0 -27 18.5 -45.5t45.5 -18.5h448v-1248zM384 1024v-896h1280v896h-1280zM768 256h-256v256h256v-256zM768 640
h-256v256h256v-256zM1152 256h-256v256h256v-256zM1152 640h-256v256h256v-256zM1536 256h-256v256h256v-256zM1536 640h-256v256h256v-256z" />
    <glyph glyph-name="uniE9C6" unicode="file&#x2d;spreadsheet&#x32;" 
d="M1408 1408h464q-7 12 -16 25.5t-20 28.5q-34 45 -79 96.5t-96 102.5t-102.5 96t-96.5 79q-15 11 -28.5 20t-25.5 16v-464zM896 512h256v-256h-256v256zM1280 512h256v-256h-256v256zM1280 896h256v-256h-256v256zM896 896h256v-256h-256v256zM1344 1280q-27 0 -45.5 18.5
t-18.5 45.5v576h-992q-66 0 -113 -47t-47 -113v-1728q0 -66 47 -113t113 -47h1472q66 0 113 47t47 113v1248h-576zM1664 128h-1280v896h1280v-896zM512 896h256v-256h-256v256zM512 512h256v-256h-256v256z" />
    <glyph glyph-name="uniE9C7" unicode="copy&#x33;" 
d="M1280 1408v512h-896l-384 -384v-1152h768v-512h1280v1536h-768zM384 1739v-203h-203zM128 512v896h384v384h640v-384l-384 -384v-512h-640zM1152 1227v-203h-203zM1920 0h-1024v896h384v384h640v-1280z" />
    <glyph glyph-name="uniE9C8" unicode="copy&#x34;" 
d="M1664 1408h-384v128l-384 384h-896v-1536h768v-512h1280v1152zM1664 1227l203 -203h-203v203zM896 1739l203 -203h-203v203zM128 1792h640v-384h384v-896h-1024v1280zM1920 0h-1024v384h384v896h256v-384h384v-896z" />
    <glyph glyph-name="uniE9C9" unicode="clipboard&#x2d;file" 
d="M1408 1664h-256v128q0 53 -37.5 90.5t-90.5 37.5h-256q-53 0 -90.5 -37.5t-37.5 -90.5v-128h-256v-256h1024v256zM1024 1664h-256v128v0v0h256v0v0v-128v0zM1664 1280v320q0 26 -19 45t-45 19h-128v-128h64v-256h-768v-896h-512v1152h64v128h-128q-26 0 -45 -19t-19 -45
v-1280q0 -26 19 -45t45 -19h576v-384h896l384 384v1024h-384zM1664 53v203h203zM1920 384h-384v-384h-640v1152h1024v-768z" />
    <glyph glyph-name="uniE9CA" unicode="clipboard&#x2d;file&#x32;" 
d="M1664 1280v320q0 26 -19 45t-45 19h-448v128q0 53 -37.5 90.5t-90.5 37.5h-256q-53 0 -90.5 -37.5t-37.5 -90.5v-128h-448q-26 0 -45 -19t-19 -45v-1280q0 -26 19 -45t45 -19h576v-384h896l384 384v1024h-384zM768 1792v0v0h256v0v0v-128h-256v128v0zM384 1408v128h1024
v-128h-1024zM1664 53v203h203zM1920 384h-384v-384h-640v1152h1024v-768z" />
    <glyph glyph-name="uniE9CB" unicode="clipboard&#x2d;file&#x33;" 
d="M1024 896v-256h64l64 128h128v-512h-96v-128h448v128h-96v512h128l64 -128h64v256h-768zM1664 1280v320q0 26 -19 45t-45 19h-448v128q0 53 -37.5 90.5t-90.5 37.5h-256q-53 0 -90.5 -37.5t-37.5 -90.5v-128h-448q-26 0 -45 -19t-19 -45v-1280q0 -26 19 -45t45 -19h576
v-384h1280v1408h-384zM768 1792v0v0h256v0v0v-128h-256v128v0zM384 1408v128h1024v-128h-1024zM1920 0h-1024v1152h1024v-1152z" />
    <glyph glyph-name="uniE9CC" unicode="clipboard&#x2d;file&#x34;" 
d="M1408 1664h-256v128q0 53 -37.5 90.5t-90.5 37.5h-256q-53 0 -90.5 -37.5t-37.5 -90.5v-128h-256v-256h1024v256zM1024 1664h-256v128v0v0h256v0v0v-128v0zM1664 1280v320q0 26 -19 45t-45 19h-128v-128h64v-256h-384l-384 -384v-512h-512v1152h64v128h-128
q-26 0 -45 -19t-19 -45v-1280q0 -26 19 -45t45 -19h576v-384h1280v1408h-384zM1152 1099v-203h-203zM1920 0h-1024v768h384v384h640v-1152z" />
    <glyph glyph-name="uniE9CD" unicode="files&#x33;" 
d="M1760 1408h-96v96q0 66 -47 113t-113 47h-96v96q0 66 -47 113t-113 47h-960q-66 0 -113 -47t-47 -113v-1216q0 -66 47 -113t113 -47h96v-96q0 -66 47 -113t113 -47h96v-96q0 -66 47 -113t113 -47h960q66 0 113 47t47 113v1216q0 66 -47 113t-113 47zM288 512
q-13 0 -22.5 9.5t-9.5 22.5v1216q0 13 9.5 22.5t22.5 9.5h960q13 0 22.5 -9.5t9.5 -22.5v-96h-736q-66 0 -113 -47t-47 -113v-992h-96v0zM544 256q-13 0 -22.5 9.5t-9.5 22.5v1216q0 13 9.5 22.5t22.5 9.5h960q13 0 22.5 -9.5t9.5 -22.5v-96h-736q-66 0 -113 -47t-47 -113
v-992h-96zM1792 32q0 -13 -9.5 -22.5t-22.5 -9.5h-960q-13 0 -22.5 9.5t-9.5 22.5v1216q0 13 9.5 22.5t22.5 9.5h960q13 0 22.5 -9.5t9.5 -22.5v-1216z" />
    <glyph glyph-name="uniE9CE" unicode="layers" 
d="M2048 1280l-1024 512l-1024 -512l1024 -512zM1024 1622l684 -342l-684 -342l-684 342zM1843 999l205 -103l-1024 -512l-1024 512l205 103l819 -410zM1843 615l205 -103l-1024 -512l-1024 512l205 103l819 -410z" />
    <glyph glyph-name="uniE9CF" unicode="layers&#x32;" 
d="M1024 768l-1024 512l1024 512l1024 -512zM1843 999l205 -103l-1024 -512l-1024 512l205 103l819 -410zM1843 615l205 -103l-1024 -512l-1024 512l205 103l819 -410z" />
    <glyph glyph-name="uniE9D0" unicode="directory" 
d="M0 1280h2048l-128 -1280h-1792zM1856 1536l64 -128h-1792l128 256h704l64 -128h832z" />
    <glyph glyph-name="uniE9D1" unicode="dicrectory" 
d="M1856 1664h-832l-64 128h-704l-128 -256h1792zM1809 512h149l90 896h-2048l128 -1280h968q-79 28 -145 78.5t-113.5 117.5t-74.5 147.5t-27 168.5q0 112 43 211.5t116.5 173t173 116.5t211.5 43t211.5 -43t173 -116.5t116.5 -173t43 -211.5q0 -33 -4 -65t-11 -63v0z
M2006 93l-397 349q26 43 40.5 93.5t14.5 104.5q0 80 -30 149.5t-82.5 122t-122 82.5t-149.5 30t-149.5 -30t-122 -82.5t-82.5 -122t-30 -149.5t30 -149.5t82.5 -122t122 -82.5t149.5 -30q54 0 104.5 14.5t93.5 40.5l349 -397q35 -40 86 -42t89 36l10 10q38 38 36 89t-42 86z
M1280 392q-51 0 -96.5 19.5t-79 53t-53 79t-19.5 96.5t19.5 96.5t53 79t79 53t96.5 19.5t96.5 -19.5t79 -53t53 -79t19.5 -96.5t-19.5 -96.5t-53 -79t-79 -53t-96.5 -19.5z" />
    <glyph glyph-name="uniE9D2" unicode="directory&#x32;" 
d="M1920 1408h-1792l128 256h704l64 -128h832zM0 1280l128 -1280h1792l128 1280h-2048zM1024 64l-576 576h448v382h256v-382h448z" />
    <glyph glyph-name="uniE9D3" unicode="directory&#x33;" 
d="M1920 1408h-1792l128 256h704l64 -128h832zM0 1280l128 -1280h1792l128 1280h-2048zM1152 512v-382h-256v382h-448l576 576l576 -576h-448z" />
    <glyph glyph-name="uniE9D4" unicode="directory&#x34;" 
d="M1920 1408h-1792l128 256h704l64 -128h832zM1000 320q0 -44 6 -86.5t18 -83t29.5 -78t39.5 -72.5h-965l-128 1280h2048l-51 -510q-40 35 -85.5 62.5t-95.5 47t-104.5 30t-111.5 10.5q-124 0 -233.5 -47t-191 -128.5t-128.5 -191t-47 -233.5zM1600 768q-93 0 -174.5 -35
t-142.5 -96t-96 -142.5t-35 -174.5t35 -174.5t96 -142.5t142.5 -96t174.5 -35t174.5 35t142.5 96t96 142.5t35 174.5t-35 174.5t-96 142.5t-142.5 96t-174.5 35zM1664 256v-256h-128v256h-256v128h256v256h128v-256h256v-128h-256z" />
    <glyph glyph-name="uniE9D5" unicode="directory&#x35;" 
d="M1920 1408h-1792l128 256h704l64 -128h832zM0 1280l128 -1280h1792l128 1280h-2048zM1408 512h-256v-256h-256v256h-256v256h256v256h256v-256h256v-256z" />
    <glyph glyph-name="uniE9D6" unicode="directory&#x36;" 
d="M1920 1408h-1792l128 256h704l64 -128h832zM1000 320q0 -44 6 -86.5t18 -83t29.5 -78t39.5 -72.5h-965l-128 1280h2048l-51 -510q-40 35 -85.5 62.5t-95.5 47t-104.5 30t-111.5 10.5q-124 0 -233.5 -47t-191 -128.5t-128.5 -191t-47 -233.5zM1600 768q-93 0 -174.5 -35
t-142.5 -96t-96 -142.5t-35 -174.5t35 -174.5t96 -142.5t142.5 -96t174.5 -35t174.5 35t142.5 96t96 142.5t35 174.5t-35 174.5t-96 142.5t-142.5 96t-174.5 35zM1280 256v128h640v-128h-640z" />
    <glyph glyph-name="uniE9D7" unicode="directory&#x37;" 
d="M1920 1408h-1792l128 256h704l64 -128h832zM0 1280l128 -1280h1792l128 1280h-2048zM1408 512h-768v256h768v-256z" />
    <glyph glyph-name="uniE9D8" unicode="directory&#x38;" 
d="M1920 1408h-1792l128 256h704l64 -128h832zM0 1280l128 -1280h1792l128 1280h-2048zM860 211l-411 474l118 118l293 -230l549 486l118 -118l-667 -730v0z" />
    <glyph glyph-name="uniE9D9" unicode="directory&#x39;" 
d="M1856 1536h-832l-64 128h-704l-128 -256h1792zM0 1280l128 -1280h1792l128 1280h-2048zM1472 577v-1l-74.5 -74.5l-153.5 -153.5l-151.5 -151.5l-68.5 -68.5l-68.5 68.5t-151.5 151t-153 153t-73 74.5l-1 1v0q-30 35 -47.5 80.5t-17.5 95.5q0 56 21.5 105.5t58.5 86.5
t86.5 58.5t105.5 21.5q78 0 142 -40t98 -104q34 64 98 104t142 40q56 0 105.5 -21.5t86.5 -58.5t58.5 -86.5t21.5 -105.5q0 -50 -17 -95t-47 -80v0z" />
    <glyph glyph-name="uniE9DA" unicode="directory&#x31;&#x30;" 
d="M1920 1408h-1792l128 256h704l64 -128h832zM0 1280l128 -1280h1792l128 1280h-2048zM1440 920l-280 -280l280 -280l-136 -136l-280 280l-280 -280l-136 136l280 280l-280 280l136 136l280 -280l280 280l136 -136v0z" />
    <glyph glyph-name="uniE9DB" unicode="directory&#x31;&#x31;" 
d="M896 1664l256 -256h896v-1408h-2048v1664h896z" />
    <glyph glyph-name="uniE9DC" unicode="directory&#x31;&#x32;" 
d="M1664 0l384 1024h-1664l-384 -1024h1664zM256 1152l-256 -1152v1664h576l256 -256h832v-256h-1408z" />
    <glyph glyph-name="uniE9DD" unicode="directory&#x31;&#x33;" 
d="M1152 1408l-256 256h-896v-1664h2048v1408h-896zM1099 1280h821v-16h-1792v32h955zM128 128v16h1792v-16h-1792zM128 176v32h1792v-32h-1792zM128 240v32h1792v-32h-1792zM128 304v32h1792v-32h-1792zM128 368v32h1792v-32h-1792zM128 432v32h1792v-32h-1792zM128 496v32
h1792v-32h-1792zM128 560v32h1792v-32h-1792zM128 624v32h1792v-32h-1792zM128 688v32h1792v-32h-1792zM128 752v32h1792v-32h-1792zM128 816v32h1792v-32h-1792zM128 880v32h1792v-32h-1792zM128 944v32h1792v-32h-1792zM128 1008v32h1792v-32h-1792zM128 1072v32h1792v-32
h-1792zM128 1136v32h1792v-32h-1792zM128 1200v32h1792v-32h-1792zM843 1536l16 -16h-731v16h715zM891 1488l32 -32h-795v32h763zM955 1424l32 -32h-859v32h827zM1019 1360l32 -32h-923v32h891v0z" />
    <glyph glyph-name="uniE9DE" unicode="directory&#x31;&#x34;" 
d="M843 1536l256 -256h821v-1152h-1792v1408h715zM896 1664h-896v-1664h2048v1408h-896z" />
    <glyph glyph-name="uniE9DF" unicode="directory&#x31;&#x35;" 
d="M1152 1408l-256 256h-896v-1664h2048v1408h-896zM1408 512h-256v-256h-256v256h-256v256h256v256h256v-256h256v-256z" />
    <glyph glyph-name="uniE9E0" unicode="directory&#x31;&#x36;" 
d="M1152 1408l-256 256h-896v-1664h2048v1408h-896zM1408 512h-768v256h768v-256z" />
    <glyph glyph-name="uniE9E1" unicode="directory&#x31;&#x37;" 
d="M1152 1408l-256 256h-896v-1664h2048v1408h-896zM1920 128h-1792v1408h715l256 -256h821v-1152zM1152 1024h-256v-256h-256v-256h256v-256h256v256h256v256h-256v256z" />
    <glyph glyph-name="uniE9E2" unicode="directory&#x31;&#x38;" 
d="M1152 1408l-256 256h-896v-1664h2048v1408h-896zM1920 128h-1792v1408h715l256 -256h821v-1152zM640 768h768v-256h-768v256z" />
    <glyph glyph-name="uniE9E3" unicode="directory&#x31;&#x39;" 
d="M1152 1408l-256 256h-896v-1664h2048v1408h-896zM1024 192l-448 448h320v512h256v-512h320z" />
    <glyph glyph-name="uniE9E4" unicode="directory&#x32;&#x30;" 
d="M1152 1408l-256 256h-896v-1664h2048v1408h-896zM1024 960l448 -448h-320v-512h-256v512h-320z" />
    <glyph glyph-name="uniE9E5" unicode="directory&#x32;&#x31;" 
d="M1152 1408l-256 256h-896v-1664h2048v1408h-896zM1920 128h-1792v1408h715l256 -256h821v-1152zM1152 640v384h-256v-384h-384l512 -512l512 512h-384z" />
    <glyph glyph-name="uniE9E6" unicode="directory&#x32;&#x32;" 
d="M1152 1408l-256 256h-896v-1664h2048v1408h-896zM1920 128h-768v384h384l-512 512l-512 -512h384v-384h-768v1408h715l256 -256h821v-1152z" />
    <glyph glyph-name="uniE9E7" unicode="directory&#x32;&#x33;" 
d="M1969 1408h-1890q-40 0 -62.5 -27.5t-14.5 -66.5l235 -1092q8 -39 41.5 -66.5t73.5 -27.5h1344q40 0 73.5 27.5t41.5 66.5l235 1092q8 39 -14.5 66.5t-62.5 27.5zM1792 1568q0 40 -28 68t-68 28h-864l-64 128h-416q-40 0 -68 -28t-28 -68v-160h1536v32z" />
    <glyph glyph-name="uniE9E8" unicode="directory&#x32;&#x34;" 
d="M1969 1152q40 0 62.5 -27.5t14.5 -66.5l-235 -836q-8 -39 -41.5 -66.5t-73.5 -27.5h-1344q-40 0 -73.5 27.5t-41.5 66.5l-235 836q-8 39 14.5 66.5t62.5 27.5h1890zM1792 1568v-288h-1536v416q0 40 28 68t68 28h416l64 -128h864q40 0 68 -28t28 -68z" />
    <glyph glyph-name="uniE9E9" unicode="directory&#x32;&#x35;" 
d="M1969 1408h-177v160q0 40 -28 68t-68 28h-864l-64 128h-416q-40 0 -68 -28t-28 -68v-288h-177q-40 0 -62.5 -27.5t-14.5 -66.5l235 -1092q8 -39 41.5 -66.5t73.5 -27.5h1344q40 0 73.5 27.5t41.5 66.5l235 1092q8 39 -14.5 66.5t-62.5 27.5zM384 1664h305l64 -128h911
v-128h-1280v256zM1687 256h-1326l-221 1024h1768l-221 -1024v0z" />
    <glyph glyph-name="uniE9EA" unicode="directory&#x32;&#x36;" 
d="M1969 1152h-177v416q0 40 -28 68t-68 28h-864l-64 128h-416q-40 0 -68 -28t-28 -68v-544h-177q-40 0 -62.5 -27.5t-14.5 -66.5l235 -836q8 -39 41.5 -66.5t73.5 -27.5h1344q40 0 73.5 27.5t41.5 66.5l235 836q8 39 -14.5 66.5t-62.5 27.5zM384 1664h305l64 -128h911v-384
h-1280v512zM1687 256h-1326l-221 768h1768l-221 -768v0z" />
    <glyph glyph-name="uniE9EB" unicode="certificate" 
d="M128 1920v-2048h1792v2048h-1792zM1792 0h-1536v1792h1536v-1792zM384 1536h640v-128h-640v128zM384 1280h640v-128h-640v128zM384 1024h640v-128h-640v128zM384 769h640v-128h-640v128zM384 512h640v-128h-640v128zM384 256h1280v-128h-1280v128zM1664 1483l-75 -75
l75 -75v-53h-128v-128h-53l-75 75l-75 -75h-53v128h-128v53l75 75l-75 75v53h128v128h53l75 -75l75 75h53v-128h128v-53zM1536 1024v-576l-128 128l-128 -128v576h256z" />
    <glyph glyph-name="uniE9EC" unicode="creative&#x2d;commons" 
d="M1023 1920q-106 0 -204.5 -19t-189 -57t-172 -93.5t-153.5 -127.5q-73 -75 -129.5 -160t-95 -177.5t-58.5 -190.5t-20 -199q0 -102 19.5 -200t57.5 -189t94 -174.5t130 -157.5q73 -74 157 -130.5t175.5 -95t189.5 -58t199 -19.5t199.5 20t191.5 58.5t179 95.5t162 132
q71 70 125.5 151.5t91.5 172.5t56 190t19 204q0 104 -19 203t-56 190.5t-92 174.5t-128 156q-74 73 -157.5 129.5t-175.5 94t-191.5 57t-204.5 19.5v0zM1025 1735q87 0 168 -16t156 -47.5t143 -77.5t128 -106q59 -59 104 -127t75.5 -143t46 -156t15.5 -166q0 -86 -15 -167
t-45 -154.5t-74.5 -140.5t-103.5 -124q-62 -61 -132.5 -108t-146.5 -78.5t-156.5 -47.5t-162.5 -16q-83 0 -163 16t-154.5 47.5t-143 77.5t-128.5 106t-106.5 128.5t-78 143.5t-48 155t-16.5 162q0 83 16.5 163.5t48 156t78 145t106.5 130.5q59 60 126 105.5t141.5 76.5
t155 46.5t166.5 15.5zM1012 1066q-43 79 -114 113.5t-157 34.5q-62 0 -117 -22t-95.5 -62.5t-63.5 -99.5t-23 -134q0 -76 22 -135t62.5 -99.5t96.5 -62t124 -21.5q43 0 83 11.5t74.5 32.5t62.5 50.5t49 65.5l-127 65q-22 -51 -54 -69.5t-72 -18.5q-71 0 -104.5 52t-33.5 129
t31 129t107 52q20 0 54.5 -15.5t58.5 -66.5l136 71v0zM1603 1066q-43 79 -114 113.5t-157 34.5q-63 0 -117.5 -22t-95 -62.5t-64 -99.5t-23.5 -134q0 -76 22.5 -135t63 -99.5t96.5 -62t124 -21.5q43 0 82.5 11.5t74 32.5t63 50.5t48.5 65.5l-127 65q-21 -51 -53 -69.5
t-73 -18.5q-70 0 -103.5 52t-33.5 129t31 129t106 52q21 0 55.5 -15.5t58.5 -66.5l136 71v0z" />
    <glyph glyph-name="uniE9ED" unicode="price&#x2d;tag" 
d="M768 896h128v-256h-128v256zM1024 512h128v-256h-128v256zM1602 1348l-462 504q-26 28 -70 48t-81 20h-58q-37 0 -81 -20t-70 -48l-462 -504q-25 -28 -43.5 -76t-18.5 -88v-1216q0 -40 26 -68t62 -28h1232q36 0 62 28t26 68v1216q0 40 -18.5 88t-43.5 76v0zM1280 896
h-256v-256h256v-512h-256v-128h-128v128h-256v128h256v256h-256v512h256v128h128v-128h256v-128zM1060 1600q0 -41 -29.5 -70.5t-70.5 -29.5t-70.5 29.5t-29.5 70.5t29.5 70.5t70.5 29.5t70.5 -29.5t29.5 -70.5z" />
    <glyph glyph-name="uniE9EE" unicode="price&#x2d;tag&#x32;" 
d="M1952 1920h-768q-40 0 -88 -20t-76 -48l-952 -952q-28 -28 -28 -68t28 -68l824 -824q28 -28 68 -28t68 28l952 952q28 28 48 76t20 88v768q0 40 -28 68t-68 28zM1472 1152q-80 0 -136 56t-56 136t56 136t136 56t136 -56t56 -136t-56 -136t-136 -56z" />
    <glyph glyph-name="uniE9EF" unicode="price&#x2d;tags" horiz-adv-x="2560" 
d="M2464 1920h-768q-40 0 -88 -20t-76 -48l-952 -952q-28 -28 -28 -68t28 -68l824 -824q28 -28 68 -28t68 28l952 952q28 28 48 76t20 88v768q0 40 -28 68t-68 28zM1984 1152q-80 0 -136 56t-56 136t56 136t136 56t136 -56t56 -136t-56 -136t-136 -56zM256 832l1088 1088
h-160q-40 0 -88 -20t-76 -48l-952 -952q-28 -28 -28 -68t28 -68l824 -824q28 -28 68 -28t68 28l60 60z" />
    <glyph glyph-name="uniE9F0" unicode="price&#x2d;tag&#x33;" 
d="M1920 1792v-736q0 -14 -10 -38.5t-20 -34.5l-930 -930l-779 779l930 930q10 10 34.5 20t38.5 10h736zM1952 1920h-768q-40 0 -88 -20t-76 -48l-952 -952q-28 -28 -28 -68t28 -68l824 -824q14 -14 32 -21t36 -7t36 7t32 21l952 952q28 28 48 76t20 88v768q0 40 -28 68
t-68 28v0v0zM1664 1344q0 -80 -56 -136t-136 -56t-136 56t-56 136t56 136t136 56t136 -56t56 -136z" />
    <glyph glyph-name="uniE9F1" unicode="price&#x2d;tags&#x32;" horiz-adv-x="2560" 
d="M2432 1792v-736q0 -14 -10 -38.5t-20 -34.5l-930 -930l-779 779l930 930q10 10 34.5 20t38.5 10h736zM2464 1920h-768q-40 0 -88 -20t-76 -48l-952 -952q-28 -28 -28 -68t28 -68l824 -824q14 -14 32 -21t36 -7t36 7t32 21l952 952q28 28 48 76t20 88v768q0 40 -28 68
t-68 28v0zM2176 1344q0 -80 -56 -136t-136 -56t-136 56t-56 136t56 136t136 56t136 -56t56 -136zM1269 1920h-85q-40 0 -88 -20t-76 -48l-952 -952q-28 -28 -28 -68t28 -68l824 -824q14 -14 32 -21t36 -7t36 7t32 21l23 23l-870 869z" />
    <glyph glyph-name="uniE9F2" unicode="price&#x2d;tag&#x34;" 
d="M1980 900l-568 568q-28 28 -76 48t-88 20h-1152q-40 0 -68 -28t-28 -68v-1216q0 -40 28 -68t68 -28h1152q40 0 88 20t76 48l568 568q28 28 28 68t-28 68v0zM1344 640q-80 0 -136 56t-56 136t56 136t136 56t136 -56t56 -136t-56 -136t-136 -56z" />
    <glyph glyph-name="uniE9F3" unicode="price&#x2d;tags&#x33;" horiz-adv-x="2304" 
d="M2236 644l-568 568q-28 28 -76 48t-88 20h-1152q-40 0 -68 -28t-28 -68v-1216q0 -40 28 -68t68 -28h1152q40 0 88 20t76 48l568 568q28 28 28 68t-28 68zM1600 384q-80 0 -136 56t-56 136t56 136t136 56t136 -56t56 -136t-56 -136t-136 -56zM128 1408h1344l-60 60
q-28 28 -76 48t-88 20h-1152q-40 0 -68 -28t-28 -68v-1216q0 -40 28 -68t68 -28h32v1280z" />
    <glyph glyph-name="uniE9F4" unicode="price&#x2d;tag&#x35;" 
d="M1248 1408q14 0 38.5 -10t34.5 -20l546 -546l-546 -546q-10 -10 -34.5 -20t-38.5 -10h-1120v1152h1120zM1248 1536h-1152q-40 0 -68 -28t-28 -68v-1216q0 -40 28 -68t68 -28h1152q40 0 88 20t76 48l568 568q28 28 28 68t-28 68l-568 568q-28 28 -76 48t-88 20v0z
M1536 832q0 -80 -56 -136t-136 -56t-136 56t-56 136t56 136t136 56t136 -56t56 -136z" />
    <glyph glyph-name="uniE9F5" unicode="price&#x2d;tags&#x34;" horiz-adv-x="2304" 
d="M1504 1152q14 0 38.5 -10t34.5 -20l546 -546l-546 -546q-10 -10 -34.5 -20t-38.5 -10h-1120v1152h1120zM1504 1280h-1152q-40 0 -68 -28t-28 -68v-1216q0 -40 28 -68t68 -28h1152q40 0 88 20t76 48l568 568q28 28 28 68t-28 68l-568 568q-28 28 -76 48t-88 20v0z
M1792 576q0 -80 -56 -136t-136 -56t-136 56t-56 136t56 136t136 56t136 -56t56 -136zM128 256v1152h1344l-60 60q-28 28 -76 48t-88 20h-1152q-40 0 -68 -28t-28 -68v-1216q0 -40 28 -68t68 -28h32v128z" />
    <glyph glyph-name="uniE9F6" unicode="barcode" 
d="M0 1536h256v-1280h-256v1280zM384 1536h128v-1280h-128v1280zM640 1536h128v-1280h-128v1280zM1024 1536h128v-1280h-128v1280zM1536 1536h128v-1280h-128v1280zM1920 1536h128v-1280h-128v1280zM1280 1536h64v-1280h-64v1280zM896 1536h64v-1280h-64v1280zM1728 1536h64
v-1280h-64v1280z" />
    <glyph glyph-name="uniE9F7" unicode="barcode&#x32;" 
d="M0 1664h256v-1280h-256v1280zM384 1664h128v-1280h-128v1280zM640 1664h128v-1280h-128v1280zM1024 1664h128v-1280h-128v1280zM1536 1664h128v-1280h-128v1280zM1920 1664h128v-1280h-128v1280zM1280 1664h64v-1280h-64v1280zM896 1664h64v-1280h-64v1280zM1728 1664h64
v-1280h-64v1280zM0 256h128v-128h-128v128zM384 256h128v-128h-128v128zM640 256h128v-128h-128v128zM1280 256h128v-128h-128v128zM1920 256h128v-128h-128v128zM1536 256h256v-128h-256v128zM896 256h256v-128h-256v128z" />
    <glyph glyph-name="uniE9F8" unicode="qrcode" 
d="M640 1792h-512v-512h512v512zM768 1920v0v-768h-768v768h768zM256 1664h256v-256h-256v256zM1920 1792h-512v-512h512v512zM2048 1920v0v-768h-768v768h768zM1536 1664h256v-256h-256v256zM640 512h-512v-512h512v512zM768 640v0v-768h-768v768h768zM256 384h256v-256
h-256v256zM896 1920h128v-128h-128v128zM1024 1792h128v-128h-128v128zM896 1664h128v-128h-128v128zM1024 1536h128v-128h-128v128zM896 1408h128v-128h-128v128zM1024 1280h128v-128h-128v128zM896 1152h128v-128h-128v128zM896 896h128v-128h-128v128zM1024 768h128v-128
h-128v128zM896 640h128v-128h-128v128zM1024 512h128v-128h-128v128zM896 384h128v-128h-128v128zM1024 256h128v-128h-128v128zM896 128h128v-128h-128v128zM1024 0h128v-128h-128v128zM1920 896h128v-128h-128v128zM128 896h128v-128h-128v128zM256 1024h128v-128h-128
v128zM0 1024h128v-128h-128v128zM512 1024h128v-128h-128v128zM640 896h128v-128h-128v128zM768 1024h128v-128h-128v128zM1152 896h128v-128h-128v128zM1280 1024h128v-128h-128v128zM1408 896h128v-128h-128v128zM1536 1024h128v-128h-128v128zM1664 896h128v-128h-128
v128zM1792 1024h128v-128h-128v128zM1920 640h128v-128h-128v128zM1152 640h128v-128h-128v128zM1280 768h128v-128h-128v128zM1408 640h128v-128h-128v128zM1664 640h128v-128h-128v128zM1792 768h128v-128h-128v128zM1920 384h128v-128h-128v128zM1152 384h128v-128h-128
v128zM1280 512h128v-128h-128v128zM1536 512h128v-128h-128v128zM1664 384h128v-128h-128v128zM1792 512h128v-128h-128v128zM1920 128h128v-128h-128v128zM1280 256h128v-128h-128v128zM1408 128h128v-128h-128v128zM1536 256h128v-128h-128v128zM1664 128h128v-128h-128
v128zM1280 0h128v-128h-128v128zM1536 0h128v-128h-128v128zM1792 0h128v-128h-128v128z" />
    <glyph glyph-name="uniE9F9" unicode="theater" 
d="M1152 1280l256 -256l-512 -512l-256 256zM2003 1325l-147 147l-64 -64q-25 -25 -58 -39t-70 -14q-75 0 -128 53t-53 128q0 38 14 70.5t39 57.5l64 64l-147 147q-45 45 -109 45t-109 -45l-1190 -1190q-45 -45 -45 -109t45 -109l147 -147l64 64q24 25 57 39t71 14
q75 0 128 -53t53 -128q0 -38 -14 -70.5t-39 -57.5l-64 -64l147 -147q45 -45 109 -45t109 45l1190 1190q45 45 45 109t-45 109v0zM896 256l-512 512l768 768l512 -512l-768 -768v0z" />
    <glyph glyph-name="uniE9FA" unicode="theater&#x32;" horiz-adv-x="2176" 
d="M2048 1152v288q0 40 -28 68t-68 28h-1472q13 0 22.5 -9.5t9.5 -22.5t-9.5 -22.5t-22.5 -9.5t-22.5 9.5t-9.5 22.5t9.5 22.5t22.5 9.5h-384q-40 0 -68 -28t-28 -68v-288q53 0 99.5 -20t81.5 -55t55 -81.5t20 -99.5t-20 -99.5t-55 -81.5t-81.5 -55t-99.5 -20v-288
q0 -40 28 -68t68 -28h384q-13 0 -22.5 9.5t-9.5 22.5t9.5 22.5t22.5 9.5t22.5 -9.5t9.5 -22.5t-9.5 -22.5t-22.5 -9.5h1472q40 0 68 28t28 68v288q-53 0 -99.5 20t-81.5 55t-55 81.5t-20 99.5t20 99.5t55 81.5t81.5 55t99.5 20zM480 384q-13 0 -22.5 9.5t-9.5 22.5t9.5 22.5
t22.5 9.5t22.5 -9.5t9.5 -22.5t-9.5 -22.5t-22.5 -9.5zM480 512q-13 0 -22.5 9.5t-9.5 22.5t9.5 22.5t22.5 9.5t22.5 -9.5t9.5 -22.5t-9.5 -22.5t-22.5 -9.5zM480 640q-13 0 -22.5 9.5t-9.5 22.5t9.5 22.5t22.5 9.5t22.5 -9.5t9.5 -22.5t-9.5 -22.5t-22.5 -9.5zM480 768
q-13 0 -22.5 9.5t-9.5 22.5t9.5 22.5t22.5 9.5t22.5 -9.5t9.5 -22.5t-9.5 -22.5t-22.5 -9.5zM480 960q-13 0 -22.5 9.5t-9.5 22.5t9.5 22.5t22.5 9.5t22.5 -9.5t9.5 -22.5t-9.5 -22.5t-22.5 -9.5zM480 1088q-13 0 -22.5 9.5t-9.5 22.5t9.5 22.5t22.5 9.5t22.5 -9.5
t9.5 -22.5t-9.5 -22.5t-22.5 -9.5zM480 1216q-13 0 -22.5 9.5t-9.5 22.5t9.5 22.5t22.5 9.5t22.5 -9.5t9.5 -22.5t-9.5 -22.5t-22.5 -9.5zM480 1344q-13 0 -22.5 9.5t-9.5 22.5t9.5 22.5t22.5 9.5t22.5 -9.5t9.5 -22.5t-9.5 -22.5t-22.5 -9.5zM1328 566l-240 174l-240 -174
l92 282l-240 174h296l92 282l92 -282h296l-240 -174z" />
    <glyph glyph-name="uniE9FB" unicode="show" horiz-adv-x="2176" 
d="M2173 1920q-83 -29 -173 -57t-186.5 -50t-198 -35.5t-207.5 -13.5t-207.5 13.5t-198 35.5t-186.5 50t-173 57q-2 -31 -2.5 -61.5t-0.5 -62.5q0 -292 60.5 -549.5t164.5 -449t244 -302.5t299 -111t299 111t244 302.5t164.5 449t60.5 549.5q0 32 -0.5 62.5t-2.5 61.5z
M896 1408q0 53 56 90.5t136 37.5t136 -37.5t56 -90.5h-384zM1408 640q-63 0 -120.5 29t-105 80.5t-83 122.5t-54.5 156q35 -30 76 -54.5t87 -42t96.5 -26.5t103.5 -9t103.5 9t96.5 26.5t87 42t76 54.5q-19 -85 -54.5 -156t-83 -122.5t-105 -80.5t-120.5 -29zM1536 1408
q0 53 56 90.5t136 37.5t136 -37.5t56 -90.5h-384zM1016 373q-41 31 -79 69t-73.5 81.5t-68.5 93.5t-64 106q-27 49 -51 102.5t-45 109.5t-39.5 115t-33.5 121q-77 5 -151 14t-144 23t-136.5 32t-127.5 40q-2 -28 -2.5 -56.5t-0.5 -56.5q0 -268 55.5 -504t151 -412
t223.5 -277.5t274 -101.5q74 0 144.5 27.5t134.5 78t121 123.5t105 163q-50 18 -98.5 45t-94.5 64v0zM256 896h256q0 -53 -37.5 -90.5t-90.5 -37.5t-90.5 37.5t-37.5 90.5zM704 260q-64 0 -125 -12t-116 -35q44 81 106.5 128t134.5 47t134.5 -47t106.5 -128q-55 23 -116 35
t-125 12z" />
    <glyph glyph-name="uniE9FC" unicode="store" 
d="M1792 0v768h-1536v-768h-128v-128h1792v128h-128zM1024 128h-512v384h512v-384zM1792 1792h-1536l-256 -512v-384h384v256h128v-256h256v256h128v-256h256v256h128v-256h256v256h128v-256h384v384z" />
    <glyph glyph-name="uniE9FD" unicode="store&#x32;" 
d="M832 768h-384q-27 0 -45.5 -18.5t-18.5 -45.5v-384q0 -27 18.5 -45.5t45.5 -18.5h384q27 0 45.5 18.5t18.5 45.5v384q0 27 -18.5 45.5t-45.5 18.5zM768 384h-256v256h256v-256zM2048 1152v576q0 27 -18.5 45.5t-45.5 18.5h-1920q-27 0 -45.5 -18.5t-18.5 -45.5v-576
q0 -71 35.5 -129.5t92.5 -92.5v-930h-64q-27 0 -45.5 -18.5t-18.5 -45.5t18.5 -45.5t45.5 -18.5h1920q27 0 45.5 18.5t18.5 45.5t-18.5 45.5t-45.5 18.5h-64v930q57 34 92.5 92.5t35.5 129.5zM1280 1664h256v-512q0 -53 -37.5 -90.5t-90.5 -37.5t-90.5 37.5t-37.5 90.5v512z
M512 1664h256v-512q0 -53 -37.5 -90.5t-90.5 -37.5t-90.5 37.5t-37.5 90.5v512zM1536 0h-256v512h256v-512zM1792 0h-128v576q0 27 -18.5 45.5t-45.5 18.5h-384q-27 0 -45.5 -18.5t-18.5 -45.5v-576h-896v896q57 0 107 23.5t85 63.5q35 -40 85 -63.5t107 -23.5t107 23.5
t85 63.5q35 -40 85 -63.5t107 -23.5t107 23.5t85 63.5q35 -40 85 -63.5t107 -23.5t107 23.5t85 63.5q35 -40 85 -63.5t107 -23.5v-896z" />
    <glyph glyph-name="uniE9FE" unicode="cart" 
d="M768 64q0 -80 -56 -136t-136 -56t-136 56t-56 136t56 136t136 56t136 -56t56 -136zM2048 64q0 -80 -56 -136t-136 -56t-136 56t-56 136t56 136t136 56t136 -56t56 -136zM2048 896v768h-1536q0 53 -37.5 90.5t-90.5 37.5h-384v-128h256l96 -824q-44 -35 -70 -87t-26 -113
q0 -53 20 -99.5t55 -81.5t81.5 -55t99.5 -20h1536v128h-1536q-53 0 -90.5 37.5t-37.5 90.5v0.5v0.5z" />
    <glyph glyph-name="uniE9FF" unicode="cart&#x32;" 
d="M1694 768q53 0 101 36t63 87l185 650q15 51 -12.5 87t-80.5 36h-1310q0 53 -20 99.5t-55 81.5t-81.5 55t-99.5 20h-384v-256h384v-1088q0 -80 56 -136t136 -56h1216q53 0 90.5 37.5t37.5 90.5t-37.5 90.5t-90.5 37.5h-1152v128h1054zM640 1408h1158l-110 -384h-1048v384z
M768 64q0 -80 -56 -136t-136 -56t-136 56t-56 136t56 136t136 56t136 -56t56 -136zM1920 64q0 -80 -56 -136t-136 -56t-136 56t-56 136t56 136t136 56t136 -56t56 -136z" />
    <glyph glyph-name="uniEA00" unicode="cart&#x33;" 
d="M1694 768q53 0 101 36t63 87l185 650q15 51 -12.5 87t-80.5 36h-1310q0 53 -20 99.5t-55 81.5t-81.5 55t-99.5 20h-384v-256h384v-1088q0 -80 56 -136t136 -56h1216q53 0 90.5 37.5t37.5 90.5t-37.5 90.5t-90.5 37.5h-1152v128h1054zM640 1024v16h1052l-4 -16h-1048z
M1766 1296l-10 -32h-1116v32h1126zM640 1328v32h1144l-9 -32h-1135v0zM1747 1232l-9 -32h-1098v32h1107zM1729 1168l-9 -32h-1080v32h1089zM1711 1104l-9 -32h-1062v32h1071zM1798 1408l-5 -16h-1153v16h1158zM768 64q0 -80 -56 -136t-136 -56t-136 56t-56 136t56 136
t136 56t136 -56t56 -136zM1920 64q0 -80 -56 -136t-136 -56t-136 56t-56 136t56 136t136 56t136 -56t56 -136z" />
    <glyph glyph-name="uniEA01" unicode="cart&#x34;" 
d="M1955 1531q51 -14 77 -60.5t11 -97.5l-256 -896q-12 -41 -46 -67t-77 -26h-1088q-48 0 -84.5 32t-42.5 80l-114 912h-207q-53 0 -90.5 37.5t-37.5 90.5t37.5 90.5t90.5 37.5h320q48 0 84.5 -32t42.5 -80l114 -912h878l230 803q14 51 60.5 77t97.5 11zM512 64q0 80 56 136
t136 56t136 -56t56 -136t-56 -136t-136 -56t-136 56t-56 136zM1280 64q0 80 56 136t136 56t136 -56t56 -136t-56 -136t-136 -56t-136 56t-56 136z" />
    <glyph glyph-name="uniEA02" unicode="cart&#x35;" 
d="M1955 1531q-51 15 -97.5 -11t-60.5 -77l-10 -35h-1194l-18 144q-6 48 -42.5 80t-84.5 32h-320q-53 0 -90.5 -37.5t-37.5 -90.5t37.5 -90.5t90.5 -37.5h207l114 -912q6 -48 42.5 -80t84.5 -32h1088q43 0 77 26t46 67l256 896q15 51 -11 97.5t-77 60.5v0zM1024 896v128h256
v-128h-256zM1280 768v-128h-256v128h256zM1024 1152v128h256v-128h-256zM609 1280h287v-128h-271zM641 1024h255v-128h-239zM673 768h223v-128h-207zM1567 640h-159v128h196l-37 -128v0zM1641 896h-233v128h269zM1714 1152h-306v128h342l-36 -128v0zM512 64q0 80 56 136
t136 56t136 -56t56 -136t-56 -136t-136 -56t-136 56t-56 136zM1280 64q0 80 56 136t136 56t136 -56t56 -136t-56 -136t-136 -56t-136 56t-56 136z" />
    <glyph glyph-name="uniEA03" unicode="cart&#x2d;add" 
d="M1664 384h-1088q-48 0 -84.5 32t-42.5 80l-114 912h-207q-53 0 -90.5 37.5t-37.5 90.5t37.5 90.5t90.5 37.5h320q48 0 84.5 -32t42.5 -80l114 -912h878l230 803q14 51 60.5 77t97.5 11q51 -14 77 -60.5t11 -97.5l-256 -896q-12 -41 -46 -67t-77 -26zM512 64q0 80 56 136
t136 56t136 -56t56 -136t-56 -136t-136 -56t-136 56t-56 136zM1280 64q0 80 56 136t136 56t136 -56t56 -136t-56 -136t-136 -56t-136 56t-56 136zM1536 1024h-256v-256h-256v256h-256v256h256v256h256v-256h256v-256z" />
    <glyph glyph-name="uniEA04" unicode="cart&#x2d;add&#x32;" 
d="M1955 1531q51 -14 77 -60.5t11 -97.5l-256 -896q-12 -41 -46 -67t-77 -26h-1088q-48 0 -84.5 32t-42.5 80l-114 912h-207q-53 0 -90.5 37.5t-37.5 90.5t37.5 90.5t90.5 37.5h320q48 0 84.5 -32t42.5 -80l114 -912h878l230 803q14 51 60.5 77t97.5 11zM512 64q0 80 56 136
t136 56t136 -56t56 -136t-56 -136t-136 -56t-136 56t-56 136zM1280 64q0 80 56 136t136 56t136 -56t56 -136t-56 -136t-136 -56t-136 56t-56 136zM728 1280h296v384h256v-384h296l-424 -456z" />
    <glyph glyph-name="uniEA05" unicode="cart&#x2d;remove" 
d="M1955 1531q51 -14 77 -60.5t11 -97.5l-256 -896q-12 -41 -46 -67t-77 -26h-1088q-48 0 -84.5 32t-42.5 80l-114 912h-207q-53 0 -90.5 37.5t-37.5 90.5t37.5 90.5t90.5 37.5h320q48 0 84.5 -32t42.5 -80l114 -912h878l230 803q14 51 60.5 77t97.5 11zM512 64q0 80 56 136
t136 56t136 -56t56 -136t-56 -136t-136 -56t-136 56t-56 136zM1280 64q0 80 56 136t136 56t136 -56t56 -136t-56 -136t-136 -56t-136 56t-56 136zM1576 1152h-296v-384h-256v384h-296l424 456z" />
    <glyph glyph-name="uniEA06" unicode="basket" 
d="M1626 1152l-356 463q5 11 7.5 23.5t2.5 25.5q0 53 -37.5 90.5t-90.5 37.5t-90.5 -37.5t-37.5 -90.5t37.5 -90.5t90.5 -37.5q4 0 8.5 0.5t8.5 0.5l296 -385h-882l296 385q4 0 8.5 -0.5t8.5 -0.5q53 0 90.5 37.5t37.5 90.5t-37.5 90.5t-90.5 37.5t-90.5 -37.5t-37.5 -90.5
q0 -13 2.5 -25.5t7.5 -23.5l-356 -463h-422v-256h128l128 -1024h1536l128 1024h128v256h-422zM640 128h-256v256h256v-256zM640 640h-256v256h256v-256zM1152 128h-256v256h256v-256zM1152 640h-256v256h256v-256zM1664 128h-256v256h256v-256zM1664 640h-256v256h256v-256z
" />
    <glyph glyph-name="uniEA07" unicode="bag" 
d="M1408 1536v64q0 66 -25 124.5t-68.5 102t-102 68.5t-124.5 25q-54 0 -103 -17t-89 -47q-40 30 -89 47t-103 17q-66 0 -124.5 -25t-102 -68.5t-68.5 -102t-25 -124.5v-218l-256 -38v-1344h256l128 -128l1280 192v1344zM384 128h-128v1106l128 19v-1125zM1088 1792
q79 0 135.5 -56.5t56.5 -135.5v-83l-256 -39v122q0 44 -11 84t-32 76q23 15 50 23.5t57 8.5zM512 1600q0 79 56.5 135.5t135.5 56.5q30 0 57 -8.5t50 -23.5q-21 -36 -32 -76t-11 -84v-160l-256 -38v198zM1664 174l-1024 -153v1085l1024 153v-1085z" />
    <glyph glyph-name="uniEA08" unicode="bag&#x32;" 
d="M1408 1536v64q0 66 -25 124.5t-68.5 102t-102 68.5t-124.5 25q-54 0 -103 -17t-89 -47q-40 30 -89 47t-103 17q-66 0 -124.5 -25t-102 -68.5t-68.5 -102t-25 -124.5v-218l-256 -38v-1344h256l128 -128l1280 192v1344zM256 240v32h128v-32h-128zM384 208v-32h-128v32h128z
M256 304v32h128v-32h-128zM256 368v32h128v-32h-128zM256 432v32h128v-32h-128zM256 496v32h128v-32h-128zM256 560v32h128v-32h-128zM256 624v32h128v-32h-128zM256 688v32h128v-32h-128zM256 752v32h128v-32h-128zM256 816v32h128v-32h-128zM256 880v32h128v-32h-128z
M256 944v32h128v-32h-128zM256 1008v32h128v-32h-128zM256 1072v32h128v-32h-128zM256 1136v32h128v-32h-128zM256 1200v32h128v-32h-128zM256 128v16h128v-16h-128zM1520 1238l32 5v-1086l-32 -4v1085zM1488 148l-32 -5v1085l32 5v-1085zM1584 1247l32 5v-1085l-32 -5v1085
v0zM1424 1223v-1085l-32 -5v1086zM1008 1161l32 5v-1085l-32 -5v1085v0zM976 71l-32 -5v1085l32 5v-1085zM1072 1171l32 4v-1085l-32 -5v1086zM1136 1180l32 5v-1085l-32 -5v1085v0zM1200 1190l32 5v-1086l-32 -4v1085zM1264 1199l32 5v-1085l-32 -5v1085v0zM1328 1209l32 5
v-1085l-32 -5v1085v0zM1088 1792q79 0 135.5 -56.5t56.5 -135.5v-83l-256 -39v122q0 44 -11 84t-32 76q23 15 50 23.5t57 8.5zM912 1147v-1086l-32 -4v1085zM720 1118v-1085l-32 -5v1085zM752 1123l32 4v-1085l-32 -5v1086zM816 1132l32 5v-1085l-32 -5v1085v0zM512 1600
q0 79 56.5 135.5t135.5 56.5q30 0 57 -8.5t50 -23.5q-21 -36 -32 -76t-11 -84v-160l-256 -38v198zM640 1106l16 2v-1085l-16 -2v1085zM1664 174l-16 -2v1085l16 2v-1085z" />
    <glyph glyph-name="uniEA09" unicode="discount" 
d="M1280 640h128v-256h-128v256zM640 1408h128v-256h-128v256zM1024 1920q-212 0 -398.5 -80.5t-325.5 -219.5t-219.5 -325.5t-80.5 -398.5t80.5 -398.5t219.5 -325.5t325.5 -219.5t398.5 -80.5t398.5 80.5t325.5 219.5t219.5 325.5t80.5 398.5t-80.5 398.5t-219.5 325.5
t-325.5 219.5t-398.5 80.5zM512 1472q0 27 18.5 45.5t45.5 18.5h256q27 0 45.5 -18.5t18.5 -45.5v-384q0 -27 -18.5 -45.5t-45.5 -18.5h-256q-27 0 -45.5 18.5t-18.5 45.5v384zM1536 320q0 -27 -18.5 -45.5t-45.5 -18.5h-256q-27 0 -45.5 18.5t-18.5 45.5v384
q0 27 18.5 45.5t45.5 18.5h256q27 0 45.5 -18.5t18.5 -45.5v-384zM1529 1428l-896 -1152q-11 -14 -26 -21t-31 -7q-12 0 -23 4t-21 11q-24 18 -27.5 48t14.5 53l896 1152q18 24 48 27.5t53 -14.5q24 -18 27.5 -48t-14.5 -53v0z" />
    <glyph glyph-name="uniEA0A" unicode="coins" 
d="M1341 1285q-35 0 -69 -3t-67 -10q-2 2 -5 4l-6 4q41 28 63.5 60.5t22.5 67.5v128q0 53 -50.5 99.5t-137 81.5t-203 55t-249.5 20t-249.5 -20t-203 -55t-137 -81.5t-50.5 -99.5v-128q0 -35 22.5 -67.5t63.5 -60.5q-41 -28 -63.5 -60.5t-22.5 -67.5v-128q0 -35 22.5 -67.5
t63.5 -60.5q-41 -28 -63.5 -60.5t-22.5 -67.5v-128q0 -35 22.5 -67.5t63.5 -60.5q-41 -28 -63.5 -60.5t-22.5 -67.5v-128q0 -53 50.5 -99.5t137 -81.5t203 -55t249.5 -20q71 0 137.5 6t127.5 17q45 -36 95.5 -64t105.5 -47t114.5 -29.5t120.5 -10.5q147 0 275.5 55.5
t224.5 151.5t151.5 224.5t55.5 275.5q0 146 -55.5 274.5t-151.5 224.5t-224.5 151.5t-275.5 55.5v0zM64 1536q0 29 40 62t107 60q43 17 92.5 30t104 22t113 13.5t119.5 4.5t119.5 -4.5t113 -13.5t104 -22t92.5 -30q67 -27 107 -60t40 -62t-40 -62t-107 -60
q-28 -11 -58.5 -20.5t-63.5 -16.5q-69 -16 -147 -24.5t-160 -8.5t-160 8.5t-147 24.5q-33 7 -63.5 16.5t-58.5 20.5q-67 27 -107 60t-40 62v0zM64 768q0 21 22.5 45t62.5 47q44 -21 98.5 -38t117 -29t132 -18.5t143.5 -6.5h10h10q-12 -45 -18.5 -92.5t-6.5 -96.5v-1.5v-1.5
q-81 0 -157.5 8.5t-144.5 24.5q-33 7 -63.5 16.5t-58.5 20.5q-67 27 -107 60t-40 62v0zM640 192q-61 0 -119.5 4.5t-113 13.5t-104 22t-92.5 30q-67 27 -107 60t-40 62q0 21 22.5 45t62.5 47q44 -21 98.5 -38t117 -29t132 -18.5t143.5 -6.5h10.5h11.5q14 -50 35.5 -97.5
t49.5 -90.5q-26 -2 -53 -3t-54 -1v0zM640 960q-82 0 -160 8.5t-147 24.5q-33 7 -63.5 16.5t-58.5 20.5q-67 27 -107 60t-40 62q0 21 22.5 45t62.5 47q44 -21 98.5 -38t117 -29t132 -18.5t143.5 -6.5q49 0 96.5 3t92.5 8.5t87 13.5t80 18q-37 -21 -71.5 -46t-66 -54.5
t-59 -62t-50.5 -68.5q-27 -2 -54 -3t-55 -1zM1341 0q-119 0 -224.5 45.5t-184 124t-124 184t-45.5 225.5q0 119 45.5 224.5t124 184t184 124t224.5 45.5q120 0 225.5 -45.5t184 -124t124 -184t45.5 -224.5q0 -120 -45.5 -225.5t-124 -184t-184 -124t-225.5 -45.5zM1408 1024
h-128v-128h-256v-384h256v-128h-256v-128h256v-128h128v128h256v384h-256v128h256v128h-256v128zM1280 640h-128v128h128v-128zM1536 512v-128h-128v128h128z" />
    <glyph glyph-name="uniEA0B" unicode="coin&#x2d;dollar" 
d="M960 1792q-199 0 -374 -75.5t-305 -205.5t-205.5 -305t-75.5 -374t75.5 -374t205.5 -305t305 -205.5t374 -75.5t374 75.5t305 205.5t205.5 305t75.5 374t-75.5 374t-205.5 305t-305 205.5t-374 75.5zM960 64q-159 0 -299 60.5t-244 164.5t-164.5 244t-60.5 299t60.5 299
t164.5 244t244 164.5t299 60.5t299 -60.5t244 -164.5t164.5 -244t60.5 -299t-60.5 -299t-164.5 -244t-244 -164.5t-299 -60.5zM1024 896v256h256v128h-256v128h-128v-128h-256v-512h256v-256h-256v-128h256v-128h128v128h256v512h-256zM896 896h-128v256h128v-256zM1152 512
h-128v256h128v-256z" />
    <glyph glyph-name="uniEA0C" unicode="coin&#x2d;euro" 
d="M960 1792q-199 0 -374 -75.5t-305 -205.5t-205.5 -305t-75.5 -374t75.5 -374t205.5 -305t305 -205.5t374 -75.5t374 75.5t305 205.5t205.5 305t75.5 374t-75.5 374t-205.5 305t-305 205.5t-374 75.5zM960 64q-159 0 -299 60.5t-244 164.5t-164.5 244t-60.5 299t60.5 299
t164.5 244t244 164.5t299 60.5t299 -60.5t244 -164.5t164.5 -244t60.5 -299t-60.5 -299t-164.5 -244t-244 -164.5t-299 -60.5zM1342 631q-23 14 -49 7t-39 -30q-26 -44 -70.5 -70t-95.5 -26h-256q-63 0 -112 36t-69 92h309q27 0 45.5 18.5t18.5 45.5t-18.5 45.5t-45.5 18.5
h-320v128h320q27 0 45.5 18.5t18.5 45.5t-18.5 45.5t-45.5 18.5h-309q20 56 69 92t112 36h256q51 0 95.5 -26t70.5 -70q13 -23 39 -30t49 7q23 13 29.5 38.5t-6.5 48.5q-22 37 -52 66.5t-65.5 50.5t-76 32t-83.5 11h-256q-58 0 -110 -19.5t-93.5 -54t-70 -81t-40.5 -101.5
h-70q-27 0 -45.5 -18.5t-18.5 -45.5t18.5 -45.5t45.5 -18.5h64v-128h-64q-27 0 -45.5 -18.5t-18.5 -45.5t18.5 -45.5t45.5 -18.5h70q12 -55 40.5 -101.5t70 -81t93.5 -54t110 -19.5h256q43 0 83.5 11t76 32t65.5 50.5t52 66.5q13 23 6.5 48.5t-29.5 38.5v0z" />
    <glyph glyph-name="uniEA0D" unicode="coin&#x2d;pound" 
d="M960 1792q-199 0 -374 -75.5t-305 -205.5t-205.5 -305t-75.5 -374t75.5 -374t205.5 -305t305 -205.5t374 -75.5t374 75.5t305 205.5t205.5 305t75.5 374t-75.5 374t-205.5 305t-305 205.5t-374 75.5zM960 64q-159 0 -299 60.5t-244 164.5t-164.5 244t-60.5 299t60.5 299
t164.5 244t244 164.5t299 60.5t299 -60.5t244 -164.5t164.5 -244t60.5 -299t-60.5 -299t-164.5 -244t-244 -164.5t-299 -60.5zM1216 512h-448v256h192q27 0 45.5 18.5t18.5 45.5t-18.5 45.5t-45.5 18.5h-192v64q0 79 56.5 135.5t135.5 56.5q51 0 96 -26t70 -70
q14 -23 39.5 -30t48.5 7q23 13 29.5 38.5t-6.5 48.5q-21 37 -51 66.5t-66 50.5t-76.5 32t-83.5 11q-66 0 -124.5 -25t-102 -68.5t-68.5 -102t-25 -124.5v-64h-64q-27 0 -45.5 -18.5t-18.5 -45.5t18.5 -45.5t45.5 -18.5h64v-384h576q27 0 45.5 18.5t18.5 45.5t-18.5 45.5
t-45.5 18.5v0z" />
    <glyph glyph-name="uniEA0E" unicode="coin&#x2d;yen" 
d="M960 1792q-199 0 -374 -75.5t-305 -205.5t-205.5 -305t-75.5 -374t75.5 -374t205.5 -305t305 -205.5t374 -75.5t374 75.5t305 205.5t205.5 305t75.5 374t-75.5 374t-205.5 305t-305 205.5t-374 75.5zM960 64q-159 0 -299 60.5t-244 164.5t-164.5 244t-60.5 299t60.5 299
t164.5 244t244 164.5t299 60.5t299 -60.5t244 -164.5t164.5 -244t60.5 -299t-60.5 -299t-164.5 -244t-244 -164.5t-299 -60.5zM1216 768q27 0 45.5 18.5t18.5 45.5t-18.5 45.5t-45.5 18.5h-136l189 284q15 23 10 49t-28 40q-22 15 -48 10t-40 -27l-203 -305l-203 304
q-14 23 -40 28t-48 -10q-23 -14 -28 -40t10 -48l189 -285h-136q-27 0 -45.5 -18.5t-18.5 -45.5t18.5 -45.5t45.5 -18.5h192v-128h-192q-27 0 -45.5 -18.5t-18.5 -45.5t18.5 -45.5t45.5 -18.5h192v-192q0 -27 18.5 -45.5t45.5 -18.5t45.5 18.5t18.5 45.5v192h192
q27 0 45.5 18.5t18.5 45.5t-18.5 45.5t-45.5 18.5h-192v128h192v0z" />
    <glyph glyph-name="uniEA0F" unicode="money&#x36;" 
d="M1923 1152h-195q-34 66 -85 123t-115 104q1 41 16 79.5t43 68.5q5 6 11 12t13 11q15 13 21 32t0 37q-7 19 -22.5 31.5t-35.5 13.5h-6.5h-7.5q-42 0 -81 -13t-70.5 -36.5t-55.5 -56t-36 -70.5q-68 23 -141.5 35.5t-151.5 12.5q-156 0 -293 -48.5t-241 -132t-166 -196
t-67 -241.5q-6 1 -12 1h-11q-66 -1 -84 58.5t-21 111.5q-6 57 -65 57t-63 -59q-11 -37 -3 -87t19 -85q25 -82 90 -122.5t145 -47.5h12.5t12.5 2q19 -65 52.5 -124t80.5 -111v0q4 -4 8 -8.5t8 -8.5q21 -26 53.5 -86.5t32.5 -152.5v-128q0 -53 56 -90.5t136 -37.5t136 37.5
t56 90.5v137q31 -4 63 -6.5t65 -2.5t65 2.5t63 6.5v-137q0 -53 56 -90.5t136 -37.5t136 37.5t56 90.5v128q0 92 32.5 152.5t53.5 86.5q4 4 8 8.5t8 8.5v0v0v0q27 30 49.5 62t40.5 66h195q27 0 50 20t40.5 55t27.5 81.5t10 99.5t-10 99.5t-27.5 81.5t-40.5 55t-50 20v0z
M1216 1280h-384q-27 0 -45.5 18.5t-18.5 45.5t18.5 45.5t45.5 18.5h384q27 0 45.5 -18.5t18.5 -45.5t-18.5 -45.5t-45.5 -18.5zM1536 896q-53 0 -90.5 37.5t-37.5 90.5t37.5 90.5t90.5 37.5t90.5 -37.5t37.5 -90.5t-37.5 -90.5t-90.5 -37.5z" />
    <glyph glyph-name="uniEA10" unicode="money&#x37;" horiz-adv-x="2176" 
d="M1920 1664h-1664q-53 0 -99.5 -20t-81.5 -55t-55 -81.5t-20 -99.5v-1280q0 -53 37.5 -90.5t90.5 -37.5h1536q53 0 90.5 37.5t37.5 90.5v128h128q53 0 90.5 37.5t37.5 90.5v1152q0 53 -37.5 90.5t-90.5 37.5zM128 1152h64v-128h-64v128zM128 896h64v-128h-64v128zM128 640
h64v-128h-64v128zM128 384h64v-128h-64v128zM256 128h-128v64h128v-64zM256 1216h-128v64h128v-64zM512 128h-128v64h128v-64zM512 1216h-128v64h128v-64zM768 128h-128v64h128v-64zM768 1216h-128v64h128v-64zM1024 128h-128v64h128v-64zM1024 1216h-128v64h128v-64z
M1280 128h-128v64h128v-64zM1536 128h-128v64h128v-64zM1920 1024h-512v-384h512v-256v0v0h-128v128h-512v640h512v128q0 53 -37.5 90.5t-90.5 37.5h-1536q0 53 37.5 90.5t90.5 37.5h1664v0v0v-512zM1664 832q0 -27 -18.5 -45.5t-45.5 -18.5t-45.5 18.5t-18.5 45.5
t18.5 45.5t45.5 18.5t45.5 -18.5t18.5 -45.5z" />
    <glyph glyph-name="uniEA11" unicode="cash" horiz-adv-x="2176" 
d="M896 1024h128v-128h-128v128zM0 1408v-1152h2176v1152h-2176zM384 384h-256v256h128v-128h128v-128zM384 1152h-128v-128h-128v256h256v-128zM1344 896q27 0 45.5 -18.5t18.5 -45.5v-256q0 -27 -18.5 -45.5t-45.5 -18.5h-192v-64q0 -27 -18.5 -45.5t-45.5 -18.5
t-45.5 18.5t-18.5 45.5v64h-192q-27 0 -45.5 18.5t-18.5 45.5t18.5 45.5t45.5 18.5h192v128h-192q-27 0 -45.5 18.5t-18.5 45.5v256q0 27 18.5 45.5t45.5 18.5h192v64q0 27 18.5 45.5t45.5 18.5t45.5 -18.5t18.5 -45.5v-64h192q27 0 45.5 -18.5t18.5 -45.5t-18.5 -45.5
t-45.5 -18.5h-192v-128h192zM2048 384h-256v128h128v128h128v-256zM2048 1024h-128v128h-128v128h256v-256zM1152 768h128v-128h-128v128z" />
    <glyph glyph-name="uniEA12" unicode="cash&#x32;" horiz-adv-x="2176" 
d="M0 1408v-1152h2176v1152h-2176zM384 384h-256v256h128v-128h128v-128zM384 1152h-128v-128h-128v256h256v-128zM1088 384q-93 0 -174.5 35.5t-142 96t-96 142t-35.5 174.5t35.5 174.5t96 142t142 96t174.5 35.5t174.5 -35.5t142 -96t96 -142t35.5 -174.5t-35.5 -174.5
t-96 -142t-142 -96t-174.5 -35.5zM2048 384h-256v128h128v128h128v-256zM2048 1024h-128v128h-128v128h256v-256zM1088 1152q-66 0 -124.5 -25t-102 -68.5t-68.5 -102t-25 -124.5t25 -124.5t68.5 -102t102 -68.5t124.5 -25t124.5 25t102 68.5t68.5 102t25 124.5t-25 124.5
t-68.5 102t-102 68.5t-124.5 25z" />
    <glyph glyph-name="uniEA13" unicode="cash&#x33;" horiz-adv-x="2176" 
d="M896 768h128v-128h-128v128zM0 1152v-1152h2176v1152h-2176zM384 128h-256v256h128v-128h128v-128zM384 896h-128v-128h-128v256h256v-128zM1344 640q27 0 45.5 -18.5t18.5 -45.5v-256q0 -27 -18.5 -45.5t-45.5 -18.5h-192v-64q0 -27 -18.5 -45.5t-45.5 -18.5t-45.5 18.5
t-18.5 45.5v64h-192q-27 0 -45.5 18.5t-18.5 45.5t18.5 45.5t45.5 18.5h192v128h-192q-27 0 -45.5 18.5t-18.5 45.5v256q0 27 18.5 45.5t45.5 18.5h192v64q0 27 18.5 45.5t45.5 18.5t45.5 -18.5t18.5 -45.5v-64h192q27 0 45.5 -18.5t18.5 -45.5t-18.5 -45.5t-45.5 -18.5
h-192v-128h192zM2048 128h-256v128h128v128h128v-256zM2048 768h-128v128h-128v128h256v-256zM1152 512h128v-128h-128v128zM128 1408h1920v-192h-1920v192zM256 1664h1664v-192h-1664v192z" />
    <glyph glyph-name="uniEA14" unicode="cash&#x34;" horiz-adv-x="2176" 
d="M128 1408h1920v-192h-1920v192zM256 1664h1664v-192h-1664v192zM0 1152v-1152h2176v1152h-2176zM384 128h-256v256h128v-128h128v-128zM384 896h-128v-128h-128v256h256v-128zM1088 128q-93 0 -174.5 35.5t-142 96t-96 142t-35.5 174.5t35.5 174.5t96 142t142 96
t174.5 35.5t174.5 -35.5t142 -96t96 -142t35.5 -174.5t-35.5 -174.5t-96 -142t-142 -96t-174.5 -35.5zM2048 128h-256v128h128v128h128v-256zM2048 768h-128v128h-128v128h256v-256zM1088 896q-66 0 -124.5 -25t-102 -68.5t-68.5 -102t-25 -124.5t25 -124.5t68.5 -102
t102 -68.5t124.5 -25t124.5 25t102 68.5t68.5 102t25 124.5t-25 124.5t-68.5 102t-102 68.5t-124.5 25z" />
    <glyph glyph-name="uniEA15" unicode="credit&#x2d;card" 
d="M1856 1664h-1664q-79 0 -135.5 -56.5t-56.5 -135.5v-1152q0 -79 56.5 -135.5t135.5 -56.5h1664q79 0 135.5 56.5t56.5 135.5v1152q0 79 -56.5 135.5t-135.5 56.5zM192 1536h1664q26 0 45 -19t19 -45v-192h-1792v192q0 26 19 45t45 19zM1856 256h-1664q-26 0 -45 19
t-19 45v576h1792v-576q0 -26 -19 -45t-45 -19zM256 640h128v-256h-128v256zM512 640h128v-256h-128v256zM768 640h128v-256h-128v256z" />
    <glyph glyph-name="uniEA16" unicode="credit&#x2d;card&#x32;" 
d="M1856 1664h-1664q-79 0 -135.5 -56.5t-56.5 -135.5v-1152q0 -79 56.5 -135.5t135.5 -56.5h1664q79 0 135.5 56.5t56.5 135.5v1152q0 79 -56.5 135.5t-135.5 56.5zM384 384h-128v256h128v-256zM640 384h-128v256h128v-256zM896 384h-128v256h128v-256zM1984 896h-1920v384
h1920v-384z" />
    <glyph glyph-name="uniEA17" unicode="calculator" 
d="M1536 1920h-1024q-53 0 -90.5 -37.5t-37.5 -90.5v-1792q0 -53 37.5 -90.5t90.5 -37.5h1024q53 0 90.5 37.5t37.5 90.5v1792q0 53 -37.5 90.5t-90.5 37.5zM768 0h-256v256h256v-256zM768 384h-256v256h256v-256zM768 768h-256v256h256v-256zM1152 0h-256v256h256v-256z
M1152 384h-256v256h256v-256zM1152 768h-256v256h256v-256zM1536 0h-256v256h256v-256zM1536 384h-256v256h256v-256zM1536 768h-256v256h256v-256zM1536 1152h-1024v640h1024v-640z" />
    <glyph glyph-name="uniEA18" unicode="calculator&#x32;" 
d="M1856 -128h-1792q-27 0 -45.5 18.5t-18.5 45.5v1920q0 27 18.5 45.5t45.5 18.5h1792q27 0 45.5 -18.5t18.5 -45.5v-1920q0 -27 -18.5 -45.5t-45.5 -18.5zM128 0h1664v1792h-1664v-1792zM256 1664h1408v-384h-1408v384zM256 1152h256v-256h-256v256zM640 1152h256v-256
h-256v256zM1024 1152h256v-256h-256v256zM256 768h256v-256h-256v256zM640 768h256v-256h-256v256zM1024 768h256v-256h-256v256zM256 384h256v-256h-256v256zM640 384h256v-256h-256v256zM1024 384h256v-256h-256v256zM1408 768h256v-640h-256v640zM1408 1152h256v-256
h-256v256z" />
    <glyph glyph-name="uniEA19" unicode="calculator&#x33;" 
d="M768 1792h-640q-53 0 -90.5 -37.5t-37.5 -90.5v-640q0 -53 37.5 -90.5t90.5 -37.5h640q53 0 90.5 37.5t37.5 90.5v640q0 53 -37.5 90.5t-90.5 37.5zM768 1280h-640v128h640v-128zM1792 1792h-640q-53 0 -90.5 -37.5t-37.5 -90.5v-1664q0 -53 37.5 -90.5t90.5 -37.5h640
q53 0 90.5 37.5t37.5 90.5v1664q0 53 -37.5 90.5t-90.5 37.5zM1792 640h-640v128h640v-128zM1792 1024h-640v128h640v-128zM768 768h-640q-53 0 -90.5 -37.5t-37.5 -90.5v-640q0 -53 37.5 -90.5t90.5 -37.5h640q53 0 90.5 37.5t37.5 90.5v640q0 53 -37.5 90.5t-90.5 37.5z
M768 256h-256v-256h-128v256h-256v128h256v256h128v-256h256v-128z" />
    <glyph glyph-name="uniEA1A" unicode="chip" 
d="M1856 896q27 0 45.5 18.5t18.5 45.5t-18.5 45.5t-45.5 18.5h-192v128h192q27 0 45.5 18.5t18.5 45.5t-18.5 45.5t-45.5 18.5h-192v192l-64 64h-192v192q0 27 -18.5 45.5t-45.5 18.5t-45.5 -18.5t-18.5 -45.5v-192h-128v192q0 27 -18.5 45.5t-45.5 18.5t-45.5 -18.5
t-18.5 -45.5v-192h-128v192q0 27 -18.5 45.5t-45.5 18.5t-45.5 -18.5t-18.5 -45.5v-192h-128v192q0 27 -18.5 45.5t-45.5 18.5t-45.5 -18.5t-18.5 -45.5v-192h-192l-64 -64v-192h-192q-27 0 -45.5 -18.5t-18.5 -45.5t18.5 -45.5t45.5 -18.5h192v-128h-192q-27 0 -45.5 -18.5
t-18.5 -45.5t18.5 -45.5t45.5 -18.5h192v-128h-192q-27 0 -45.5 -18.5t-18.5 -45.5t18.5 -45.5t45.5 -18.5h192v-128h-192q-27 0 -45.5 -18.5t-18.5 -45.5t18.5 -45.5t45.5 -18.5h192v-192l64 -64h192v-192q0 -27 18.5 -45.5t45.5 -18.5t45.5 18.5t18.5 45.5v192h128v-192
q0 -27 18.5 -45.5t45.5 -18.5t45.5 18.5t18.5 45.5v192h128v-192q0 -27 18.5 -45.5t45.5 -18.5t45.5 18.5t18.5 45.5v192h128v-192q0 -27 18.5 -45.5t45.5 -18.5t45.5 18.5t18.5 45.5v192h192l64 64v192h192q27 0 45.5 18.5t18.5 45.5t-18.5 45.5t-45.5 18.5h-192v128h192
q27 0 45.5 18.5t18.5 45.5t-18.5 45.5t-45.5 18.5h-192v128h192zM1152 640h-384v384h384v-384z" />
    <glyph glyph-name="uniEA1B" unicode="lifebuoy" 
d="M1024 1920q-212 0 -398.5 -80.5t-325.5 -219.5t-219.5 -325.5t-80.5 -398.5t80.5 -398.5t219.5 -325.5t325.5 -219.5t398.5 -80.5t398.5 80.5t325.5 219.5t219.5 325.5t80.5 398.5t-80.5 398.5t-219.5 325.5t-325.5 219.5t-398.5 80.5zM640 896q0 80 30 149.5t82.5 122
t122 82.5t149.5 30t149.5 -30t122 -82.5t82.5 -122t30 -149.5t-30 -149.5t-82.5 -122t-122 -82.5t-149.5 -30t-149.5 30t-122 82.5t-82.5 122t-30 149.5zM1852 553v0l-355 147q19 45 29 94.5t10 101.5t-10 101.5t-29 94.5l355 147q16 -40 29 -81.5t21.5 -84.5t13 -87
t4.5 -90t-4.5 -90t-13 -87t-21.5 -84.5t-29 -81.5v0zM1367 1724v0v0l-147 -355q-45 19 -94.5 29t-101.5 10t-101.5 -10t-94.5 -29l-147 355q40 16 81.5 29t84.5 21.5t87 13t90 4.5t90 -4.5t87 -13t84.5 -21.5t81.5 -29v0zM196 1239l355 -147q-19 -45 -29 -94.5t-10 -101.5
t10 -101.5t29 -94.5l-355 -147q-16 40 -29 81.5t-21.5 84.5t-13 87t-4.5 90t4.5 90t13 87t21.5 84.5t29 81.5v0zM681 68l147 355q45 -19 94.5 -29t101.5 -10t101.5 10t94.5 29l147 -355q-40 -16 -81.5 -29t-84.5 -21.5t-87 -13t-90 -4.5t-90 4.5t-87 13t-84.5 21.5t-81.5 29
z" />
    <glyph glyph-name="uniEA1C" unicode="phone" 
d="M1932 1566q-42 36 -100.5 67.5t-130.5 57.5q-69 24 -147.5 43t-164.5 32t-178 19.5t-187 6.5v0v0q-95 0 -187 -6.5t-178 -19.5t-164.5 -32t-147.5 -43q-72 -26 -130.5 -57.5t-100.5 -67.5q-72 -60 -94 -119.5t-22 -102.5v-128q0 -25 9.5 -49t27.5 -42l64 -64
q19 -18 42.5 -27.5t48.5 -9.5q12 0 24 2.5t24 6.5l320 128q36 15 58 47.5t22 71.5v223q44 8 90.5 14.5t94.5 10.5t98 6t101 2v0v0q51 0 101 -2t98 -6t94.5 -10.5t90.5 -14.5v-223q0 -39 22 -71.5t58 -47.5l320 -128q12 -4 24 -6.5t24 -2.5q25 0 48.5 9.5t42.5 27.5l64 64
q18 18 27.5 42t9.5 49v128q0 43 -22 102.5t-94 119.5v0zM1911 328q-1 2 -9.5 31.5t-25 76t-40.5 106t-54 121.5q-43 90 -101 157.5t-129.5 113t-155.5 68t-180 22.5h-384q-96 0 -180 -22.5t-155.5 -68t-129.5 -113t-101 -157.5q-30 -62 -54 -121.5t-40.5 -106t-25 -76
t-9.5 -31.5q-18 -63 -8.5 -123.5t44.5 -106.5q35 -47 90 -72.5t121 -25.5h1280q66 0 121 25.5t90 72.5q35 46 44.5 106.5t-8.5 123.5zM1024 256q-53 0 -99.5 20t-81.5 55t-55 81.5t-20 99.5t20 99.5t55 81.5t81.5 55t99.5 20t99.5 -20t81.5 -55t55 -81.5t20 -99.5t-20 -99.5
t-55 -81.5t-81.5 -55t-99.5 -20z" />
    <glyph glyph-name="uniEA1D" unicode="phone&#x32;" 
d="M1408 640q-48 -48 -76 -94t-52 -82t-52 -58t-76 -22t-96 22t-96 58t-96 82t-96 94t-94 96t-82 96t-58 96t-22 96t22 76t58 52t82 52t94 76t12 134t-108 170t-156 146t-132 62t-114 -60t-126 -132t-102 -132l-42 -60q0 -96 45 -233t117.5 -281.5t164.5 -280.5t185 -229
t229 -185t280.5 -164.5t281.5 -117.5t233 -45l60 42t132 102t132 126t60 114t-62 132t-146 156t-170 108t-134 -12z" />
    <glyph glyph-name="uniEA1E" unicode="phone&#x2d;slash" 
d="M643 771q-57 63 -94 126.5t-37 126.5q0 48 22 76t58 52t82 52t94 76t12 134t-108 170t-156 146t-132 62t-114 -60t-126 -132t-102 -132l-42 -60q0 -81 32.5 -191.5t86.5 -231.5t125.5 -241.5t148.5 -222.5zM1408 640q-48 -48 -76 -94t-52 -82t-52 -58t-76 -22
q-62 0 -124.5 36t-124.5 91l861 861q28 28 28 68t-28 68t-68 28t-68 -28l-1472 -1472q-28 -28 -28 -68t28 -68q14 -14 32 -21t36 -7t36 7t32 21l362 362q101 -77 221.5 -147.5t240.5 -124.5t230 -86t190 -32l60 42t132 102t132 126t60 114t-62 132t-146 156t-170 108
t-134 -12z" />
    <glyph glyph-name="uniEA1F" unicode="phone&#x2d;wave" 
d="M1408 640q48 48 134 12t170 -108t146 -156t62 -132t-60 -114t-132 -126t-132 -102l-60 -42q-96 0 -233 45t-281.5 117.5t-280.5 164.5t-229 185t-185 229t-164.5 280.5t-117.5 281.5t-45 233l42 60t102 132t126 132t114 60t132 -62t156 -146t108 -170t-12 -134t-94 -76
t-82 -52t-58 -52t-22 -76t22 -96t58 -96t82 -96t94 -96t96 -94t96 -82t96 -58t96 -22t76 22t52 58t52 82t76 94zM1472 896q-27 0 -45.5 18.5t-18.5 45.5q0 66 -25 124.5t-68.5 102t-102 68.5t-124.5 25q-27 0 -45.5 18.5t-18.5 45.5t18.5 45.5t45.5 18.5q93 0 174.5 -35.5
t142 -96t96 -142t35.5 -174.5q0 -27 -18.5 -45.5t-45.5 -18.5zM1728 896q-27 0 -45.5 18.5t-18.5 45.5q0 119 -45.5 224t-123.5 183t-183 123.5t-224 45.5q-27 0 -45.5 18.5t-18.5 45.5t18.5 45.5t45.5 18.5q146 0 274 -55.5t223.5 -151t151 -223.5t55.5 -274
q0 -27 -18.5 -45.5t-45.5 -18.5zM1984 896q-27 0 -45.5 18.5t-18.5 45.5q0 172 -65.5 323.5t-178.5 264.5t-264.5 178.5t-323.5 65.5q-27 0 -45.5 18.5t-18.5 45.5t18.5 45.5t45.5 18.5q96 0 188.5 -18.5t179 -54t165 -88t146.5 -120.5t120.5 -146.5t88 -165t54 -179
t18.5 -188.5q0 -27 -18.5 -45.5t-45.5 -18.5z" />
    <glyph glyph-name="uniEA20" unicode="phone&#x2d;plus" 
d="M1408 640q48 48 134 12t170 -108t146 -156t62 -132t-60 -114t-132 -126t-132 -102l-60 -42q-96 0 -233 45t-281.5 117.5t-280.5 164.5t-229 185t-185 229t-164.5 280.5t-117.5 281.5t-45 233l42 60t102 132t126 132t114 60t132 -62t156 -146t108 -170t-12 -134t-94 -76
t-82 -52t-58 -52t-22 -76t22 -96t58 -96t82 -96t94 -96t96 -94t96 -82t96 -58t96 -22t76 22t52 58t52 82t76 94zM1472 1920q-119 0 -224 -45.5t-183 -123.5t-123.5 -183t-45.5 -224t45.5 -224t123.5 -183t183 -123.5t224 -45.5t224 45.5t183 123.5t123.5 183t45.5 224
t-45.5 224t-123.5 183t-183 123.5t-224 45.5zM1536 1280v-256h-128v256h-256v128h256v256h128v-256h256v-128h-256z" />
    <glyph glyph-name="uniEA21" unicode="phone&#x2d;minus" 
d="M1408 640q48 48 134 12t170 -108t146 -156t62 -132t-60 -114t-132 -126t-132 -102l-60 -42q-96 0 -233 45t-281.5 117.5t-280.5 164.5t-229 185t-185 229t-164.5 280.5t-117.5 281.5t-45 233l42 60t102 132t126 132t114 60t132 -62t156 -146t108 -170t-12 -134t-94 -76
t-82 -52t-58 -52t-22 -76t22 -96t58 -96t82 -96t94 -96t96 -94t96 -82t96 -58t96 -22t76 22t52 58t52 82t76 94zM1472 1920q-119 0 -224 -45.5t-183 -123.5t-123.5 -183t-45.5 -224t45.5 -224t123.5 -183t183 -123.5t224 -45.5t224 45.5t183 123.5t123.5 183t45.5 224
t-45.5 224t-123.5 183t-183 123.5t-224 45.5zM1792 1280h-640v128h640v-128z" />
    <glyph glyph-name="uniEA22" unicode="phone&#x2d;plus&#x32;" 
d="M1408 640q48 48 134 12t170 -108t146 -156t62 -132t-60 -114t-132 -126t-132 -102l-60 -42q-96 0 -233 45t-281.5 117.5t-280.5 164.5t-229 185t-185 229t-164.5 280.5t-117.5 281.5t-45 233l42 60t102 132t126 132t114 60t132 -62t156 -146t108 -170t-12 -134t-94 -76
t-82 -52t-58 -52t-22 -76t22 -96t58 -96t82 -96t94 -96t96 -94t96 -82t96 -58t96 -22t76 22t52 58t52 82t76 94zM1920 1280h-256v-256h-256v256h-256v256h256v256h256v-256h256v-256z" />
    <glyph glyph-name="uniEA23" unicode="phone&#x2d;minus&#x32;" 
d="M1408 640q48 48 134 12t170 -108t146 -156t62 -132t-60 -114t-132 -126t-132 -102l-60 -42q-96 0 -233 45t-281.5 117.5t-280.5 164.5t-229 185t-185 229t-164.5 280.5t-117.5 281.5t-45 233l42 60t102 132t126 132t114 60t132 -62t156 -146t108 -170t-12 -134t-94 -76
t-82 -52t-58 -52t-22 -76t22 -96t58 -96t82 -96t94 -96t96 -94t96 -82t96 -58t96 -22t76 22t52 58t52 82t76 94zM1152 1536h768v-256h-768v256zM1152 1536h768v-256h-768v256z" />
    <glyph glyph-name="uniEA24" unicode="phone&#x2d;incoming" 
d="M1467 1157l453 454l-181 181l-454 -453l-261 261v-704h704zM1408 640q-48 -48 -76 -94t-52 -82t-52 -58t-76 -22t-96 22t-96 58t-96 82t-96 94t-94 96t-82 96t-58 96t-22 96t22 76t58 52t82 52t94 76t12 134t-108 170t-156 146t-132 62t-114 -60t-126 -132t-102 -132
l-42 -60q0 -96 45 -233t117.5 -281.5t164.5 -280.5t185 -229t229 -185t280.5 -164.5t281.5 -117.5t233 -45l60 42t132 102t132 126t60 114t-62 132t-146 156t-170 108t-134 -12z" />
    <glyph glyph-name="uniEA25" unicode="phone&#x2d;outgoing" 
d="M1408 640q-48 -48 -76 -94t-52 -82t-52 -58t-76 -22t-96 22t-96 58t-96 82t-96 94t-94 96t-82 96t-58 96t-22 96t22 76t58 52t82 52t94 76t12 134t-108 170t-156 146t-132 62t-114 -60t-126 -132t-102 -132l-42 -60q0 -96 45 -233t117.5 -281.5t164.5 -280.5t185 -229
t229 -185t280.5 -164.5t281.5 -117.5t233 -45l60 42t132 102t132 126t60 114t-62 132t-146 156t-170 108t-134 -12zM1205 896l454 453l261 -261v704h-704l261 -261l-453 -454z" />
    <glyph glyph-name="uniEA26" unicode="phone&#x33;" 
d="M1615 -128h-25q-49 0 -110 11.5t-130 33t-145.5 52.5t-156.5 71q-78 40 -151.5 83.5t-140.5 89.5t-125 93t-104 93t-93 104t-93 125t-89.5 140.5t-83.5 151.5q-40 80 -71 156.5t-52.5 145.5t-33 130t-11.5 110v25l13 20q2 3 44.5 63t102.5 132q32 38 68 77t74 70t77.5 51
t78.5 20q33 0 69 -15t70.5 -36.5t65 -46t51.5 -44.5q17 -16 43.5 -43t56 -62t57 -76.5t46.5 -86.5q39 -95 19 -150.5t-44 -79.5q-41 -41 -80.5 -68t-71.5 -47q-51 -31 -64 -44.5t-13 -35.5q0 -35 20 -73.5t52.5 -79.5t73.5 -83.5t83 -84.5t84.5 -83t83.5 -73.5t79.5 -52.5
t73.5 -20q22 0 35.5 13t44.5 64q20 32 47 71.5t68 80.5q24 24 55 36.5t67 12.5q39 0 83.5 -15t93.5 -45q38 -23 78.5 -54.5t78.5 -69.5q16 -16 47 -49t61.5 -74.5t53 -87.5t22.5 -88q0 -39 -20 -78.5t-51 -77.5t-70 -74t-77 -68q-72 -60 -132 -102.5t-63 -44.5l-20 -13v0z
M161 1439q3 -40 14.5 -90.5t30.5 -107.5t45.5 -120t59.5 -129q36 -71 76.5 -139.5t83 -130.5t85.5 -115.5t84 -94.5t94.5 -84t115.5 -85.5t130.5 -83t139.5 -76.5q66 -33 129 -59.5t120 -45.5t107.5 -30.5t90.5 -14.5q23 16 65.5 47t89.5 70q109 90 136.5 132.5t29.5 47.5
q-3 18 -37 70t-103 119q-72 69 -131 101.5t-87 32.5q-3 0 -5.5 -0.5t-3.5 -1.5q-31 -31 -52 -62t-40 -61q-33 -54 -78.5 -103.5t-137.5 -49.5q-60 0 -116 24t-110 63t-106 88.5t-102 100.5q-51 50 -100.5 102t-88.5 106t-63 110t-24 116q0 92 49.5 137.5t103.5 78.5
q30 19 61 40t62 52q1 2 1 13t-7 33q-16 44 -58 100.5t-98 110.5q-60 57 -103 82.5t-56 27.5q-6 -2 -48 -30t-133 -137q-38 -47 -69 -89t-47 -65v0z" />
    <glyph glyph-name="uniEA27" unicode="phone&#x2d;slash&#x32;" 
d="M1615 -128h-25q-49 0 -110 11.5t-130 33t-145.5 52.5t-156.5 71q-78 40 -151.5 83.5t-140.5 89.5t-125 93t-104 93t-93 104t-93 125t-89.5 140.5t-83.5 151.5q-40 80 -71 156.5t-52.5 145.5t-33 130t-11.5 110v25l13 20q2 3 44.5 63t102.5 132q32 38 68 77t74 70t77.5 51
t78.5 20q33 0 69 -15t70.5 -36.5t65 -46t51.5 -44.5q17 -16 43.5 -43t56 -62t57 -76.5t46.5 -86.5q39 -95 19 -150.5t-44 -79.5q-41 -41 -80.5 -68t-71.5 -47q-51 -31 -64 -44.5t-13 -35.5q0 -35 20 -73.5t52.5 -79.5t73.5 -83.5t83 -84.5t84.5 -83t83.5 -73.5t79.5 -52.5
t73.5 -20q22 0 35.5 13t44.5 64q20 32 47 71.5t68 80.5q24 24 55 36.5t67 12.5q39 0 83.5 -15t93.5 -45q38 -23 78.5 -54.5t78.5 -69.5q16 -16 47 -49t61.5 -74.5t53 -87.5t22.5 -88q0 -39 -20 -78.5t-51 -77.5t-70 -74t-77 -68q-72 -60 -132 -102.5t-63 -44.5l-20 -13v0z
M161 1439q3 -40 14.5 -90.5t30.5 -107.5t45.5 -120t59.5 -129q36 -71 76.5 -139.5t83 -130.5t85.5 -115.5t84 -94.5t94.5 -84t115.5 -85.5t130.5 -83t139.5 -76.5q66 -33 129 -59.5t120 -45.5t107.5 -30.5t90.5 -14.5q23 16 65.5 47t89.5 70q109 90 136.5 132.5t29.5 47.5
q-3 18 -37 70t-103 119q-72 69 -131 101.5t-87 32.5q-3 0 -5.5 -0.5t-3.5 -1.5q-31 -31 -52 -62t-40 -61q-33 -54 -78.5 -103.5t-137.5 -49.5q-60 0 -116 24t-110 63t-106 88.5t-102 100.5q-51 50 -100.5 102t-88.5 106t-63 110t-24 116q0 92 49.5 137.5t103.5 78.5
q30 19 61 40t62 52q1 2 1 13t-7 33q-16 44 -58 100.5t-98 110.5q-60 57 -103 82.5t-56 27.5q-6 -2 -48 -30t-133 -137q-38 -47 -69 -89t-47 -65v0v0zM96 -128q-18 0 -36 7t-32 21q-28 28 -28 68t28 68l1472 1472q28 28 68 28t68 -28t28 -68t-28 -68l-1472 -1472
q-14 -14 -32 -21t-36 -7v0z" />
    <glyph glyph-name="uniEA28" unicode="phone&#x2d;wave&#x32;" 
d="M1615 -128h-25q-49 0 -110 11.5t-130 33t-145.5 52.5t-156.5 71q-78 40 -151.5 83.5t-140.5 89.5t-125 93t-104 93t-93 104t-93 125t-89.5 140.5t-83.5 151.5q-40 80 -71 156.5t-52.5 145.5t-33 130t-11.5 110v25l13 20q2 3 44.5 63t102.5 132q32 38 68 77t74 70t77.5 51
t78.5 20q33 0 69 -15t70.5 -36.5t65 -46t51.5 -44.5q17 -16 43.5 -43t56 -62t57 -76.5t46.5 -86.5q39 -95 19 -150.5t-44 -79.5q-41 -41 -80.5 -68t-71.5 -47q-51 -31 -64 -44.5t-13 -35.5q0 -35 20 -73.5t52.5 -79.5t73.5 -83.5t83 -84.5t84.5 -83t83.5 -73.5t79.5 -52.5
t73.5 -20q22 0 35.5 13t44.5 64q20 32 47 71.5t68 80.5q24 24 55 36.5t67 12.5q39 0 83.5 -15t93.5 -45q38 -23 78.5 -54.5t78.5 -69.5q16 -16 47 -49t61.5 -74.5t53 -87.5t22.5 -88q0 -39 -20 -78.5t-51 -77.5t-70 -74t-77 -68q-72 -60 -132 -102.5t-63 -44.5l-20 -13v0z
M161 1439q3 -40 14.5 -90.5t30.5 -107.5t45.5 -120t59.5 -129q36 -71 76.5 -139.5t83 -130.5t85.5 -115.5t84 -94.5t94.5 -84t115.5 -85.5t130.5 -83t139.5 -76.5q66 -33 129 -59.5t120 -45.5t107.5 -30.5t90.5 -14.5q23 16 65.5 47t89.5 70q109 90 136.5 132.5t29.5 47.5
q-3 18 -37 70t-103 119q-72 69 -131 101.5t-87 32.5q-3 0 -5.5 -0.5t-3.5 -1.5q-31 -31 -52 -62t-40 -61q-33 -54 -78.5 -103.5t-137.5 -49.5q-60 0 -116 24t-110 63t-106 88.5t-102 100.5q-51 50 -100.5 102t-88.5 106t-63 110t-24 116q0 92 49.5 137.5t103.5 78.5
q30 19 61 40t62 52q1 2 1 13t-7 33q-16 44 -58 100.5t-98 110.5q-60 57 -103 82.5t-56 27.5q-6 -2 -48 -30t-133 -137q-38 -47 -69 -89t-47 -65v0v0zM1472 896q-27 0 -45.5 18.5t-18.5 45.5q0 66 -25 124.5t-68.5 102t-102 68.5t-124.5 25q-27 0 -45.5 18.5t-18.5 45.5
t18.5 45.5t45.5 18.5q93 0 174.5 -35.5t142 -96t96 -142t35.5 -174.5q0 -27 -18.5 -45.5t-45.5 -18.5zM1728 896q-27 0 -45.5 18.5t-18.5 45.5q0 119 -45.5 224t-123.5 183t-183 123.5t-224 45.5q-27 0 -45.5 18.5t-18.5 45.5t18.5 45.5t45.5 18.5q146 0 274 -55.5
t223.5 -151t151 -223.5t55.5 -274q0 -27 -18.5 -45.5t-45.5 -18.5zM1984 896q-27 0 -45.5 18.5t-18.5 45.5q0 172 -65.5 323.5t-178.5 264.5t-264.5 178.5t-323.5 65.5q-27 0 -45.5 18.5t-18.5 45.5t18.5 45.5t45.5 18.5q96 0 188.5 -18.5t179 -54t165 -88t146.5 -120.5
t120.5 -146.5t88 -165t54 -179t18.5 -188.5q0 -27 -18.5 -45.5t-45.5 -18.5z" />
    <glyph glyph-name="uniEA29" unicode="phone&#x2d;hang&#x2d;up" 
d="M2035 768q6 -42 10 -89t3 -91.5t-9.5 -81.5t-27.5 -59q-30 -36 -128.5 -52.5t-204 -7.5t-188 46.5t-82.5 109.5q0 73 32.5 128.5t-29.5 128.5q-30 35 -71.5 54.5t-91.5 28.5t-106.5 11t-117.5 2t-117.5 -2t-106.5 -11t-91.5 -28.5t-71.5 -54.5q-62 -73 -29.5 -128.5
t32.5 -128.5q0 -72 -82.5 -109.5t-188 -46.5t-204 7.5t-128.5 52.5q-19 22 -27.5 59t-9.5 81.5t3 91.5t10 89q9 56 39 117.5t104 138.5v0v0q56 52 129.5 98.5t175.5 81t238 55t317 21.5v0h4h4h4h4v0q181 -1 317 -21.5t238 -55t175.5 -81t129.5 -98.5v0v0q74 -76 104 -138
t39 -118v0z" />
    </font>
</defs>
</svg>
